<?xml version="1.0" standalone="no"?>
<!DOCTYPE svg PUBLIC "-//W3C//DTD SVG 1.1//EN" "http://www.w3.org/Graphics/SVG/1.1/DTD/svg11.dtd" >
<svg>
<metadata>
Created by FontForge 20090914 at Thu Mar 28 03:08:11 2013
 By www-data
1991 Font collection.
</metadata>
<defs>
<font id="Korinna-Normal" horiz-adv-x="514" >
  <font-face 
    font-family="Korinna"
    font-weight="400"
    font-stretch="normal"
    units-per-em="1000"
    panose-1="0 0 0 0 0 0 0 0 0 0"
    ascent="800"
    descent="-200"
    x-height="425.999"
    cap-height="634.001"
    bbox="0 -214 926.001 786"
    underline-thickness="52"
    underline-position="-134"
    unicode-range="U+0020-U+2122"
  />
<missing-glyph horiz-adv-x="786" 
d="M49 0v786h688v-786h-688zM688 49v688h-590v-688h590z" />
    <glyph glyph-name=".notdef" horiz-adv-x="786" 
d="M49 0v786h688v-786h-688zM688 49v688h-590v-688h590z" />
    <glyph glyph-name="space" unicode=" " horiz-adv-x="418" 
 />
    <glyph glyph-name="exclam" unicode="!" horiz-adv-x="218" 
d="M132 156l-34 366.001c-1.33301 8.66699 -2.33301 16 -3 22s-1 14 -1 24c0 21.333 3.83301 39.666 11.5 54.999s20.5 23 38.5 23h12c14.667 -2.66699 25 -10.667 31 -24s9 -29.333 9 -48c0 -7.33301 -0.5 -15.333 -1.5 -24s-1.83301 -18 -2.5 -28l-32 -366h-28z
M194 22.001c-4.66699 -11.333 -11.501 -19.834 -20.501 -25.501s-18.833 -8.5 -29.5 -8.5c-14 0 -26.5 4.83301 -37.5 14.5s-16.5 22.834 -16.5 39.501c0 14.667 5.33301 27.334 16 38.001s23.334 16 38.001 16c14 0 26.5 -5.83301 37.5 -17.5s16.5 -23.834 16.5 -36.501
c0 -5.33301 -1.33301 -12 -4 -20z" />
    <glyph glyph-name="quotedbl" unicode="&#x22;" horiz-adv-x="306" 
d="M104 384l-14.001 -0.000976562l-28 202l-2 16c0 12.667 3 23.5 9 32.5s15.667 13.5 29 13.5c12.667 0 21.834 -4.66699 27.501 -14s8.5 -20.666 8.5 -33.999v-14zM279.999 585.999l-30 -202h-14l-28 202l-2 14c0 15.333 3.5 27.5 10.5 36.5s15.5 13.5 25.5 13.5
s18.833 -4.5 26.5 -13.5s11.5 -21.167 11.5 -36.5v-14z" />
    <glyph glyph-name="numbersign" unicode="#" horiz-adv-x="692" 
d="M366 646h58l-74 -210h126l76 210h58l-74 -210h136l-18 -50h-138l-44 -126h148l-20 -52h-146l-74 -208h-58l74 208h-128l-74 -208h-58l74 208h-144l20 52h142l44 126h-154l20 50h154zM460 386h-130l-44 -128h128z" />
    <glyph glyph-name="dollar" unicode="$" horiz-adv-x="494" 
d="M74 104l-0.000976562 101.997h28c7.33301 -18 14.333 -31.667 21 -41c9.33301 -12.667 21.333 -22.667 36 -30s31.167 -12.666 49.5 -15.999s37.5 -5 57.5 -5c20.667 0 40.667 3.33301 60 10s34 17.334 44 32.001c8 12 12 26 12 42c0 11.333 -2.33301 22.333 -7 33
s-11.667 19 -21 25c-17.333 10.667 -58 24.334 -122 41.001c-101.333 26 -156 66.333 -164 121l-2 22c0 44.667 18.333 79.334 55 104.001c29.333 19.333 69.666 32 120.999 38v112h56v-110c20.667 0 43 -2 67 -6c8.66699 -1.33301 30.334 -6 65.001 -14v-102h-30
c-10 33.333 -31.333 54.666 -64 63.999c-7.33301 2.66699 -16.333 4.66699 -27 6s-21 2 -31 2c-8 0 -15.667 -0.166992 -23 -0.5s-18.333 -2 -33 -5s-30 -12.5 -46 -28.5s-24 -32.667 -24 -50c0 -20.667 13.333 -36.667 40 -48c12.667 -5.33301 50.667 -16.333 114 -33
c91.333 -24 145.333 -59 162 -105c4 -12 6 -25.333 6 -40c0 -18.667 -2.83301 -36 -8.5 -52s-14.167 -31.333 -25.5 -46c-15.333 -18.667 -37 -33 -65 -43c-16 -6 -41.667 -11.667 -77 -17v-130h-56v128c-29.333 0 -56.666 3.16699 -81.999 9.5s-54 16.5 -86 30.5z" />
    <glyph glyph-name="percent" unicode="%" horiz-adv-x="672" 
d="M176 -10l-55.999 0.000976562l356 542c-12.667 -6.66699 -26.167 -12.334 -40.5 -17.001s-27.5 -7 -39.5 -7c-18.667 0 -38.667 5.33301 -60 16l2 -24c0 -44.667 -10.333 -80.667 -31 -108c-23.333 -30.667 -58.333 -46 -105 -46c-42.667 0 -76.334 14.333 -101.001 43
s-37 63.667 -37 105c0 18 3.33301 38 10 60c10 28 26.333 49.667 49 65s49 23 79 23c24.667 0 46 -4.66699 64 -14c14 -7.33301 31.333 -21.333 52 -42c24 -24 50.667 -36 80 -36c26 0 52.667 8.83301 80 26.5s50 39.5 68 65.5h54zM512.001 234.001
c-26 0 -44.833 -9 -56.5 -27s-17.5 -41 -17.5 -69s5.83301 -51.333 17.5 -70s30.5 -28 56.5 -28s45.333 10 58 30c10.667 16.667 16 38.667 16 66c0 25.333 -5.66699 47 -17 65c-14 22 -33 33 -57 33zM128.001 492.001c0 -28 5.83496 -50.667 17.502 -68s30.5 -26 56.5 -26
s45.333 10 58 30c10.667 16.667 16 39.334 16 68.001c0 26 -4.66699 47.333 -14 64c-12.667 22.667 -33.334 34 -62.001 34c-24.667 0 -42.834 -9.83301 -54.501 -29.5s-17.5 -43.834 -17.5 -72.501zM384.003 196.001c10 28 27.001 50.001 51.001 66.001s50.333 24 79 24
c27.333 0 52.666 -7.33301 75.999 -22c19.333 -13.333 33.833 -31.5 43.5 -54.5s14.5 -47.5 14.5 -73.5c0 -8.66699 -0.333008 -16 -1 -22s-3 -18 -7 -36c-9.33301 -28.667 -26 -50.5 -50 -65.5s-50.667 -22.5 -80 -22.5l-30 2c-33.333 6 -59 22.833 -77 50.5
s-27 59.5 -27 95.5c0 14.667 0.333008 25.167 1 31.5s3 15.166 7 26.499z" />
    <glyph glyph-name="ampersand" unicode="&#x26;" horiz-adv-x="692" 
d="M672 252c-30 0 -49.168 -2.99707 -57.501 -8.99707s-14.5 -24.333 -18.5 -55c-6.66699 -65.333 -38 -116.666 -94 -153.999c-50 -33.333 -110 -50 -180 -50c-52 0 -103.667 13 -155 39c-72.667 36.667 -109 89.667 -109 159c0 41.333 12.333 76.333 37 105
s57.667 49.667 99 63v6c-29.333 11.333 -53.666 29.166 -72.999 53.499s-29 51.166 -29 80.499c0 7.33301 1.33301 15.833 4 25.5s6 19.167 10 28.5c16.667 36 44 62.667 82 80c32.667 14.667 72 22 118 22c32 0 62.333 -2.33301 91 -7s59.667 -11.667 93 -21v-114h-30
c-18.667 51.333 -57.334 80 -116.001 86h-24c-24 0 -46 -3 -66 -9s-36.667 -15.667 -50 -29c-17.333 -17.333 -26 -39.333 -26 -66c0 -12 1.5 -22.833 4.5 -32.5s8.16699 -18.834 15.5 -27.501c14.667 -18 34.334 -30.333 59.001 -37c17.333 -4.66699 41 -7 71 -7h22v-56
h-38c-17.333 0 -31.833 -0.833008 -43.5 -2.5s-23.834 -5.5 -36.501 -11.5c-22 -10 -39.667 -22.667 -53 -38c-15.333 -18 -25 -38.667 -29 -62l-2 -26c0 -43.333 18 -78.333 54 -105c32.667 -24.667 72.667 -37 120 -37c48.667 0 92 12.667 130 38
c42.667 28.667 64 66 64 112v8c0 21.333 -9 35.666 -27 42.999c-11.333 4.66699 -29.666 7 -54.999 7h-4v32h242v-32z" />
    <glyph glyph-name="quotesingle" unicode="'" horiz-adv-x="158" 
d="M104 384h-14l-28 202l-2 14c0 15.333 3.5 27.5 10.5 36.5s15.5 13.5 25.5 13.5s18.833 -4.5 26.5 -13.5s11.5 -21.833 11.5 -38.5v-12z" />
    <glyph glyph-name="parenleft" unicode="(" horiz-adv-x="296" 
d="M274 -144l-27.998 -28.002c-58.667 64 -102.334 126 -131.001 186c-34 70.667 -51 145.334 -51 224.001s16.667 152.667 50 222c28 58.667 72 120.667 132 186l28 -26c-84 -111.333 -126 -238.666 -126 -381.999c0 -72.667 10.167 -140.5 30.5 -203.5
s52.166 -122.5 95.499 -178.5z" />
    <glyph glyph-name="parenright" unicode=")" horiz-adv-x="276" 
d="M38 620l28 26c58.667 -64 102.667 -126 132 -186c34.667 -70.667 52 -144.667 52 -222c0 -79.333 -17 -154 -51 -224c-28 -58 -72.333 -120 -133 -186l-28 28c85.333 110.667 128 238 128 382c0 71.333 -10.5 138.833 -31.5 202.5s-53.167 123.5 -96.5 179.5z" />
    <glyph glyph-name="asterisk" unicode="*" horiz-adv-x="436" 
d="M254 450c0 -28 2.99805 -48.9971 8.99805 -62.9971c13.333 -32 20.333 -49.167 21 -51.5s1.16699 -5 1.5 -8s0.5 -5.5 0.5 -7.5c0 -11.333 -2.66699 -21.166 -8 -29.499s-13.333 -12.5 -24 -12.5h-4c-13.333 0 -24 4 -32 12s-12 18 -12 30c0 8 2 16 6 24l24 60
c0.666992 5.33301 1.5 10.666 2.5 15.999s1.5 11.333 1.5 18v14c-8.66699 -5.33301 -14.667 -9.33301 -18 -12c-11.333 -8 -20 -15.333 -26 -22l-40 -52c-6 -4.66699 -12.167 -8.5 -18.5 -11.5s-12.833 -4.5 -19.5 -4.5c-11.333 0 -21.333 5.33301 -30 16
c-5.33301 10.667 -8 18 -8 22c0 11.333 4.5 21.333 13.5 30s21.167 14 36.5 16s32.666 4.66699 51.999 8s36 10.666 50 21.999c-20 12 -40.833 19.333 -62.5 22s-37.5 4.83398 -47.5 6.50098s-19.5 6.33398 -28.5 14.001s-13.5 16.834 -13.5 27.501
c2.66699 9.33301 4.66699 16.666 6 21.999c3.33301 6.66699 7.83301 11.334 13.5 14.001s11.834 4 18.501 4c16.667 0 30.667 -6.66699 42 -20c20.667 -28 35.5 -46.167 44.5 -54.5s20.833 -16.833 35.5 -25.5c0 25.333 -3 46.333 -9 63
c-7.33301 15.333 -13 28.166 -17 38.499s-6 20.5 -6 30.5c0 12 3.33301 21.667 10 29s16.667 11 30 11c12.667 0 22.167 -3.83301 28.5 -11.5s9.5 -17.834 9.5 -30.501c0 -6.66699 -0.833008 -13 -2.5 -19s-6.83398 -19 -15.501 -39
c-5.33301 -12.667 -8.66602 -21.334 -9.99902 -26.001l-4 -46c6 3.33301 12 7 18 11c9.33301 6 18 13 26 21l40 52c10.667 10.667 22.667 16 36 16c16 0 28 -8.66699 36 -26c1.33301 -2.66699 2 -7.33398 2 -14.001c0 -13.333 -6.33301 -24.333 -19 -33
c-6 -4 -16 -7.16699 -30 -9.5s-30.333 -4.5 -49 -6.5c-19.333 -4 -36.666 -11.667 -51.999 -23c20 -11.333 38.5 -18.5 55.5 -21.5s36.5 -5.83301 58.5 -8.5c11.333 -3.33301 20.5 -8.83301 27.5 -16.5s10.5 -16.834 10.5 -27.501c-2.66699 -8 -4.66699 -14.667 -6 -20
c-11.333 -13.333 -22.666 -20 -33.999 -20c-5.33301 0 -11.333 1.66699 -18 5s-12.5 7.5 -17.5 12.5s-16.5 19.833 -34.5 44.5c-10 14 -26.667 27.333 -50 40z" />
    <glyph glyph-name="plus" unicode="+" horiz-adv-x="692" 
d="M372 542h54v-244h238v-52h-238v-246h-54v246h-238v52h238v244z" />
    <glyph glyph-name="comma" unicode="," horiz-adv-x="208" 
d="M96 -136l-26.001 22.001c16.667 17.333 29.667 33 39 47c12.667 18 21.667 35.667 27 53c-18.667 2.66699 -32.667 9.33398 -42 20.001s-14 22.667 -14 36c0 14 4.83301 26.167 14.5 36.5s22.167 15.5 37.5 15.5h20c12.667 -4.66699 21.834 -13.334 27.501 -26.001
s8.5 -26.667 8.5 -42v-12c-2.66699 -26.667 -13.667 -54 -33 -82c-10 -14.667 -29.667 -37.334 -59 -68.001z" />
    <glyph glyph-name="hyphen" unicode="-" horiz-adv-x="306" 
d="M58 178v68h222v-68h-222z" />
    <glyph glyph-name="period" unicode="." horiz-adv-x="208" 
d="M182 16c-3.33301 -10 -9.66699 -17.832 -19 -23.499s-19 -8.5 -29 -8.5c-14 0 -26.5 4.83301 -37.5 14.5s-16.5 22.167 -16.5 37.5s5.16699 28.166 15.5 38.499s23.166 15.5 38.499 15.5h10c12.667 -2.66699 22.834 -9.16699 30.501 -19.5s11.5 -21.833 11.5 -34.5
c0 -9.33301 -1.33301 -16 -4 -20z" />
    <glyph glyph-name="slash" unicode="/" horiz-adv-x="356" 
d="M64 -84h-48l264 730h50z" />
    <glyph glyph-name="zero" unicode="0" 
d="M50 316c0 87.333 15.001 159.667 45.001 217c38 72.667 95 109 171 109l32 -2c69.333 -8 120.666 -48 153.999 -120c25.333 -54.667 38 -122.667 38 -204c0 -80.667 -12.667 -148.667 -38 -204c-33.333 -72.667 -84.666 -112.667 -153.999 -120
c-4.66699 -0.666992 -10.334 -1.16699 -17.001 -1.5s-11.667 -0.5 -15 -0.5c-75.333 0 -132 36.333 -170 109c-30.667 58.667 -46 131 -46 217zM290.001 584.001c-4 0.666992 -8.16602 1.16699 -12.499 1.5s-7.5 0.5 -9.5 0.5c-54 0 -91.667 -33.333 -113 -100
c-14 -43.333 -21 -100 -21 -170c0 -71.333 6.66699 -128 20 -170c21.333 -68 59.333 -102 114 -102c9.33301 0 16.666 0.666992 21.999 2c48 6.66699 81 42.667 99 108c11.333 40.667 17 94.667 17 162c0 68 -5.33301 121.333 -16 160c-18 66 -51.333 102 -100 108z" />
    <glyph glyph-name="one" unicode="1" horiz-adv-x="346" 
d="M102 0l-0.000976562 27.999c31.333 4 48 6.33301 50 7c17.333 6 26 18.333 26 37v482c-18 -5.33301 -37.833 -10.666 -59.5 -15.999s-42.5 -9.33301 -62.5 -12v32c34.667 9.33301 62.334 18.333 83.001 27c28 12 52.333 27 73 45h42v-558c0 -20 11 -32.667 33 -38
c8 -2 20.333 -4 37 -6v-28h-222z" />
    <glyph glyph-name="two" unicode="2" horiz-adv-x="494" 
d="M472 0h-431.999c0 76 29 141 87 195l163 116c58.667 43.333 88 89 88 137c0 40 -14 72.333 -42 97s-62.667 37 -104 37c-35.333 0 -65.333 -8.5 -90 -25.5s-41.334 -41.833 -50.001 -74.5h-36v102c30 19.333 60 33.833 90 43.5s61.333 14.5 94 14.5l46 -4
c44.667 -5.33301 83.834 -22.833 117.501 -52.5s52.5 -66.167 56.5 -109.5c1.33301 -5.33301 2 -13.333 2 -24c0 -40.667 -12.333 -79 -37 -115c-21.333 -30.667 -51.833 -58.834 -91.5 -84.501l-119.5 -75.5c-44 -32 -76 -67 -96 -105v-8h268
c19.333 0 34.166 3.33301 44.499 10s15.5 19.334 15.5 38.001h26v-112z" />
    <glyph glyph-name="three" unicode="3" horiz-adv-x="494" 
d="M334 378c44 -14.667 77.3301 -36.667 99.9971 -66s34 -62 34 -98c0 -58.667 -25.667 -109.334 -77 -152.001c-57.333 -48 -133 -72 -227 -72c-20 0 -40 1 -60 3s-41.333 5.66699 -64 11v104h34c3.33301 -20 13.333 -34.667 30 -44s36 -14 58 -14
c50 0 96.667 12.667 140 38c53.333 31.333 80 72.666 80 123.999c0 23.333 -6.33301 45.833 -19 67.5s-30.334 37.834 -53.001 48.501c-13.333 4.66699 -26.666 7.83398 -39.999 9.50098s-29.333 2.5 -48 2.5h-28v60c34 0 59.333 1.66699 76 5c29.333 6 52 18.333 68 37
c13.333 15.333 20 33.333 20 54c0 24 -7.33301 43.333 -22 58c-10 10 -23.667 17.833 -41 23.5s-35.666 8.5 -54.999 8.5c-31.333 0 -59.666 -6.66699 -84.999 -20s-40.333 -31.333 -45 -54h-30v90c28.667 10.667 59 20 91 28s61.667 12 89 12c32 0 61.333 -5.33301 88 -16
s48.334 -26.667 65.001 -48s25 -46.666 25 -75.999c0 -22 -4.66699 -41 -14 -57s-22.333 -29.667 -39 -41c-7.33301 -4.66699 -24.333 -13.334 -51 -26.001z" />
    <glyph glyph-name="four" unicode="4" 
d="M442 0h-144v28l20 4c4.66699 2 8.66699 5.33301 12 10c2.66699 8 4 24.667 4 50l-2 52h-296v66l310 420h62v-420h82v-66h-82l-2 -60c0 -22 1.66699 -35.833 5 -41.5s8 -9.5 14 -11.5c8 -1.33301 13.667 -2.33301 17 -3v-28zM334 208l4 316l-232 -314z" />
    <glyph glyph-name="five" unicode="5" horiz-adv-x="504" 
d="M50 -4v114.001h28c2.66699 -20 10.5 -34 23.5 -42s29.833 -12 50.5 -12c57.333 0 111 18.333 161 55c54 40 81 86.333 81 139c0 41.333 -13 75 -39 101s-57 39 -93 39c-26 0 -51.667 -7 -77 -21s-45.666 -34.333 -60.999 -61l-50 16l14 306h346l-32 -66h-254l-8 -156
c37.333 29.333 81.333 44 132 44c51.333 0 98.166 -19.5 140.499 -58.5s63.5 -85.5 63.5 -139.5s-17.5 -102.5 -52.5 -145.5s-79.5 -73.833 -133.5 -92.5c-22 -8.66699 -45.667 -14.834 -71 -18.501s-51 -5.5 -77 -5.5c-10 0 -27 0.666992 -51 2s-37.667 2 -41 2z" />
    <glyph glyph-name="six" unicode="6" 
d="M136 340c21.333 26.667 44.498 47 69.498 61s53.167 21 84.5 21c28.667 0 56 -5.66699 82 -17s48.667 -27.666 68 -48.999c16.667 -16.667 29.167 -37.834 37.5 -63.501s12.5 -51.834 12.5 -78.501c0 -52 -13.333 -98 -40 -138c-29.333 -44 -68 -71.333 -116 -82l-60 -4
c-73.333 0 -129.333 30.667 -168 92c-33.333 53.333 -50 121.333 -50 204c0 19.333 1.33301 39.833 4 61.5s6 42.5 10 62.5c12.667 59.333 44.167 112.5 94.5 159.5s104.833 70.5 163.5 70.5c36.667 0 78 -8 124 -24v-90h-24c-5.33301 20 -17.166 34.667 -35.499 44
s-39.166 14 -62.499 14c-55.333 0 -102.333 -27 -141 -81c-35.333 -49.333 -53 -103.666 -53 -162.999zM413.998 208c0 37.333 -13.001 70.999 -39.001 100.999s-57.667 45 -95 45s-69.666 -15 -96.999 -45s-41 -63.667 -41 -101c0 -38 13 -72.5 39 -103.5
s57.667 -46.5 95 -46.5c38 0 70.5 15.333 97.5 46s40.5 65.334 40.5 104.001z" />
    <glyph glyph-name="seven" unicode="7" horiz-adv-x="484" 
d="M276 0h-86.001c0 62.667 8 121.5 24 176.5s40.667 112.167 74 171.5l62 107c32 57.333 48 95 48 113h-252c-19.333 0 -34.166 -3.33301 -44.499 -10s-15.5 -19.334 -15.5 -38.001h-26v110h404c0 -16.667 -0.5 -30.667 -1.5 -42s-3.16699 -22.666 -6.5 -33.999
c-6 -28 -17.333 -58.833 -34 -92.5l-48 -97.5c-37.333 -76 -62 -135 -74 -177c-16 -54 -24 -116.333 -24 -187z" />
    <glyph glyph-name="eight" unicode="8" 
d="M164 348v5.99805c-28 14.667 -49 31.834 -63 51.501s-21 44.5 -21 74.5c0 38.667 21.5 75 64.5 109s84.833 51 125.5 51c49.333 0 92.333 -13.667 129 -41c40.667 -30 61 -68.333 61 -115c0 -30 -6.83301 -55.333 -20.5 -76s-34.167 -38.667 -61.5 -54v-6
c22.667 -10.667 39.667 -20.667 51 -30c15.333 -12 28.333 -28 39 -48c13.333 -26.667 20 -56.667 20 -90c0 -57.333 -23 -104 -69 -140c-42 -33.333 -91.667 -50 -149 -50s-106.333 15.333 -147 46c-47.333 36 -71 85.333 -71 148c0 36.667 9.33301 68.334 28 95.001
s46.667 49.667 84 69zM268 319.998c-39.333 0 -71.168 -11.5 -95.501 -34.5s-36.5 -55.5 -36.5 -97.5c0 -42.667 11.667 -76.667 35 -102s56.333 -38 99 -38c35.333 0 66.5 12.5 93.5 37.5s40.5 55.167 40.5 90.5c0 38 -11 70.333 -33 97
c-25.333 31.333 -59.666 47 -102.999 47zM157.998 489.998c0 -32 11.334 -58.666 34.001 -79.999s48.667 -32 78 -32c30.667 0 56.667 8.66699 78 26c24 19.333 36 45.333 36 78c0 31.333 -10.833 56.166 -32.5 74.499s-48.834 27.5 -81.501 27.5
c-32 0 -58.667 -7.83301 -80 -23.5s-32 -39.167 -32 -70.5z" />
    <glyph glyph-name="nine" unicode="9" horiz-adv-x="504" 
d="M126 430c0 -38.667 10.667 -72.665 32 -101.998c24 -33.333 54.667 -50 92 -50c39.333 0 73.5 14.167 102.5 42.5s43.5 62.166 43.5 101.499c0 38 -13.833 71.833 -41.5 101.5s-61.167 44.5 -100.5 44.5c-35.333 0 -65.5 -13.833 -90.5 -41.5
s-37.5 -59.834 -37.5 -96.501zM364 142.002c13.333 21.333 22.999 44.667 28.999 70s9 51.333 9 78c-20 -25.333 -42.333 -45 -67 -59s-51.667 -21 -81 -21h-6c-32.667 0 -63.334 7 -92.001 21s-52.667 34.333 -72 61c-25.333 38 -38 80 -38 126c0 44 10.667 84 32 120
c17.333 33.333 41.833 59 73.5 77s66.5 27 104.5 27c78.667 0 137.667 -32 177 -96c32.667 -52.667 49 -121.334 49 -206.001c0 -21.333 -0.666992 -38.166 -2 -50.499s-4.66602 -35.5 -9.99902 -69.5c-12.667 -58.667 -39 -109 -79 -151
c-43.333 -45.333 -93.666 -71 -150.999 -77h-32c-39.333 0 -80 7.33301 -122 22v90h24c6 -19.333 18 -33.5 36 -42.5s38.667 -13.5 62 -13.5c10.667 0 18.667 0.666992 24 2c26.667 2.66699 51.667 12.5 75 29.5s42.333 37.833 57 62.5z" />
    <glyph glyph-name="colon" unicode=":" horiz-adv-x="218" 
d="M190 320c-3.33301 -10 -9.66797 -17.834 -19.001 -23.501s-19 -8.5 -29 -8.5c-14.667 0 -27.667 4.83301 -39 14.5s-17 22.167 -17 37.5c0 14.667 5.33301 27.334 16 38.001s23.334 16 38.001 16h12c28 -7.33301 42 -25.333 42 -54zM151.998 97.999
c12.667 -2 23.166 -8.16992 31.499 -18.5029s12.5 -22.166 12.5 -35.499c0 -4 -1.33301 -10 -4 -18c-4.66699 -10.667 -11.5 -19 -20.5 -25s-18.833 -9 -29.5 -9c-14 0 -26.5 4.83301 -37.5 14.5s-16.5 22.834 -16.5 39.501c0 14.667 5.33301 27.334 16 38.001
s23.334 16 38.001 16z" />
    <glyph glyph-name="semicolon" unicode=";" horiz-adv-x="218" 
d="M102 -136l-25.999 22c16.667 17.333 29.667 33 39 47c12.667 18 21.667 35.667 27 53c-18.667 2.66699 -33 9.33398 -43 20.001s-15 22.667 -15 36c0 12.667 5.16699 24.5 15.5 35.5s23.166 16.5 38.499 16.5h18c13.333 -4.66699 23 -13.167 29 -25.5s9 -26.5 9 -42.5
v-12c-2.66699 -26.667 -13.667 -54 -33 -82c-10 -14.667 -29.667 -37.334 -59 -68.001zM190.001 318c-8 -22.667 -24.001 -34.001 -48.001 -34.001c-14.667 0 -27.667 5 -39 15s-17 23 -17 39c0 14.667 5.33301 27.334 16 38.001s23.334 16 38.001 16l12 -2
c12 -2 22 -8.16699 30 -18.5s12 -21.5 12 -33.5c0 -5.33301 -1.33301 -12 -4 -20z" />
    <glyph glyph-name="less" unicode="&#x3c;" horiz-adv-x="682" 
d="M660 508v-56l-444 -182l444 -178v-58l-522 214v46z" />
    <glyph glyph-name="equal" unicode="=" horiz-adv-x="692" 
d="M134 382h530v-52h-530v52zM134 212h530v-52h-530v52z" />
    <glyph glyph-name="greater" unicode="&#x3e;" horiz-adv-x="682" 
d="M138 508l522 -214v-46l-522 -214v58l442 178l-442 182v56z" />
    <glyph glyph-name="question" unicode="?" horiz-adv-x="436" 
d="M110 42c0 14.667 5.33203 27.332 15.999 37.999s23.334 16 38.001 16l10 -2c12.667 -2 23.167 -8.16699 31.5 -18.5s12.5 -21.5 12.5 -33.5c0 -5.33301 -1.33301 -12 -4 -20c-4.66699 -11.333 -11.5 -19.833 -20.5 -25.5s-18.833 -8.5 -29.5 -8.5
c-14 0 -26.5 4.83301 -37.5 14.5s-16.5 22.834 -16.5 39.501zM183.999 223.998v-58h-40v126l38 -2c35.333 0 63.666 5.66699 84.999 17c26.667 14 45.667 37.667 57 71c2.66699 6.66699 4.66699 14.334 6 23.001s2 17.667 2 27c0 44.667 -14 82 -42 112
c-31.333 33.333 -70.666 50 -117.999 50c-6.66699 0 -13.667 -0.5 -21 -1.5s-13 -1.83301 -17 -2.5c-32.667 -8.66699 -52.667 -29.334 -60 -62.001h-26v100c42 14.667 82.667 22 122 22c20 0 40 -2 60 -6c39.333 -8 74 -26.5 104 -55.5s51.333 -63.167 64 -102.5
c6.66699 -26.667 10 -50.667 10 -72c0 -54.667 -18 -100 -54 -136c-19.333 -19.333 -43 -33.333 -71 -42c-22 -6.66699 -49 -10 -81 -10z" />
    <glyph glyph-name="at" unicode="@" horiz-adv-x="872" 
d="M498 428c-34 -4.66699 -65.667 -34 -95 -88c-23.333 -42.667 -38.333 -85.334 -45 -128.001c-4 -16 -6 -32.667 -6 -50c0 -20.667 4 -38 12 -52c13.333 -21.333 32.666 -32 57.999 -32c10 0 20 2 30 6c34.667 14.667 64.334 47.5 89.001 98.5s37 100.833 37 149.5
c0 28.667 -5.66699 51.834 -17 69.501s-29 26.5 -53 26.5h-10zM548 150c-17.333 -28.667 -36.334 -50.666 -57.001 -65.999c-24.667 -18.667 -51 -28 -79 -28c-9.33301 0 -16.666 0.666992 -21.999 2c-32.667 4 -57.834 20.5 -75.501 49.5s-26.5 61.167 -26.5 96.5
c0 7.33301 0.166992 13 0.5 17s1.5 11.667 3.5 23c10 52.667 37.167 99.5 81.5 140.5s87.833 61.5 130.5 61.5c22.667 0 42.5 -6.83301 59.5 -20.5s29.833 -35.5 38.5 -65.5l22 80h64l-74 -270c-1.33301 -4.66699 -3 -12.5 -5 -23.5s-3 -18.5 -3 -22.5
c0 -15.333 3 -27.5 9 -36.5s15.667 -13.5 29 -13.5c9.33301 0 20.666 3.33301 33.999 10c40.667 15.333 74.334 42.666 101.001 81.999c23.333 35.333 39 76.666 47 123.999c1.33301 6.66699 2.33301 16 3 28s1 20.667 1 26c0 60 -16 112.833 -48 158.5
s-76.667 78.834 -134 99.501c-42 14.667 -84 22 -126 22c-50 0 -98.333 -9.16699 -145 -27.5s-87.667 -44.5 -123 -78.5c-68 -65.333 -106 -146 -114 -242l-3 -27.5c-0.666992 -6.33301 -1 -14.5 -1 -24.5c0 -49.333 8.66699 -93.333 26 -132
c26.667 -62 72.334 -110.333 137.001 -145c58.667 -31.333 124.334 -47 197.001 -47h15c18 0 33.667 1.33301 47 4c41.333 6 77.666 15.5 108.999 28.5s65.666 32.167 102.999 57.5l14 -16c-36.667 -26 -73.334 -46.667 -110.001 -62s-76 -26 -118 -32l-43 -3
c-9.33301 -0.666992 -18.333 -1 -27 -1c-55.333 0 -108.666 8.66699 -159.999 26s-96 44 -134 80c-35.333 33.333 -62.166 72 -80.499 116s-27.5 89.333 -27.5 136c0 52.667 10.167 103.5 30.5 152.5s49.5 92.167 87.5 129.5c40.667 40.667 88.667 72.167 144 94.5
s112 33.5 170 33.5c21.333 0 36.666 -0.5 45.999 -1.5s21.333 -3.16699 36 -6.5c76 -13.333 137.333 -46.333 184 -99s70 -117 70 -193c0 -50 -9 -96 -27 -138c-20 -46.667 -48.333 -84 -85 -112c-14.667 -11.333 -31.167 -20.833 -49.5 -28.5s-35.833 -11.5 -52.5 -11.5
c-13.333 0 -26.666 3.33301 -39.999 10c-16.667 6.66699 -28.5 17.167 -35.5 31.5s-11.833 32.5 -14.5 54.5z" />
    <glyph glyph-name="A" unicode="A" horiz-adv-x="614" 
d="M206 314h174l-90 222zM130 28l-0.000976562 -27.9971h-116v28c5.33301 1.33301 10.5 4.66602 15.5 9.99902s9.83301 14.666 14.5 27.999l230 568h58l236 -578c2.66699 -6 5.5 -12 8.5 -18s8.16699 -9.33301 15.5 -10v-28h-130v28
c6.66699 1.33301 12.334 3.16602 17.001 5.49902s7 5.83301 7 10.5l-2 10l-80 202h-222l-76 -196l-2 -10c0 -12 8.66699 -19.333 26 -22z" />
    <glyph glyph-name="B" unicode="B" horiz-adv-x="614" 
d="M300 0l-240.001 0.00195312v28c21.333 2 32 12.667 32 32v514c0 11.333 -2.16699 19.333 -6.5 24s-12.833 8 -25.5 10v26h270c74.667 0 128.334 -12 161.001 -36c26.667 -20 43 -49.333 49 -88l2 -28c0 -28.667 -8.66699 -53.667 -26 -75s-41.333 -38.333 -72 -51
c28.667 -7.33301 50.667 -15 66 -23c21.333 -11.333 38.666 -26.333 51.999 -45c17.333 -26.667 26 -59.334 26 -98.001c0 -23.333 -3.33301 -46 -10 -68c-18.667 -50.667 -57 -85.334 -115 -104.001c-37.333 -12 -91.666 -18 -162.999 -18zM333.999 326.002h-159.999v-266
h148c51.333 0 90.666 7.33301 117.999 22c36.667 19.333 57.334 52 62.001 98v12c0 43.333 -16.333 76.5 -49 99.5s-72.334 34.5 -119.001 34.5zM344 384.002c31.333 0 57.333 6.33398 78 19.001c25.333 15.333 38 37.666 38 66.999v10c0 32 -10.833 56 -32.5 72
s-50.167 24 -85.5 24h-168v-192h170z" />
    <glyph glyph-name="C" unicode="C" horiz-adv-x="634" 
d="M576 -6c-14.667 -1.33301 -35.8359 -3.00098 -63.5029 -5.00098s-49.167 -3 -64.5 -3c-29.333 0 -55.833 1.83301 -79.5 5.5s-47.167 10.5 -70.5 20.5c-71.333 26.667 -129.333 70.334 -174 131.001c-46.667 63.333 -70 132.333 -70 207c0 69.333 21 130.333 63 183
s97 87 165 103c12.667 2.66699 28.167 5 46.5 7s34.833 3 49.5 3c22.667 0 43.167 -1.5 61.5 -4.5s37.833 -8.16699 58.5 -15.5c36.667 -16 73.334 -40 110.001 -72l-82 -80l-20 20c5.33301 7.33301 8 15.333 8 24c0 18.667 -14 34.667 -42 48s-60.667 20 -98 20
c-61.333 0 -112.666 -16.333 -153.999 -49c-50.667 -40 -76 -99 -76 -177l-2 -4c0 -93.333 36 -170.333 108 -231c62 -52.667 128 -79 198 -79c28 0 51.333 5.5 70 16.5s29.334 26.833 32.001 47.5h26v-116z" />
    <glyph glyph-name="D" unicode="D" horiz-adv-x="662" 
d="M178 62l108 -0.000976562c48 0 84.333 2.66699 109 8c39.333 8.66699 71 25.334 95 50.001c20 20 34.667 43.167 44 69.5s14 55.166 14 86.499c0 16.667 -1.5 34.334 -4.5 53.001s-7.5 37.667 -13.5 57c-20.667 62.667 -52 108.667 -94 138c-50 34.667 -136 52 -258 52
v-514zM264 -0.000976562l-201.998 -0.000976562v28c12.667 2 21.167 5.5 25.5 10.5s6.5 13.5 6.5 25.5v508c0 12 -2.33301 20.5 -7 25.5s-13 8.5 -25 10.5v26h120c61.333 0 112.666 -2.16699 153.999 -6.5s80.666 -15.5 117.999 -33.5
c48.667 -23.333 88.667 -58.333 120 -105c29.333 -44 49.333 -94.333 60 -151c2 -16 3.16699 -26.667 3.5 -32s0.5 -14 0.5 -26c0 -46 -9 -89.167 -27 -129.5s-45 -73.166 -81 -98.499c-33.333 -22.667 -74.666 -37.667 -123.999 -45
c-30.667 -4.66699 -75.334 -7 -134.001 -7h-8z" />
    <glyph glyph-name="E" unicode="E" horiz-adv-x="574" 
d="M0 0l58 0.000976562v28c12.667 2 21.5 5.5 26.5 10.5s7.5 13.5 7.5 25.5v508c0 11.333 -2.66699 19.666 -8 24.999s-14 9 -26 11v26h470v-106h-24c-2 20 -8.66699 33 -20 39s-27.333 9 -48 9h-262v-188h226c13.333 0 23.833 2.33301 31.5 7s12.5 13 14.5 25h24v-122h-24
c-2 12.667 -6.66699 21.167 -14 25.5s-18 6.5 -32 6.5h-226v-268h288c21.333 0 37.333 4.16699 48 12.5s16 22.833 16 43.5h26v-118h-552z" />
    <glyph glyph-name="F" unicode="F" horiz-adv-x="584" 
d="M0 0h66.001v28c12.667 2 21.167 5.16699 25.5 9.5s6.5 13.166 6.5 26.499v508c0 12.667 -2.16699 21.334 -6.5 26.001s-12.833 8 -25.5 10v26h498v-114h-24c-2 21.333 -7.83301 36 -17.5 44s-25.834 12 -48.501 12h-294v-188h212c13.333 0 23.833 2.33301 31.5 7
s12.5 13 14.5 25h28v-122h-28c-2 12.667 -6.66699 21.167 -14 25.5s-18 6.5 -32 6.5h-212v-266c0 -12 2.33301 -20.5 7 -25.5s13 -8.5 25 -10.5v-28h-212z" />
    <glyph glyph-name="G" unicode="G" horiz-adv-x="644" 
d="M624 366l-0.00488281 -28c-12.667 -2 -21.5 -5.5 -26.5 -10.5s-7.5 -13.5 -7.5 -25.5v-240c1.33301 -11.333 3.33301 -20 6 -26s8.66699 -9.33301 18 -10v-26c-24.667 -2.66699 -50.834 -5.33398 -78.501 -8.00098s-52.167 -4 -73.5 -4c-34 0 -70 3.33301 -108 10
c-83.333 16.667 -153.333 54.334 -210 113.001c-60 62 -90 133.667 -90 215v20c0 70.667 20.5 132.334 61.5 185.001s96.5 87.667 166.5 105c12.667 2.66699 27.834 5 45.501 7s33.834 3 48.501 3c24 0 45.167 -1.33301 63.5 -4s38.333 -8.33398 60 -17.001
s42.834 -20.334 63.501 -35.001c16.667 -11.333 35.667 -27.333 57 -48l-82 -80l-22 20c6.66699 8.66699 10 16.667 10 24c0 16.667 -11.333 33.334 -34 50.001c-19.333 14 -38.666 23.167 -57.999 27.5s-38.666 6.5 -57.999 6.5c-47.333 0 -90.666 -11.667 -129.999 -35
s-67.333 -56.333 -84 -99c-5.33301 -14 -10 -30.333 -14 -49s-6 -35.667 -6 -51c0 -42.667 9.33301 -85 28 -127s44 -77 76 -105c58.667 -50.667 128 -76 208 -76c8 0 17.167 0.666992 27.5 2l30.5 4v250c0 20.667 -10.667 32 -32 34v28h144z" />
    <glyph glyph-name="H" unicode="H" horiz-adv-x="662" 
d="M174 64c0 -11.333 2.33301 -19.668 7 -25.001s13 -9 25 -11v-28h-146v28c12.667 2 21.167 5.5 25.5 10.5s6.5 13.5 6.5 25.5v508c0 11.333 -2.33301 19.666 -7 24.999s-13 9 -25 11v26h146v-26c-12.667 -2 -21.167 -5.5 -25.5 -10.5s-6.5 -13.5 -6.5 -25.5v-186h352v186
c0 12 -2.5 20.5 -7.5 25.5s-13.833 8.5 -26.5 10.5v26h148v-26c-14 -2 -23.167 -5.16699 -27.5 -9.5s-6.5 -13.166 -6.5 -26.499v-508c0 -11.333 2.66699 -19.666 8 -24.999s14 -9 26 -11v-28h-148v28c12.667 2 21.5 5.5 26.5 10.5s7.5 13.5 7.5 25.5v264h-352v-264z" />
    <glyph glyph-name="I" unicode="I" horiz-adv-x="238" 
d="M0 0l62 0.00195312v28c12.667 2 21.167 5.16699 25.5 9.5s6.5 13.166 6.5 26.499v508c0 12 -2.33301 20.5 -7 25.5s-13 8.5 -25 10.5v26h148v-26c-14 -2 -22.833 -5 -26.5 -9s-5.5 -13 -5.5 -27v-508c0 -12.667 2.16699 -21.334 6.5 -26.001s12.833 -8 25.5 -10v-28h-210
z" />
    <glyph glyph-name="J" unicode="J" horiz-adv-x="484" 
d="M14 124l84 70l20 -22c-10.667 -10.667 -16 -24 -16 -40c0 -14.667 6 -28.667 18 -42s26.667 -23.333 44 -30c6.66699 -2.66699 14.334 -4.66699 23.001 -6s17 -2 25 -2c20.667 0 41 4.16699 61 12.5s35.667 20.166 47 35.499c9.33301 12 15.666 26.5 18.999 43.5
s5 36.5 5 58.5v370c0 12.667 -2 21.334 -6 26.001s-12.667 8 -26 10v26h148v-26c-12.667 -2 -21.167 -5.5 -25.5 -10.5s-6.5 -13.5 -6.5 -25.5v-356c0 -72 -17.667 -128 -53 -168c-37.333 -42.667 -91 -64 -161 -64h-10c-46 0 -84.667 12.667 -116 38
c-26 21.333 -50.667 55.333 -74 102z" />
    <glyph glyph-name="K" unicode="K" horiz-adv-x="634" 
d="M0 0l60 0.00195312v28c12.667 2 21.167 5.16699 25.5 9.5s6.5 13.166 6.5 26.499v508c0 12 -2.33301 20.5 -7 25.5s-13 8.5 -25 10.5v26h146v-26c-12.667 -2 -21.167 -5.5 -25.5 -10.5s-6.5 -13.5 -6.5 -25.5v-208l256 222c2 2 3.33301 3.83301 4 5.5
s1.33398 3.16699 2.00098 4.5c0 3.33301 -3.33301 6.16602 -10 8.49902s-13.334 3.5 -20.001 3.5v26h176v-26c-7.33301 -0.666992 -15.333 -1.66699 -24 -3s-17.334 -6.33301 -26.001 -15l-176 -152l216 -380c4.66699 -8 9.83398 -14.5 15.501 -19.5s13.167 -8.5 22.5 -10.5
v-28h-152v28c6 0 10.333 0.333008 13 1c10 2.66699 15 7 15 13l-4 12l-188 330l-120 -104v-216c0 -22 10.667 -34 32 -36v-28h-206z" />
    <glyph glyph-name="L" unicode="L" horiz-adv-x="534" 
d="M0 0l58 0.000976562v28c12.667 2 21.5 5.5 26.5 10.5s7.5 13.5 7.5 25.5v508c0 11.333 -2.66699 19.666 -8 24.999s-14 9 -26 11v26h150v-26c-12.667 -2 -21.5 -5.5 -26.5 -10.5s-7.5 -13.5 -7.5 -25.5v-510h250c42.667 0 64 18.667 64 56h26v-118h-514z" />
    <glyph glyph-name="M" unicode="M" horiz-adv-x="742" 
d="M136 0h-120v28c11.333 2.66699 19 6.5 23 11.5s6.33301 11.167 7 18.5l94 520v6c0 14 -7.33301 22 -22 24v26h106l146 -360l138 360h110v-26c-16 -2 -24 -10.667 -24 -26l2 -14l88 -510c2 -10 5 -17 9 -21s11 -7 21 -9v-28h-136v28c17.333 2 26 9.33301 26 22v8l-80 462
l-142 -372h-40l-148 368l-84 -458v-8c0 -14.667 8.66699 -22 26 -22v-28z" />
    <glyph glyph-name="N" unicode="N" horiz-adv-x="644" 
d="M0 0l60 0.000976562v28c12.667 2 21.167 5.5 25.5 10.5s6.5 13.5 6.5 25.5v508c0 12 -2.33301 20.5 -7 25.5s-13 8.5 -25 10.5v26h116l350 -306v244c0 12.667 -2.16699 21.334 -6.5 26.001s-12.833 8 -25.5 10v26h126v-26c-14 -2 -22.833 -5 -26.5 -9s-5.5 -13 -5.5 -27
v-508c0 -12.667 2.16699 -21.334 6.5 -26.001s12.833 -8 25.5 -10v-28h-126v28c12.667 2 21.167 5.16699 25.5 9.5s6.5 13.166 6.5 26.499v154l-372 324v-478c0 -12 2.33301 -20.5 7 -25.5s13 -8.5 25 -10.5v-28h-186z" />
    <glyph glyph-name="O" unicode="O" horiz-adv-x="722" 
d="M52 316c0 104 33.333 186.667 100 248c60.667 56 134.667 84 222 84s161 -27.667 221 -83c67.333 -62 101 -145 101 -249c0 -97.333 -29.5 -177 -88.5 -239s-136.833 -93 -233.5 -93c-95.333 0 -172.833 31.167 -232.5 93.5s-89.5 141.833 -89.5 238.5zM428 584
c-10 0.666992 -19.5 1.5 -28.5 2.5s-18.833 1.5 -29.5 1.5c-70.667 0 -127 -26.333 -169 -79c-39.333 -49.333 -59 -113.666 -59 -192.999c0 -78 18.667 -141.333 56 -190c42 -54.667 100.667 -82 176 -82c74.667 0 133 27 175 81c38 49.333 57 113 57 191
c0 64.667 -13.667 120.667 -41 168c-32 55.333 -77.667 88.666 -137 99.999z" />
    <glyph glyph-name="P" unicode="P" horiz-adv-x="534" 
d="M174 260c66.667 26 106.002 42.002 118.002 48.002c46 22 81.333 46 106 72c20 22 30 49.333 30 82c0 12 -0.5 20.833 -1.5 26.5s-3.16699 11.5 -6.5 17.5c-6.66699 19.333 -18.334 34.666 -35.001 45.999s-36.334 18.666 -59.001 21.999c-10 0 -25.333 0.666992 -46 2
s-36 2 -46 2h-60v-318zM60.002 0.00195312v28c12.667 2 21.167 5.5 25.5 10.5s6.5 13.5 6.5 25.5v508c0 11.333 -2.33301 19.666 -7 24.999s-13 9 -25 11v26h232c32.667 0 58.167 -1.5 76.5 -4.5s34.833 -7.5 49.5 -13.5c55.333 -24.667 87.333 -66.667 96 -126v-24
c0 -69.333 -41.333 -129 -124 -179c-34 -20.667 -106 -51.667 -216 -93v-130c0 -11.333 2.33301 -19.666 7 -24.999s13 -9 25 -11v-28h-146z" />
    <glyph glyph-name="Q" unicode="Q" horiz-adv-x="762" 
d="M514 88c-20.667 19.333 -41.166 34.5 -61.499 45.5s-40.5 16.5 -60.5 16.5c-28.667 0 -58 -11.333 -88 -34l-32 34c47.333 41.333 91.333 62 132 62c24.667 0 49.667 -6.16699 75 -18.5s53 -30.833 83 -55.5c16.667 26 28.5 53.333 35.5 82s10.5 60.667 10.5 96
c0 47.333 -7.33301 90 -22 128c-16.667 43.333 -42 77.333 -76 102c-38 28 -83.333 42 -136 42c-42.667 0 -80.667 -9.33301 -114 -28c-38.667 -22 -68.334 -55.5 -89.001 -100.5s-31 -93.5 -31 -145.5c0 -43.333 6.83301 -83.5 20.5 -120.5s34.167 -68.167 61.5 -93.5
c18 -18 40.167 -31.833 66.5 -41.5s53.5 -14.5 81.5 -14.5c54 0 102 14.667 144 44zM714.001 74l25.998 -0.000976562v-90c-7.33301 -2.66699 -15.666 -4.66699 -24.999 -6s-17 -2 -23 -2c-26 0 -52.667 9.33301 -80 28c-10 6.66699 -26 18.667 -48 36
c-21.333 -13.333 -43.666 -24.666 -66.999 -33.999s-44.166 -15 -62.499 -17s-30.833 -3.33301 -37.5 -4s-15.667 -1 -27 -1c-38.667 0 -78 7.33301 -118 22c-62.667 22 -112 62.667 -148 122c-33.333 55.333 -50 118 -50 188c0 40 6.16699 79 18.5 117
s30.166 72.333 53.499 103c29.333 36 66 63.333 110 82s90 28 138 28c16 0 27.333 -0.666992 34 -2c52 0 100.167 -15 144.5 -45s79.333 -70.667 105 -122s38.5 -104.333 38.5 -159c0 -85.333 -27.333 -161.333 -82 -228l30 -25c13.333 -10.667 25.333 -17 36 -19h8
c7.33301 0 13.5 2.5 18.5 7.5s7.5 11.833 7.5 20.5z" />
    <glyph glyph-name="R" unicode="R" horiz-adv-x="594" 
d="M0 0l60 -0.00195312v28c12.667 2 21.167 5.5 25.5 10.5s6.5 13.5 6.5 25.5v508c0 11.333 -2.33301 19.666 -7 24.999s-13 9 -25 11v26h278c33.333 0 62.5 -3.16699 87.5 -9.5s47.167 -19.166 66.5 -38.499c29.333 -31.333 44 -70.666 44 -117.999
c0 -55.333 -18.667 -98 -56 -128c-31.333 -25.333 -76 -41.333 -134 -48l176 -240c6 -6.66699 12.167 -11.667 18.5 -15s15.5 -6.33301 27.5 -9v-28h-106l-208 288h-80v-224c0 -11.333 2.33301 -19.666 7 -24.999s13 -9 25 -11v-28h-206zM288 343.998
c47.333 0 85.667 8.33301 115 25c35.333 20 53 50.333 53 91s-15.333 71 -46 91c-25.333 16.667 -59.333 25 -102 25h-134v-232h114z" />
    <glyph glyph-name="S" unicode="S" horiz-adv-x="564" 
d="M38 144l93.999 60.001l18 -26c-16 -14 -24 -28.667 -24 -44c0 -10.667 4.66699 -21.667 14 -33c4.66699 -6 11.334 -12.333 20.001 -19c16 -12.667 35.167 -22.5 57.5 -29.5s44.5 -10.5 66.5 -10.5c29.333 0 56 4 80 12c29.333 8.66699 52.333 22.167 69 40.5
s25 40.833 25 67.5c0 10.667 -0.666992 18 -2 22c-3.33301 23.333 -16.333 42.666 -39 57.999c-15.333 10.667 -37.666 20.667 -66.999 30l-132 44c-34 10.667 -61.667 23.334 -83 38.001c-28 19.333 -47.667 42.666 -59 69.999c-6.66699 18 -10 35.333 -10 52
c0 42.667 14.667 78.667 44 108c23.333 21.333 51 37 83 47s66.333 15 103 15c41.333 0 79.666 -8 114.999 -24c30 -13.333 63 -35.333 99 -66l-70 -84l-24 18l5 15c2 6 3 11 3 15c0 12 -4.83301 22.833 -14.5 32.5s-22.834 18.167 -39.501 25.5
c-12.667 4 -26 7.33301 -40 10s-27.333 4 -40 4c-29.333 0 -58 -6 -86 -18c-17.333 -7.33301 -32 -18.666 -44 -33.999s-18 -32 -18 -50c0 -11.333 2.66699 -21.333 8 -30c8 -16.667 22.333 -30.334 43 -41.001c7.33301 -4 26.333 -11 57 -21l108 -36
c58 -18.667 100 -40 126 -64c22 -20 37.333 -44.667 46 -74c4 -16 6 -32.667 6 -50c0 -29.333 -7 -57.333 -21 -84s-33.667 -48 -59 -64c-21.333 -14 -46.666 -24.5 -75.999 -31.5s-59.333 -10.5 -90 -10.5c-22 0 -38 0.5 -48 1.5s-21.333 3.16699 -34 6.5
c-42 10 -76.667 28.333 -104 55c-21.333 20.667 -43.333 53 -66 97z" />
    <glyph glyph-name="T" unicode="T" horiz-adv-x="584" 
d="M216 0l-0.00195312 27.998c14.667 0 24.334 2.33301 29.001 7s7 14.334 7 29.001v512h-138c-19.333 0 -34.166 -3.33301 -44.499 -10s-15.5 -19.334 -15.5 -38.001h-26v106h534v-106h-26c-2 18.667 -7.66699 31.334 -17 38.001s-23.666 10 -42.999 10h-140v-512
c0 -13.333 2.66699 -22.666 8 -27.999s14.666 -8 27.999 -8v-28h-156z" />
    <glyph glyph-name="U" unicode="U" horiz-adv-x="604" 
d="M340 0c-38 0 -71.667 2.66895 -101 8.00195s-57 16 -83 32c-57.333 38.667 -91.333 90 -102 154c-4 20 -6 40.667 -6 62c0 41.333 6.33301 84.333 19 129c10 36 25.667 76.333 47 121c1.33301 3.33301 9 17.833 23 43.5s21 39.167 21 40.5
c-0.666992 5.33301 -2.66699 9.16602 -6 11.499s-12 4.5 -26 6.5v26h154v-26c-35.333 -10.667 -67 -48 -95 -112c-21.333 -48.667 -35.666 -97.334 -42.999 -146.001c-1.33301 -8.66699 -3 -21.167 -5 -37.5s-3 -29.166 -3 -38.499c0 -28.667 3.16699 -54.834 9.5 -78.501
s17.666 -47 33.999 -70s39.833 -40.167 70.5 -51.5c25.333 -9.33301 55.333 -14 90 -14h130v512c0 12 -2.33301 20.5 -7 25.5s-13 8.5 -25 10.5v26h146v-26c-12.667 -2 -21.167 -5.5 -25.5 -10.5s-6.5 -13.5 -6.5 -25.5v-508c0 -12 2.33301 -20.5 7 -25.5s13 -8.5 25 -10.5
v-28h-242z" />
    <glyph glyph-name="V" unicode="V" horiz-adv-x="574" 
d="M304 0l-49.999 -0.000976562l-208 578c-2.66699 10.667 -5.33398 17.667 -8.00098 21c-4.66699 6 -11.334 9 -20.001 9v26h136v-26c-7.33301 -1.33301 -13.166 -3.33301 -17.499 -6s-6.5 -6.66699 -6.5 -12l4 -10l158 -444l160 440
c0.666992 0.666992 1.33398 3.33398 2.00098 8.00098c0 6.66699 -2.33301 12 -7 16s-11 6.66699 -19 8v26h122v-26c-10.667 -2 -18.334 -5.83301 -23.001 -11.5s-9 -14.5 -13 -26.5z" />
    <glyph glyph-name="W" unicode="W" horiz-adv-x="872" 
d="M254 0l-207.996 577.999c-2.66699 10.667 -5.33398 17.667 -8.00098 21c-4.66699 6 -11.334 9 -20.001 9v26h134v-26c-7.33301 -1.33301 -13.166 -3.33301 -17.499 -6s-6.5 -6.66699 -6.5 -12l4 -10l162 -452l110 304l-54 146
c-2.66699 10.667 -5.33398 17.667 -8.00098 21c-4.66699 6 -11.334 9 -20.001 9v26h132v-26c-8 -1.33301 -14.333 -3.16602 -19 -5.49902s-7 -6.5 -7 -12.5l4 -10l158 -444l160 440v10c0 12.667 -8 20 -24 22v26h122v-26c-10.667 -2 -18.334 -5.83301 -23.001 -11.5
s-9 -14.5 -13 -26.5l-208 -570h-46l-126 350l-128 -350h-50z" />
    <glyph glyph-name="X" unicode="X" horiz-adv-x="614" 
d="M172 0l-156.001 -0.00390625v28c10.667 0.666992 20.667 4.33398 30 11.001s17.333 15 24 25l188 272l-172 248c-4.66699 8.66699 -10 14.5 -16 17.5s-14.667 5.16699 -26 6.5v26h174v-26c-8.66699 -1.33301 -16.167 -3.66602 -22.5 -6.99902s-9.5 -7.66602 -9.5 -12.999
l6 -12l122 -178l122 176l4 14c0 13.333 -9.33301 20 -28 20v26h150v-26c-20 -3.33301 -36.667 -14.666 -50 -33.999l-160 -230l192 -280c9.33301 -11.333 14.333 -17.666 15 -18.999c10.667 -11.333 22.334 -17 35.001 -17v-28h-174v28c8.66699 2 15 3.66699 19 5
c8.66699 3.33301 13 7.66602 13 12.999c0 4 -1.33301 7.33301 -4 10l-154 224l-146 -218c-4 -6 -6 -11.333 -6 -16c0 -12 10 -18 30 -18v-28z" />
    <glyph glyph-name="Y" unicode="Y" horiz-adv-x="564" 
d="M204 0v27.9961c12.667 2 21.5 5.5 26.5 10.5s7.5 13.5 7.5 25.5v174l-184 334c-7.33301 12 -12.333 19.333 -15 22c-6.66699 7.33301 -15 12 -25 14v26h148v-26c-13.333 0 -20 -5.33301 -20 -16l4 -14l146 -276l146 280c0.666992 0.666992 1.16699 1.83398 1.5 3.50098
s0.5 3.83398 0.5 6.50098c0 4.66699 -2.5 8.5 -7.5 11.5s-10.5 4.5 -16.5 4.5v26h124v-26c-9.33301 -1.33301 -16.333 -4.16602 -21 -8.49902s-9.66699 -11.5 -15 -21.5l-180 -340v-174c0 -11.333 2.33301 -19.666 7 -24.999s13 -9 25 -11v-28h-152z" />
    <glyph glyph-name="Z" unicode="Z" horiz-adv-x="524" 
d="M498 0l-460.001 -0.000976562v52l344 526h-220c-20 0 -34.167 -2.66699 -42.5 -8s-13.5 -17.333 -15.5 -36h-24v100h404v-46l-346 -528h274c18.667 0 32.834 3.33301 42.501 10s15.5 19.334 17.5 38.001h26v-108z" />
    <glyph glyph-name="bracketleft" unicode="[" horiz-adv-x="266" 
d="M246 586h-23.999c-12.667 0 -21.834 -1.83301 -27.501 -5.5s-8.5 -12.5 -8.5 -26.5v-628c0 -14 3 -23.167 9 -27.5s15 -6.5 27 -6.5h24v-48h-130v790h130v-48z" />
    <glyph glyph-name="backslash" unicode="\" horiz-adv-x="356" 
d="M64 646l266 -730h-50l-264 730h48z" />
    <glyph glyph-name="bracketright" unicode="]" horiz-adv-x="218" 
d="M68 586v48h128v-790h-128v48h24c12 0 20.333 1.66699 25 5c7.33301 5.33301 11 15 11 29v628z" />
    <glyph glyph-name="asciicircum" unicode="^" horiz-adv-x="396" 
d="M118 486l104 156h52l102 -156h-26l-102 94l-104 -94h-26z" />
    <glyph glyph-name="underscore" unicode="_" horiz-adv-x="38" 
d="M20 -162h454v-52h-454v52z" />
    <glyph glyph-name="grave" unicode="`" horiz-adv-x="346" 
d="M326 486l-30 -0.000976562l-146 92c-18.667 12.667 -28 25.334 -28 38.001c0 18.667 9.33301 28 28 28c16 0 32 -8 48 -24z" />
    <glyph glyph-name="a" unicode="a" horiz-adv-x="474" 
d="M342 0l-0.00292969 48c-26 -19.333 -47.667 -32.666 -65 -39.999c-24 -10.667 -49 -16 -75 -16c-42.667 0 -78.334 11 -107.001 33c-31.333 24 -47 57 -47 99c0 20.667 5.16699 41.667 15.5 63s24.5 39 42.5 53c28.667 22 66 38.667 112 50c26 6 67.333 12 124 18
c0 27.333 -10.167 47.166 -30.5 59.499s-45.5 18.5 -75.5 18.5c-27.333 0 -51.666 -5 -72.999 -15s-37.666 -26.333 -48.999 -49h-22v78c48.667 25.333 99.334 38 152.001 38c50.667 0 92.334 -14.5 125.001 -43.5s49 -66.5 49 -112.5v-224c0 -12 2.33301 -20.333 7 -25
s13 -7.66699 25 -9v-24h-108zM341.997 124l-0.00195312 132.001c-40.667 -6 -69.667 -11 -87 -15c-32.667 -8 -59.667 -19 -81 -33c-13.333 -8.66699 -24.333 -20.167 -33 -34.5s-13 -29.5 -13 -45.5c0 -26 11 -45.667 33 -59c16.667 -10 34.334 -15 53.001 -15
c27.333 0 52.333 7 75 21c18.667 11.333 36.334 27.666 53.001 48.999z" />
    <glyph glyph-name="b" unicode="b" 
d="M236 0l-188.002 -0.00195312v24c21.333 0 32 12 32 36v514c0 14.667 -2 24.167 -6 28.5s-14 7.5 -30 9.5v22h112v-238c25.333 13.333 49.333 23.333 72 30s46.667 10 72 10c38.667 0 73.834 -11 105.501 -33s53.834 -51 66.501 -87c4 -12.667 7.33301 -25.667 10 -39
s4 -26.333 4 -39c0 -45.333 -11.167 -86.166 -33.5 -122.499s-53 -64.666 -92 -84.999s-80.5 -30.5 -124.5 -30.5zM155.998 329.998l-0.000976562 -275.997l44 -2c24 0 45.5 2 64.5 6s37.5 11.333 55.5 22c26.667 15.333 47.334 37.166 62.001 65.499s22 57.166 22 86.499
c0 43.333 -12.833 78.166 -38.5 104.499s-55.5 39.5 -89.5 39.5c-20.667 0 -40.667 -4 -60 -12s-39.333 -19.333 -60 -34z" />
    <glyph glyph-name="c" unicode="c" horiz-adv-x="474" 
d="M416 -2c-12 -2.66699 -26.166 -4.99902 -42.499 -6.99902s-30.833 -3 -43.5 -3c-20.667 0 -40.834 1.83301 -60.501 5.5s-38.167 9.16699 -55.5 16.5c-46 17.333 -84.167 46 -114.5 86s-45.5 84 -45.5 132c0 49.333 23.333 96.333 70 141s94 67 142 67
c68.667 0 131.334 -24 188.001 -72l-66 -74l-20 16c6.66699 11.333 10 20.666 10 27.999c0 9.33301 -4 17.166 -12 23.499s-20.667 12.5 -38 18.5c-16 4 -32 6 -48 6c-34.667 0 -67.667 -15.667 -99 -47s-47 -67.666 -47 -108.999c0 -52 22 -96.667 66 -134
c39.333 -33.333 80.666 -50 123.999 -50c38.667 0 62 14 70 42h22v-86z" />
    <glyph glyph-name="d" unicode="d" horiz-adv-x="524" 
d="M388 0v49.999c-22.667 -20 -45.334 -34.667 -68.001 -44s-48.667 -14 -78 -14c-47.333 0 -89.666 17.667 -126.999 53c-40.667 38.667 -61 87 -61 145c0 38.667 8.5 75.667 25.5 111s41.167 64.333 72.5 87c29.333 18.667 61.833 31.334 97.5 38.001s75.167 10 118.5 10
h16v138c0 14 -2.33301 23.333 -7 28s-14.334 8 -29.001 10v22h112v-576c0 -13.333 2.33301 -22.333 7 -27s14.334 -7 29.001 -7v-24h-108zM260 51.999c24.667 0 47.001 5.33203 67.001 15.999s39 26.667 57 48v264c-40 0 -71.667 -1.5 -95 -4.5s-46.333 -10.833 -69 -23.5
c-27.333 -15.333 -48.5 -37.333 -63.5 -66s-22.5 -58.667 -22.5 -90c0 -41.333 12.667 -75.666 38 -102.999s54.666 -41 87.999 -41z" />
    <glyph glyph-name="e" unicode="e" horiz-adv-x="464" 
d="M134 270h226.001c0 34.667 -9.33301 62.334 -28 83.001s-45.334 31 -80.001 31c-30.667 0 -58 -11.333 -82 -34s-36 -49.334 -36 -80.001zM422.001 20c-22 -10 -46 -18.168 -72 -24.501s-50.667 -9.5 -74 -9.5c-58.667 0 -111.667 26.667 -159 80
c-44.667 50 -67 100.667 -67 152c0 60.667 20.833 112.5 62.5 155.5s87.5 64.5 137.5 64.5c66.667 0 117 -24.667 151 -74c27.333 -40 41 -88 41 -144h-314c0 -57.333 18.667 -102.666 56 -135.999c31.333 -28 68 -42 110 -42c24.667 0 47 5.83301 67 17.5
s33 27.167 39 46.5h22v-86z" />
    <glyph glyph-name="f" unicode="f" horiz-adv-x="316" 
d="M58 0v24.001c14 2 23.167 5.16699 27.5 9.5s6.5 13.166 6.5 26.499v310h-46v56h46c0 66 6.33301 115 19 147c19.333 48.667 54.333 73 105 73c13.333 0 28.5 -2 45.5 -6l34.5 -8v-82h-22c-9.33301 30.667 -28 46 -56 46c-21.333 0 -35 -12 -41 -36s-9 -68.667 -9 -134h88
v-56h-88v-310c0 -24 10.667 -36 32 -36v-24h-142z" />
    <glyph glyph-name="g" unicode="g" horiz-adv-x="524" 
d="M42 -110l78.0039 67.9951l16 -14c-0.666992 -1.33301 -2.83398 -5.33301 -6.50098 -12s-5.5 -12 -5.5 -16c0 -10 4.66699 -18.667 14 -26c12.667 -10 28.834 -17.833 48.501 -23.5s39.5 -8.5 59.5 -8.5c37.333 0 72.666 12 105.999 36s50 50 50 78c0 24 -6 50 -18 78
c-20.667 -20.667 -42.834 -35.167 -66.501 -43.5s-51.5 -12.5 -83.5 -12.5c-44.667 0 -83.667 13.667 -117 41c-42 34.667 -63 84.334 -63 149.001c0 70.667 29.333 129.667 88 177c52 42 108 63 168 63h186v-24c-14.667 0 -24.334 -2.66699 -29.001 -8s-7 -16 -7 -32v-282
c0 -11.333 2.66699 -28.666 8 -51.999s8 -40.666 8 -51.999c0 -31.333 -7.33301 -59.166 -22 -83.499s-36 -43.833 -64 -58.5c-20 -10.667 -41.833 -18.667 -65.5 -24s-47.834 -8 -72.501 -8c-10 0 -18.333 0.333008 -25 1s-22.5 3.16699 -47.5 7.5s-48.833 13.333 -71.5 27
s-44.667 31.834 -66 54.501zM384.004 113.995v256h-44c-28 0 -52.5 -2.33301 -73.5 -7s-41.167 -13.667 -60.5 -27c-21.333 -16.667 -38.333 -38.167 -51 -64.5s-19 -53.5 -19 -81.5c0 -44 12.667 -79 38 -105c22.667 -23.333 50 -35 82 -35c22.667 0 45.167 6 67.5 18
s42.5 27.333 60.5 46z" />
    <glyph glyph-name="h" unicode="h" horiz-adv-x="524" 
d="M54 0v24c11.333 1.33301 19.5 4.5 24.5 9.5s7.5 13.833 7.5 26.5v514c0 14 -2.33301 23.333 -7 28s-14.334 8 -29.001 10v22h112v-256c21.333 18 44.833 32.5 70.5 43.5s50.834 16.5 75.501 16.5c28.667 0 55.334 -6.66699 80.001 -20
c27.333 -13.333 47 -33.666 59 -60.999c10 -22.667 15 -51 15 -85v-212c0 -24 11.333 -36 34 -36v-24h-142v24c22.667 0 34 12 34 36v190c0 34.667 -3 59.667 -9 75c-9.33301 24.667 -28.333 41 -57 49l-34 4c-22 0 -44.333 -6.33301 -67 -19
c-18.667 -10 -38.334 -25 -59.001 -45v-254c0 -12.667 2.16699 -21.334 6.5 -26.001s12.833 -8 25.5 -10v-24h-140z" />
    <glyph glyph-name="i" unicode="i" horiz-adv-x="218" 
d="M126 604c12.667 -2.66699 23.166 -9.16797 31.499 -19.501s12.5 -21.833 12.5 -34.5l-4 -20c-4.66699 -10 -11.5 -17.833 -20.5 -23.5s-18.833 -8.5 -29.5 -8.5c-14 0 -26.5 4.83301 -37.5 14.5s-16.5 22.834 -16.5 39.501c0 14.667 5.33301 27 16 37
s23.334 15 38.001 15h10zM195.999 23.999l0.000976562 -24.001h-152v24c14 0 23.5 2.5 28.5 7.5s7.5 14.5 7.5 28.5v306c0 12 -2.5 20.5 -7.5 25.5s-14.5 8.5 -28.5 10.5v24h116v-366c0 -13.333 2.66699 -22.666 8 -27.999s14.666 -8 27.999 -8z" />
    <glyph glyph-name="j" unicode="j" horiz-adv-x="238" 
d="M12 -186v80.001h24c4 -24 18 -36 42 -36h4c18.667 0 31.667 8.66699 39 26c4.66699 11.333 7 28.666 7 51.999v428c0 14 -2.33301 23.333 -7 28s-14.334 8 -29.001 10v24h114v-460c0 -34.667 -2.33301 -61 -7 -79c-7.33301 -28 -21.666 -49 -42.999 -63
c-11.333 -8 -24 -13.667 -38 -17s-28.667 -5 -44 -5c-23.333 0 -44 4 -62 12zM110 554.001c0 14.667 5 27.333 15 38s22.333 16 37 16l12 -2c12.667 -2 22.834 -8.16699 30.501 -18.5s11.5 -21.5 11.5 -33.5c0 -9.33301 -1.33301 -16 -4 -20c-8 -22.667 -24 -34 -48 -34
c-14.667 0 -27.334 5 -38.001 15s-16 23 -16 39z" />
    <glyph glyph-name="k" unicode="k" horiz-adv-x="504" 
d="M52 0l-0.00195312 24.002c11.333 1.33301 19.5 4.5 24.5 9.5s7.5 13.833 7.5 26.5v514c0 14 -2 23.333 -6 28s-13.333 8 -28 10v22h110v-392l164 136c2 1.33301 3.33301 2.66602 4 3.99902l2 4c0 3.33301 -3.5 6.83301 -10.5 10.5s-12.833 5.5 -17.5 5.5v24h156v-24
c-7.33301 0 -14.166 -2 -20.499 -6l-15.5 -10l-140 -108l158 -226c4.66699 -7.33301 10.334 -13.333 17.001 -18s14.334 -8 23.001 -10v-24h-156v24c7.33301 0 14.166 1.33301 20.499 4s9.5 6.66699 9.5 12l-4 8l-122 186l-68 -52v-122c0 -12.667 2 -21.334 6 -26.001
s12 -8 24 -10v-24h-138z" />
    <glyph glyph-name="l" unicode="l" horiz-adv-x="218" 
d="M0 0l45.999 0.000976562v24c14 2 23.167 5.16699 27.5 9.5s6.5 13.166 6.5 26.499v516c0 13.333 -2.16699 22.166 -6.5 26.499s-13.5 7.5 -27.5 9.5v22h114v-574c0 -13.333 2.33301 -22.166 7 -26.499s14.334 -7.5 29.001 -9.5v-24h-196z" />
    <glyph glyph-name="m" unicode="m" horiz-adv-x="802" 
d="M54 0l0.00292969 24c11.333 1.33301 19.5 4.5 24.5 9.5s7.5 13.833 7.5 26.5v304c0 14 -2.33301 23.333 -7 28s-14.334 8 -29.001 10v24h110l2 -48c22 18.667 44.167 33 66.5 43s46.166 15 71.499 15c60.667 0 106.667 -24.667 138 -74
c23.333 23.333 48.166 41.5 74.499 54.5s53.5 19.5 81.5 19.5c6.66699 0 14.334 -0.166992 23.001 -0.5s19.667 -2.83301 33 -7.5c29.333 -6.66699 53.333 -22.667 72 -48s28 -53.333 28 -84v-236c0 -15.333 3 -25 9 -29s13.667 -6.33301 23 -7v-24h-140v24
c14 2 22.833 5 26.5 9s5.5 13 5.5 27v216c0 21.333 -1.66699 38 -5 50s-12.333 23.333 -27 34c-10.667 6 -20.834 10.5 -30.501 13.5s-20.167 4.5 -31.5 4.5c-12 0 -25.167 -2.66699 -39.5 -8s-26.666 -11.5 -36.999 -18.5s-20.833 -16.667 -31.5 -29s-16 -22.5 -16 -30.5
v-232c0 -22 10 -34 30 -36v-24h-138v24c20 0 30 12 30 36v216c0 30 -8.83301 54.5 -26.5 73.5s-40.834 28.5 -69.501 28.5c-16 0 -33.5 -4.16699 -52.5 -12.5s-41.5 -24.833 -67.5 -49.5v-256c0 -22 10 -34 30 -36v-24h-138z" />
    <glyph glyph-name="n" unicode="n" horiz-adv-x="524" 
d="M54 0l0.000976562 24c11.333 1.33301 19.5 4.5 24.5 9.5s7.5 13.833 7.5 26.5v304c0 14 -2.33301 23.333 -7 28s-14.334 8 -29.001 10v24h112v-48c20.667 18 44.167 32.5 70.5 43.5s51.5 16.5 75.5 16.5c41.333 0 78 -19 110 -57c29.333 -35.333 44 -71.666 44 -108.999
v-212c0 -14 2.5 -23.5 7.5 -28.5s13.833 -7.5 26.5 -7.5v-24h-140v24c11.333 2 19.5 5.5 24.5 10.5s7.5 13.5 7.5 25.5v184c0 38 -6.66699 68.333 -20 91c-16.667 28.667 -42.667 43 -78 43c-22.667 0 -45.667 -6.33301 -69 -19c-18 -10 -37.667 -25 -59 -45v-254
c0 -12.667 2.16699 -21.334 6.5 -26.001s12.833 -8 25.5 -10v-24h-140z" />
    <glyph glyph-name="o" unicode="o" 
d="M494 212c0 -62 -21.666 -116.501 -64.999 -163.501s-96.333 -70.5 -159 -70.5c-60.667 0 -112.834 23.833 -156.501 71.5s-65.5 101.834 -65.5 162.501c0 62 21.167 115.833 63.5 161.5s94.5 68.5 156.5 68.5s115.167 -22.5 159.5 -67.5s66.5 -99.167 66.5 -162.5z
M270.001 393.999c-44.667 0 -79.167 -17.501 -103.5 -52.501s-36.5 -78.167 -36.5 -129.5s10.333 -92.666 31 -123.999c24.667 -37.333 61 -56 109 -56c47.333 0 84 18.667 110 56c22.667 32.667 34 74 34 124c0 42 -13 81.667 -39 119c-29.333 42 -64.333 63 -105 63z" />
    <glyph glyph-name="p" unicode="p" horiz-adv-x="504" 
d="M46 -200l-0.000976562 24.002c14 2 23.167 5.16699 27.5 9.5s6.5 13.166 6.5 26.499v502c0 15.333 -2.16699 25.333 -6.5 30s-14.166 8 -29.499 10v22h110v-44c24 18.667 47.167 32.667 69.5 42s46.5 14 72.5 14c48.667 0 92.167 -20.167 130.5 -60.5
s57.5 -85.5 57.5 -135.5c0 -43.333 -10 -83 -30 -119s-48.667 -65 -86 -87c-23.333 -13.333 -49 -22.333 -77 -27s-59.667 -7 -95 -7h-42v-140c0 -12.667 2.33301 -21.334 7 -26.001s13.667 -8 27 -10v-24h-142zM153.999 316.002l-0.000976562 -262l46 -2
c22 0 42.833 2.16699 62.5 6.5s38.834 11.5 57.501 21.5c26.667 16 47.334 37.667 62.001 65s22 57 22 89c0 34.667 -9.66699 65.667 -29 93c-24 34 -56.333 51 -97 51c-20 0 -41.667 -6.33301 -65 -19c-18.667 -10 -38.334 -24.333 -59.001 -43z" />
    <glyph glyph-name="q" unicode="q" 
d="M344 -200v23.9971c13.333 2 22.666 5.33301 27.999 10s8 13.334 8 26.001v176c-21.333 -14.667 -44 -26.334 -68 -35.001s-47.333 -13 -70 -13c-40.667 0 -78.667 13 -114 39s-58.666 59 -69.999 99c-2 10 -3.33301 17.333 -4 22c-2.66699 14.667 -4 27.334 -4 38.001
c0 36.667 7.16699 71.167 21.5 103.5s35 59 62 80s57.5 35.667 91.5 44s71.667 12.5 113 12.5h150v-24c-12.667 -2 -21.167 -5.16699 -25.5 -9.5s-6.5 -13.166 -6.5 -26.499v-506c0 -13.333 2.16699 -22.166 6.5 -26.499s12.833 -7.5 25.5 -9.5v-24h-144zM256 47.9971
c22.667 0 43.832 4.83398 63.499 14.501s39.834 23.5 60.501 41.5v266c-13.333 1.33301 -24.333 2 -33 2h-11c-26 0 -50.333 -2.5 -73 -7.5s-43 -13.833 -61 -26.5c-22.667 -16.667 -40 -37.834 -52 -63.501s-18 -53.167 -18 -82.5c0 -15.333 2 -30 6 -44
c6 -28 20 -51.667 42 -71s47.333 -29 76 -29z" />
    <glyph glyph-name="r" unicode="r" horiz-adv-x="326" 
d="M0 0l51.999 -0.00195312v24c11.333 1.33301 19.5 4.5 24.5 9.5s7.5 13.833 7.5 26.5v306c0 12.667 -2.16699 21.334 -6.5 26.001s-12.833 8 -25.5 10v24h102v-34c26.667 26.667 57.334 40 92.001 40c16.667 0 36 -3.33301 58 -10v-88h-22
c-4.66699 12.667 -12 21.834 -22 27.501s-21.333 8.5 -34 8.5c-16.667 0 -31.5 -5.16699 -44.5 -15.5s-19.5 -23.833 -19.5 -40.5v-252c0 -14 2.5 -23.833 7.5 -29.5s14.5 -8.5 28.5 -8.5v-24h-198z" />
    <glyph glyph-name="s" unicode="s" horiz-adv-x="416" 
d="M36 64l70.002 71.999l18 -20c-6.66699 -8.66699 -10 -16.667 -10 -24c0 -15.333 13.333 -27.666 40 -36.999c21.333 -7.33301 45.333 -11 72 -11c21.333 0 42.333 6.66699 63 20s31 29.333 31 48c0 16.667 -9.33301 31.667 -28 45c-14.667 10 -32 18.333 -52 25
c-44.667 11.333 -69.334 17.666 -74.001 18.999c-27.333 8.66699 -50 20.334 -68 35.001c-12 10 -21.333 22.333 -28 37s-10 29.667 -10 45c0 26 8.33301 48 25 66s37 31.5 61 40.5s48.667 13.5 74 13.5c29.333 0 57.5 -5 84.5 -15s51.5 -25 73.5 -45l-58 -74l-20 16
c5.33301 7.33301 8 14.666 8 21.999c0 14.667 -11.167 26 -33.5 34s-43.833 12 -64.5 12c-23.333 0 -42.5 -5.83301 -57.5 -17.5s-22.5 -25.167 -22.5 -40.5c0 -10 4.33301 -19.667 13 -29s21.667 -16.333 39 -21l87 -26c34.667 -10.667 61.667 -23.334 81 -38.001
c14 -9.33301 24.833 -22.166 32.5 -38.499s11.5 -33.5 11.5 -51.5c0 -7.33301 -0.333008 -13 -1 -17s-3 -14.333 -7 -31c-12.667 -31.333 -35.667 -54.666 -69 -69.999c-28.667 -13.333 -61.667 -20 -99 -20c-39.333 0 -72.833 5.66699 -100.5 17s-54.834 31 -81.501 59z
" />
    <glyph glyph-name="t" unicode="t" horiz-adv-x="306" 
d="M86 370h-55.998v56h56v114l76 18v-132h98v-56h-98v-280c0 -15.333 4.5 -27.166 13.5 -35.499s19.833 -12.5 32.5 -12.5c11.333 0 21.666 3.66699 30.999 11s15 17.666 17 30.999h24v-82c-26 -8 -54 -12 -84 -12c-32.667 0 -58.334 7.33301 -77.001 22
c-22 17.333 -33 44 -33 80v278z" />
    <glyph glyph-name="u" unicode="u" 
d="M454 426l0.000976562 -364.002c0 -14 2.5 -23.833 7.5 -29.5s14.5 -8.5 28.5 -8.5v-24h-112v46c-24.667 -18.667 -48.334 -33 -71.001 -43s-47 -15 -73 -15l-42 4c-40 8.66699 -69.333 27.167 -88 55.5s-28 63.166 -28 104.499v214c0 12.667 -2.16699 21.334 -6.5 26.001
s-12.833 8 -25.5 10v24h108v-256c0 -29.333 2.66699 -51.666 8 -66.999c8 -22 23.333 -37.667 46 -47c15.333 -6.66699 30 -10 44 -10c18 0 35.333 3.66699 52 11c22 10 47.333 28.333 76 55v254c0 12.667 -2.16699 21.334 -6.5 26.001s-12.833 8 -25.5 10v24h108z" />
    <glyph glyph-name="v" unicode="v" horiz-adv-x="454" 
d="M254 -2l-57.998 -0.000976562l-144 370c-4.66699 12.667 -9 21.334 -13 26.001s-11 7.33398 -21 8.00098v24h132v-24l-4 -2c-13.333 0 -20 -4.66699 -20 -14l4 -10l104 -272l102 264c1.33301 2.66699 2 6.66699 2 12c0 6.66699 -3 12 -9 16s-13 6 -21 6v24h124v-24
c-8.66699 0 -15.334 -2.33301 -20.001 -7s-9.33398 -12.334 -14.001 -23.001z" />
    <glyph glyph-name="w" unicode="w" horiz-adv-x="654" 
d="M240 -2h-56.002l-138 370c-4.66699 12.667 -9 21.334 -13 26.001s-11 7.33398 -21 8.00098v24h130v-24l-4 -2c-13.333 0 -20 -4.66699 -20 -14l4 -10l98 -266l74 192l-16 49c-8.66699 25.333 -16 40.166 -22 44.499s-11.333 6.5 -16 6.5v24h124v-24
c-14.667 0 -22 -4.66699 -22 -14c0 -4 1.33301 -7.33301 4 -10l98 -266l94 256c1.33301 2.66699 2 6.66699 2 12c0 6.66699 -3 12 -9 16s-13 6 -21 6v24h124v-24c-9.33301 0 -16.166 -2.33301 -20.499 -7s-8.16602 -12.334 -11.499 -23.001l-136 -374h-58l-84 230z" />
    <glyph glyph-name="x" unicode="x" horiz-adv-x="454" 
d="M148 0l-131.999 -0.000976562v24c14.667 2 26.667 8.66699 36 20l128 186l-106 152c-4.66699 6 -10 10.667 -16 14s-13.333 5.33301 -22 6v24h150v-24c-4.66699 0 -9.83398 -1.5 -15.501 -4.5s-8.5 -6.16699 -8.5 -9.5l4 -10l72 -104l66 98l4 12
c0 4.66699 -2.16699 8.5 -6.5 11.5s-10.166 5.16699 -17.499 6.5v24h132v-24c-16.667 0 -30.667 -8 -42 -24l-104 -152l124 -178c10 -14 22.667 -22 38 -24v-24h-152v24c8 0 15 1 21 3s9 5.66699 9 11c-0.666992 4.66699 -1.33398 7.33398 -2.00098 8.00098l-96 136
l-88 -134l-2 -8c0 -4.66699 3 -8.5 9 -11.5s11.667 -4.5 17 -4.5v-24z" />
    <glyph glyph-name="y" unicode="y" horiz-adv-x="464" 
d="M244 -58c-16.667 -44 -38.668 -78.002 -66.001 -102.002c-30 -26.667 -64.667 -40 -104 -40c-14 0 -30 2 -48 6v86h24c2 -12 6.33301 -20.667 13 -26s15 -8 25 -8c18 0 34 6 48 18c12.667 9.33301 25.834 25.833 39.501 49.5s20.5 43.834 20.5 60.501
c0 4 -1.33301 10 -4 18l-146 366c-4.66699 11.333 -9 19.333 -13 24s-10.333 7.33398 -19 8.00098v24h132v-24c-14.667 -2.66699 -22 -8 -22 -16l4 -10l112 -288l102 280l2 10c0 14 -8 22 -24 24v24h116v-24c-14 -3.33301 -24 -13.333 -30 -30z" />
    <glyph glyph-name="z" unicode="z" horiz-adv-x="376" 
d="M354 0l-322 0.000976562v54l216 322h-134c-11.333 0 -19.833 -3.83301 -25.5 -11.5s-10.5 -17.834 -14.5 -30.501h-22v92h284v-50l-216 -320h150c34 0 54 16 60 48h24v-104z" />
    <glyph glyph-name="braceleft" unicode="{" horiz-adv-x="416" 
d="M396 672v-22.001c-49.333 0 -81 -11 -95 -33c-10 -15.333 -15 -48.333 -15 -99v-56c0 -56 -6 -94.667 -18 -116c-16.667 -30 -52.667 -51.333 -108 -64c55.333 -12.667 91.333 -33.667 108 -63c12 -21.333 18 -60.333 18 -117v-56c0 -49.333 5 -81.666 15 -96.999
c14 -22 45.667 -33 95 -33v-24c-65.333 0 -109.666 9.33301 -132.999 28c-27.333 21.333 -41 63.333 -41 126v94c0 47.333 -8.33301 79.333 -25 96s-49.667 28 -99 34v26c49.333 6 81.666 16.333 96.999 31c18 16.667 27 49 27 97v94c0 62.667 13.333 104.667 40 126
c23.333 18.667 68 28 134 28z" />
    <glyph glyph-name="bar" unicode="|" horiz-adv-x="296" 
d="M220 694h56v-908h-56v908z" />
    <glyph glyph-name="braceright" unicode="}" horiz-adv-x="416" 
d="M100 672c64 0 108.668 -10.166 134.001 -30.499s38 -61.5 38 -123.5v-94c0 -47.333 8.33301 -78.833 25 -94.5s49.667 -26.834 99 -33.501v-26c-49.333 -6 -82.333 -17.167 -99 -33.5s-25 -48.5 -25 -96.5v-94c0 -62.667 -13.333 -104.667 -40 -126
c-23.333 -18.667 -67.333 -28 -132 -28v24c48 0 79 10.667 93 32c10 15.333 15 48 15 98v56c0 55.333 6.33301 94 19 116c17.333 30 53.666 51.333 108.999 64c-56 13.333 -92.333 34.333 -109 63c-12.667 22 -19 61 -19 117v56c0 49.333 -5 82 -15 98
c-14 22.667 -45 34 -93 34v22z" />
    <glyph glyph-name="asciitilde" unicode="~" horiz-adv-x="396" 
d="M374 618c-6.66699 -32 -16.8359 -55 -30.5029 -69s-31.5 -21 -53.5 -21c-7.33301 0 -16.166 1 -26.499 3s-19.333 4 -27 6s-17.167 4 -28.5 6s-18.666 3 -21.999 3c-11.333 0 -20.166 -2.5 -26.499 -7.5s-12.166 -15.167 -17.499 -30.5h-22
c6.66699 30.667 16.667 53.667 30 69s32 23 56 23c12 0 26 -2 42 -6c14 -4.66699 25.667 -8.16699 35 -10.5s17.666 -3.5 24.999 -3.5c20.667 0 34.667 12.667 42 38h24z" />
    <glyph glyph-name="nonbreakingspace" unicode="&#xa0;" horiz-adv-x="500" 
 />
    <glyph glyph-name="exclamdown" unicode="&#xa1;" horiz-adv-x="614" 
d="M204 70c11.333 0 20.1689 3.00098 26.502 9.00098s15.5 19.667 27.5 41l18 38l-200 420c-4.66699 10 -14.334 18 -29.001 24c-8 3.33301 -15.667 5.33301 -23 6v26h172v-26c-6.66699 -0.666992 -13.334 -2.16699 -20.001 -4.5s-10 -7.5 -10 -15.5l2 -10l148 -332l142 316
l2 8c0 8.66699 -5.5 17.167 -16.5 25.5s-20.833 12.5 -29.5 12.5v26h174v-26c-14.667 -2.66699 -27.5 -6.5 -38.5 -11.5s-18.833 -12.5 -23.5 -22.5l-218 -480c-15.333 -32 -29.333 -55 -42 -69c-17.333 -19.333 -36.666 -29 -57.999 -29
c-11.333 0 -23.666 1.66699 -36.999 5s-24.333 7.66602 -33 12.999l-6 68l22 10c7.33301 -7.33301 14.666 -12.833 21.999 -16.5s16.666 -5.5 27.999 -5.5zM180.003 750.001h42.001c2.66699 -12.667 12.667 -23.167 30 -31.5s36.666 -12.5 57.999 -12.5
c18.667 0 35.667 3.66699 51 11s26.333 18.333 33 33h42c0 -27.333 -13.333 -49.333 -40 -66c-24 -14.667 -53.333 -22 -88 -22c-35.333 0 -65 7 -89 21c-27.333 16 -41 37 -41 63z" />
    <glyph glyph-name="cent" unicode="&#xa2;" horiz-adv-x="464" 
d="M244 -58c-16.667 -44 -38.668 -78.002 -66.001 -102.002c-30 -26.667 -64.667 -40 -104 -40c-14 0 -30 2 -48 6v86h24c2 -12 6.33301 -20.667 13 -26s15 -8 25 -8c18 0 34 6 48 18c12.667 9.33301 25.834 25.833 39.501 49.5s20.5 43.834 20.5 60.501
c0 4 -1.33301 10 -4 18l-146 366c-4.66699 11.333 -9 19.333 -13 24s-10.333 7.33398 -19 8.00098v24h132v-24c-14.667 -2.66699 -22 -8 -22 -16l4 -10l112 -288l102 280l2 10c0 14 -8 22 -24 24v24h116v-24c-14 -3.33301 -24 -13.333 -30 -30zM117.999 561.998h42.001
c2.66699 -12.667 12.667 -23.167 30 -31.5s36.666 -12.5 57.999 -12.5c18.667 0 35.667 3.66699 51 11s26.333 18.333 33 33h42c0 -27.333 -13.333 -49.333 -40 -66c-24 -14.667 -53.333 -22 -88 -22c-35.333 0 -65 7 -89 21c-27.333 16 -41 37 -41 63z" />
    <glyph glyph-name="sterling" unicode="&#xa3;" horiz-adv-x="436" 
d="M210 158h80v-82h-80v82zM210 426h80v-80h-80v80zM78 276h334v-56h-334v56z" />
    <glyph glyph-name="currency" unicode="&#xa4;" horiz-adv-x="464" 
d="M118 474l51.999 -54c31.333 18.667 60.666 28 87.999 28c14.667 0 28.667 -2.5 42 -7.5s25.333 -11.833 36 -20.5l46 54l54 -54l-48 -46c17.333 -30.667 26 -59.334 26 -86.001c0 -27.333 -10.667 -54.666 -32 -81.999l54 -46l-54 -52l-46 46
c-12.667 -9.33301 -26.5 -16.333 -41.5 -21s-29.167 -7 -42.5 -7c-16.667 0 -31.667 2.5 -45 7.5s-25.666 11.833 -36.999 20.5l-46 -46l-52 52l46 40c-20 30 -30 58 -30 84c0 17.333 2.83301 33 8.5 47s14.834 28.333 27.501 43l-52 46zM335.999 288
c0 31.333 -11.667 54.667 -35 70c-16 10.667 -33 16 -51 16c-20 0 -38.333 -6.66699 -55 -20c-20.667 -16.667 -31 -38.667 -31 -66c0 -32.667 10.333 -56.667 31 -72c14.667 -10.667 33 -16 55 -16c18 0 35.333 6.33301 52 19c22.667 17.333 34 40.333 34 69z" />
    <glyph glyph-name="yen" unicode="&#xa5;" horiz-adv-x="218" 
d="M110 246h82v-82h-82v82z" />
    <glyph glyph-name="brokenbar" unicode="&#xa6;" horiz-adv-x="246" 
d="M168 632h56v-630h-56v630z" />
    <glyph glyph-name="section" unicode="&#xa7;" horiz-adv-x="534" 
d="M410 506c-13.333 32 -30 54.668 -50 68.001s-44 20 -72 20c-33.333 0 -60.333 -9.33301 -81 -28s-31 -40 -31 -64c0 -16 5.66699 -31 17 -45s27.666 -24.333 48.999 -31l136 -40c69.333 -27.333 107.333 -62.666 114 -105.999c1.33301 -5.33301 2 -14 2 -26
c0 -25.333 -6 -48.666 -18 -69.999s-31.333 -40.666 -58 -57.999c60 -35.333 90 -79.333 90 -132c0 -27.333 -8 -54 -24 -80c-19.333 -30.667 -45.666 -53.667 -78.999 -69s-69 -23 -107 -23c-53.333 0 -101 12.667 -143 38c-45.333 27.333 -72.333 62.666 -81 105.999l80 6
c17.333 -30.667 39.333 -53.667 66 -69c22.667 -12.667 46.667 -19 72 -19c21.333 0 40.833 2.66699 58.5 8s32.834 12.666 45.501 21.999c22.667 14.667 34 37.334 34 68.001c0 20 -6 37.333 -18 52c-14 16.667 -34 28 -60 34c-6 1.33301 -27.333 5.66602 -64 12.999
c-48.667 9.33301 -93.334 24.333 -134.001 45c-20 10 -35.667 25 -47 45s-17 41.667 -17 65c0 27.333 8 53.666 24 78.999s39.333 45 70 59c-24 11.333 -41 22.666 -51 33.999c-19.333 22 -29 52.667 -29 92c0 45.333 18.167 82 54.5 110s79.5 42 129.5 42
c48 0 89.667 -11.833 125 -35.5s56.333 -55.167 63 -94.5zM360 140.001c20.667 16 35.001 29 43.001 39c15.333 18.667 23 37.667 23 57c0 32 -26 57.667 -78 77l-114 39l-39 -34c-20.667 -20.667 -31 -40.667 -31 -60c0 -6.66699 2 -14 6 -22
c7.33301 -26.667 36.666 -48.667 87.999 -66z" />
    <glyph glyph-name="dieresis" unicode="&#xa8;" horiz-adv-x="574" 
d="M0 0l58 0.000976562v28c12.667 2 21.5 5.5 26.5 10.5s7.5 13.5 7.5 25.5v508c0 11.333 -2.66699 19.666 -8 24.999s-14 9 -26 11v26h470v-106h-24c-2 20 -8.66699 33 -20 39s-27.333 9 -48 9h-262v-188h226c13.333 0 23.833 2.33301 31.5 7s12.5 13 14.5 25h24v-122h-24
c-2 12.667 -6.66699 21.167 -14 25.5s-18 6.5 -32 6.5h-226v-268h288c21.333 0 37.333 4.16699 48 12.5s16 22.833 16 43.5h26v-118h-552zM322 708.001c0 17.333 6.66602 30 19.999 38c8.66699 5.33301 17.334 8 26.001 8c10.667 0 21 -4.33301 31 -13s15 -19.667 15 -33
c0 -14.667 -4.66699 -26.667 -14 -36s-19.333 -14 -30 -14c-16 0 -28 4.83301 -36 14.5s-12 21.5 -12 35.5zM189.999 708.001c0 17.333 6.66602 30 19.999 38c8.66699 5.33301 17.334 8 26.001 8c10.667 0 21 -4.33301 31 -13s15 -19.667 15 -33
c0 -14.667 -4.66699 -26.667 -14 -36s-19.333 -14 -30 -14c-16 0 -28 4.83301 -36 14.5s-12 21.5 -12 35.5z" />
    <glyph glyph-name="copyright" unicode="&#xa9;" horiz-adv-x="742" 
d="M488 380c-2.66699 26 -13.167 45.499 -31.5 58.499s-42.5 19.5 -72.5 19.5c-34.667 0 -62.334 -13.833 -83.001 -41.5s-31 -60.5 -31 -98.5s10 -70.333 30 -97c22.667 -30 53.334 -45 92.001 -45c24.667 0 46 6.66699 64 20c21.333 15.333 32 35.333 32 60h66
c-7.33301 -50.667 -31.333 -87 -72 -109c-28.667 -15.333 -63.334 -23 -104.001 -23c-54.667 4.66699 -97.667 27 -129 67c-28.667 36.667 -43 79.667 -43 129c0 52.667 15.333 98 46 136c33.333 41.333 77.333 62 132 62c44.667 0 82.834 -12.667 114.501 -38
s50.167 -58.666 55.5 -99.999h-66zM646 313.999v11.999c0 66.667 -24.333 125.334 -73 176.001c-52 54.667 -117 82 -195 82c-70.667 0 -133 -24 -187 -72s-81 -106.667 -81 -176v-14c0 -68 25.167 -130 75.5 -186s110.5 -84 180.5 -84h12c71.333 0 133 23 185 69
c55.333 48.667 83 109 83 181v12zM38 335.998c0 37.333 9.66406 76.998 28.9971 118.998c26 56 61 100.333 105 133c56.667 41.333 125.334 62 206.001 62c104.667 0 190.334 -37.667 257.001 -113c58 -65.333 87 -137.666 87 -216.999c0 -81.333 -22 -149.666 -66 -204.999
c-34.667 -43.333 -82 -76.666 -142 -99.999c-46 -18 -89.333 -27 -130 -27c-93.333 0 -172.666 29.667 -237.999 89c-72 65.333 -108 151.666 -108 258.999z" />
    <glyph glyph-name="ordfeminine" unicode="&#xaa;" horiz-adv-x="624" 
d="M290 12c-71.333 26.667 -129.334 70.333 -174.001 131c-46.667 63.333 -70 132.333 -70 207c0 70 21 131.167 63 183.5s97 86.5 165 102.5c12.667 2.66699 28.167 5 46.5 7s34.833 3 49.5 3c23.333 0 44.333 -1.5 63 -4.5s37.667 -8.16699 57 -15.5
c36.667 -16 73.334 -40 110.001 -72l-80 -80l-22 20c5.33301 7.33301 8 15.333 8 24c0 18.667 -13.667 35 -41 49s-59.666 21 -96.999 21c-56.667 0 -105.334 -14.667 -146.001 -44c-49.333 -36 -77.333 -88 -84 -156h236v-60h-236c0 -84.667 36 -155 108 -211
c61.333 -47.333 126 -71 194 -71c27.333 0 50.5 5.5 69.5 16.5s30.5 26.833 34.5 47.5h26v-116c-20.667 -2 -44.5 -3.83301 -71.5 -5.5s-45.833 -2.5 -56.5 -2.5c-30 0 -56.833 1.83301 -80.5 5.5s-47.5 10.5 -71.5 20.5z" />
    <glyph glyph-name="guillemotleft" unicode="&#xab;" horiz-adv-x="326" 
d="M148 340h40l-46 -120l46 -124h-40l-74 124zM298 340l-48 -120l48 -124h-40l-76 124l76 120h40z" />
    <glyph glyph-name="logicalnot" unicode="&#xac;" horiz-adv-x="484" 
d="M40 306h416v-218h-56v162h-360v56z" />
    <glyph glyph-name="minus" unicode="&#xad;" horiz-adv-x="306" 
d="M58 178v68h222v-68h-222z" />
    <glyph glyph-name="registered" unicode="&#xae;" horiz-adv-x="752" 
d="M652 320v9.99805c0 66 -24 124.333 -72 175c-51.333 54 -115.333 81 -192 81c-70.667 0 -133 -24 -187 -72s-81 -106 -81 -174l-2 -12c0 -67.333 25.5 -129.166 76.5 -185.499s111.5 -84.5 181.5 -84.5l12 2c68.667 0 129 23 181 69c55.333 48.667 83 108.334 83 179.001
v12zM48 339.998c0 37.333 9.66504 77 28.998 119c25.333 54.667 60.333 98.334 105 131.001c56.667 41.333 125.334 62 206.001 62c102.667 0 186.334 -37 251.001 -111c56.667 -64.667 85 -136.334 85 -215.001c0 -80.667 -21.667 -148.667 -65 -204
c-34.667 -44.667 -80.667 -78.334 -138 -101.001c-44.667 -18 -87 -27 -127 -27c-92.667 0 -172 29.667 -238 89c-72 64.667 -108 150.334 -108 257.001zM261.998 499.998h195.999c32 0 57 -9 75 -27s27 -39.667 27 -65c0 -27.333 -9.33301 -50.333 -28 -69
c-21.333 -22 -50.666 -33 -87.999 -33l116 -168h-66l-114 168h-58v-168h-60v362zM321.997 455.998v-107.998h106c23.333 0 41.833 6.16699 55.5 18.5s20.5 26.166 20.5 41.499c0 13.333 -5.66699 24.666 -17 33.999s-28.333 14 -51 14h-114z" />
    <glyph glyph-name="macron" unicode="&#xaf;" horiz-adv-x="238" 
d="M62 0v28.002c12.667 2 21.167 5.16699 25.5 9.5s6.5 13.166 6.5 26.499v508c0 12 -2.33301 20.5 -7 25.5s-13 8.5 -25 10.5v26h148v-26c-14 -2 -22.833 -5 -26.5 -9s-5.5 -13 -5.5 -27v-508c0 -12.667 2.16699 -21.334 6.5 -26.001s12.833 -8 25.5 -10v-28h-148z
M162 708.002c0 17.333 6.66602 30 19.999 38c8.66699 5.33301 17.334 8 26.001 8c10.667 0 21 -4.33301 31 -13s15 -19.667 15 -33c0 -14.667 -4.66699 -26.667 -14 -36s-19.333 -14 -30 -14c-16 0 -28 4.83301 -36 14.5s-12 21.5 -12 35.5zM29.999 708.002
c0 17.333 6.66602 30.001 19.999 38.001c8.66699 5.33301 17.334 8 26.001 8c10.667 0 21 -4.33301 31 -13s15 -19.667 15 -33c0 -14.667 -4.66699 -26.667 -14 -36s-19.333 -14 -30 -14c-12.667 0 -23 3.33301 -31 10c-11.333 9.33301 -17 22.666 -17 39.999z" />
    <glyph glyph-name="degree" unicode="&#xb0;" horiz-adv-x="316" 
d="M250 580c0 13.333 -4.33301 24 -13 32s-19 12 -31 12c-10.667 0 -20 -3.83301 -28 -11.5s-12 -18.5 -12 -32.5s4.16699 -24.833 12.5 -32.5s17.5 -11.5 27.5 -11.5c13.333 0 24 3.66699 32 11s12 18.333 12 33zM124 580c0 25.333 7.66602 46 22.999 62s35 24 59 24
c26 0 47.5 -8.16699 64.5 -24.5s25.5 -36.833 25.5 -61.5s-9.16699 -45.167 -27.5 -61.5s-39.166 -24.5 -62.499 -24.5c-22 0 -40.667 7 -56 21c-17.333 16 -26 37.667 -26 65z" />
    <glyph glyph-name="plusminus" unicode="&#xb1;" horiz-adv-x="594" 
d="M328 520h44v-208h202v-44h-202v-208h-44v208h-204v44h204v208zM132 44h442v-42h-442v42z" />
    <glyph glyph-name="twosuperior" unicode="&#xb2;" horiz-adv-x="238" 
d="M0 0l62 0.00195312v28c12.667 2 21.167 5.16699 25.5 9.5s6.5 13.166 6.5 26.499v508c0 12 -2.33301 20.5 -7 25.5s-13 8.5 -25 10.5v26h148v-26c-14 -2 -22.833 -5 -26.5 -9s-5.5 -13 -5.5 -27v-508c0 -12.667 2.16699 -21.334 6.5 -26.001s12.833 -8 25.5 -10v-28h-210
zM88 708.002c0 17.333 6.66602 30 19.999 38c8.66699 5.33301 17.334 8 26.001 8c10.667 0 21 -4.33301 31 -13s15 -19.667 15 -33c0 -14.667 -4.66699 -26.667 -14 -36s-19.333 -14 -30 -14c-16 0 -28 4.83301 -36 14.5s-12 21.5 -12 35.5z" />
    <glyph glyph-name="threesuperior" unicode="&#xb3;" horiz-adv-x="218" 
d="M126 604c12.667 -2.66699 23.166 -9.16797 31.499 -19.501s12.5 -21.833 12.5 -34.5l-4 -20c-4.66699 -10 -11.5 -17.833 -20.5 -23.5s-18.833 -8.5 -29.5 -8.5c-14 0 -26.5 4.83301 -37.5 14.5s-16.5 22.834 -16.5 39.501c0 14.667 5.33301 27 16 37
s23.334 15 38.001 15h10zM195.999 23.999l0.000976562 -24.001h-152v24c14 0 23.5 2.5 28.5 7.5s7.5 14.5 7.5 28.5v306c0 12 -2.5 20.5 -7.5 25.5s-14.5 8.5 -28.5 10.5v24h116v-366c0 -13.333 2.66699 -22.666 8 -27.999s14.666 -8 27.999 -8z" />
    <glyph glyph-name="acute" unicode="&#xb4;" horiz-adv-x="376" 
d="M128 552l190 116l36 -66l-204 -86z" />
    <glyph glyph-name="mu" unicode="&#xb5;" horiz-adv-x="564" 
d="M474 444v-340c0 -18 2.16699 -33.167 6.5 -45.5s13.5 -18.5 27.5 -18.5c5.33301 0 11 1.33301 17 4s10.333 4.66699 13 6v-16l-86 -44c-0.666992 -0.666992 -3.33398 -1.33398 -8.00098 -2.00098c-12.667 0 -23 6 -31 18c-10 15.333 -15 36 -15 62
c-29.333 -28 -51.333 -47 -66 -57c-26.667 -18 -52.667 -27 -78 -27c-55.333 0 -91.333 28.667 -108 86c0 -29.333 2.16699 -61.333 6.5 -96s8.83301 -68.667 13.5 -102c0 -16.667 -2.66699 -29.667 -8 -39c-7.33301 -12.667 -18.666 -19 -33.999 -19
c-12.667 0 -22.5 5 -29.5 15s-10.5 22.333 -10.5 37c0 10 0.5 18.5 1.5 25.5s3.16699 16.5 6.5 28.5c8.66699 50.667 15.167 106.334 19.5 167.001s6.5 119.667 6.5 177v180h84v-280c0 -36 4.33301 -64.333 13 -85c12.667 -30 35 -45 67 -45c22.667 0 43.667 7.33301 63 22
c15.333 12 30.333 28.667 45 50v338h84z" />
    <glyph glyph-name="paragraph" unicode="&#xb6;" horiz-adv-x="524" 
d="M376 580h-72v-752h-68v370c-58 0 -104.333 22.667 -139 68c-31.333 40.667 -47 90 -47 148c0 62.667 19 115.667 57 159c42.667 48.667 101 73 175 73h220v-66h-60v-752h-66v752z" />
    <glyph glyph-name="periodcentered" unicode="&#xb7;" horiz-adv-x="218" 
d="M110 246h82v-82h-82v82z" />
    <glyph glyph-name="periodcentered" unicode="&#x2219;" horiz-adv-x="218" 
d="M110 246h82v-82h-82v82z" />
    <glyph glyph-name="cedilla" unicode="&#xb8;" horiz-adv-x="464" 
d="M134 270l225.999 -0.00195312c0 34.667 -9 62.334 -27 83.001s-44.333 31 -79 31c-31.333 0 -59.166 -11.167 -83.499 -33.5s-36.5 -49.166 -36.5 -80.499zM421.999 19.998c-22 -10 -45.999 -18.168 -71.999 -24.501s-50.667 -9.5 -74 -9.5c-27.333 0 -56 5.33301 -86 16
c-43.333 16.667 -77.5 45 -102.5 85s-37.5 83.667 -37.5 131c0 18 2 36 6 54c11.333 49.333 34.666 89.333 69.999 120s76.666 46 123.999 46c14 0 24.333 -0.333008 31 -1s16.334 -3 29.001 -7c46.667 -14 81 -41 103 -81c19.333 -34.667 29 -77.667 29 -129h-314
c0 -57.333 18.667 -102.666 56 -135.999c31.333 -28 68 -42 110 -42c24.667 0 47 5.83301 67 17.5s33 27.167 39 46.5h22v-86zM338 603.997c12.667 -2.66699 23.166 -9.16699 31.499 -19.5s12.5 -21.833 12.5 -34.5l-4 -20c-4.66699 -10 -11.5 -17.833 -20.5 -23.5
s-18.167 -8.5 -27.5 -8.5c-14.667 0 -27.667 5 -39 15s-17 23 -17 39c0 14.667 5.33301 27 16 37s23.334 15 38.001 15h10zM201.999 603.997c12.667 -2.66699 22.8359 -9.16699 30.5029 -19.5s11.5 -21.833 11.5 -34.5c0 -9.33301 -1.33301 -16 -4 -20
c-4 -10.667 -10.333 -18.667 -19 -24s-18.334 -8 -29.001 -8c-14.667 0 -27.334 5 -38.001 15s-16 23 -16 39c0 15.333 5.16699 27.833 15.5 37.5s23.166 14.5 38.499 14.5h10z" />
    <glyph glyph-name="onesuperior" unicode="&#xb9;" horiz-adv-x="644" 
d="M0 0l60 0.000976562v28c12.667 2 21.167 5.5 25.5 10.5s6.5 13.5 6.5 25.5v508c0 12 -2.33301 20.5 -7 25.5s-13 8.5 -25 10.5v26h116l350 -306v244c0 12.667 -2.16699 21.334 -6.5 26.001s-12.833 8 -25.5 10v26h126v-26c-14 -2 -22.833 -5 -26.5 -9s-5.5 -13 -5.5 -27
v-508c0 -12.667 2.16699 -21.334 6.5 -26.001s12.833 -8 25.5 -10v-28h-126v28c12.667 2 21.167 5.16699 25.5 9.5s6.5 13.166 6.5 26.499v154l-372 324v-478c0 -12 2.33301 -20.5 7 -25.5s13 -8.5 25 -10.5v-28h-186z" />
    <glyph glyph-name="ordmasculine" unicode="&#xba;" horiz-adv-x="494" 
d="M226 10c-46 17.333 -84.166 46 -114.499 86s-45.5 84 -45.5 132c0 15.333 2 30 6 44c11.333 49.333 36 89 74 119s82 45 132 45h6c64.667 0 125.334 -24 182.001 -72l-68 -74l-18 16c3.33301 6 5.5 11.5 6.5 16.5s1.5 8.83301 1.5 11.5c0 16.667 -16.667 30.667 -50 42
c-14 4 -29.333 6 -46 6c-29.333 0 -56.333 -8.16699 -81 -24.5s-42.334 -38.833 -53.001 -67.5l-6 -20h170v-50h-174c0 -52.667 21.667 -96.667 65 -132c38 -30.667 79 -46 123 -46c38.667 0 62 14 70 42h22v-86c-12 -2.66699 -26.167 -5 -42.5 -7s-30.833 -3 -43.5 -3
c-20.667 0 -40.834 1.83301 -60.501 5.5s-38.167 9.16699 -55.5 16.5z" />
    <glyph glyph-name="guillemotright" unicode="&#xbb;" horiz-adv-x="336" 
d="M238 340l74 -120l-74 -124h-40l46 124l-46 120h40zM88 340h42l76 -120l-76 -124h-42l48 124z" />
    <glyph glyph-name="onequarter" unicode="&#xbc;" horiz-adv-x="564" 
d="M108 432l36 38l176 -166l162 172l38 -34l-162 -174l178 -166l-36 -38l-178 166l-162 -174l-38 36l162 174z" />
    <glyph glyph-name="onehalf" unicode="&#xbd;" horiz-adv-x="772" 
d="M334 480l-0.00195312 -95.999h168c54.667 0 106.667 -15.667 156 -47c60 -38 90 -87.667 90 -149c0 -74.667 -35.333 -127.334 -106 -158.001c-46 -20 -107.333 -30 -184 -30h-238v28c20 2 30 12.667 30 32v420h-136c-19.333 0 -34.166 -3.33301 -44.499 -10
s-15.5 -19.334 -15.5 -38.001h-26v106h222v36c0 18.667 -10 30 -30 34v26h146v-26c-12.667 -2 -21.167 -5.5 -25.5 -10.5s-6.5 -13.5 -6.5 -25.5v-34h228v-106h-26c-2 18.667 -7.66699 31.334 -17 38.001s-23.666 10 -42.999 10h-142zM333.998 60.001h145.999
c50.667 0 91.334 9 122.001 27c38.667 22.667 58 57.667 58 105c0 43.333 -16.333 76.5 -49 99.5s-71.667 34.5 -117 34.5h-160v-266z" />
    <glyph glyph-name="threequarters" unicode="&#xbe;" horiz-adv-x="454" 
d="M86 370h-56v56h56v114l76 18v-132h98v-56h-98v-110h122c34.667 0 68 -11.833 100 -35.5s48 -52.5 48 -86.5c0 -46 -18.667 -81.333 -56 -106c-32 -21.333 -71.333 -32 -118 -32h-204v24c10.667 1.33301 18.667 4.83301 24 10.5s8 16.167 8 31.5v304zM162 210v-158h102
c28.667 0 53.167 7.5 73.5 22.5s30.5 34.833 30.5 59.5c0 27.333 -9.5 46.833 -28.5 58.5s-46.167 17.5 -81.5 17.5h-96z" />
    <glyph glyph-name="questiondown" unicode="&#xbf;" horiz-adv-x="306" 
d="M236 604c28 -7.33301 42 -25.333 42 -54c0 -9.33301 -1.33301 -16 -4 -20c-3.33301 -10 -9.66602 -17.833 -18.999 -23.5s-19 -8.5 -29 -8.5c-14.667 0 -27.334 5 -38.001 15s-16 23 -16 39c0 14.667 5 27 15 37s22.333 15 37 15h12zM98 604
c12.667 -2.66699 23.166 -9.16797 31.499 -19.501s12.5 -21.833 12.5 -34.5l-4 -20c-4.66699 -10 -11.5 -17.833 -20.5 -23.5s-18.833 -8.5 -29.5 -8.5c-14 0 -26.5 4.83301 -37.5 14.5s-16.5 22.834 -16.5 39.501c0 14.667 5.33301 27 16 37s23.334 15 38.001 15h10z
M239.999 23.999l0.000976562 -24.001h-150v24c12.667 0 21.5 2.5 26.5 7.5s7.5 14.5 7.5 28.5v306c0 12 -2.5 20.5 -7.5 25.5s-13.833 8.5 -26.5 10.5v24h114v-366c0 -13.333 2.66699 -22.666 8 -27.999s14.666 -8 27.999 -8z" />
    <glyph glyph-name="Agrave" unicode="&#xc0;" horiz-adv-x="614" 
d="M206 314h174l-90 222zM130 0l-116.001 0.00292969v28c5.33301 1.33301 10.5 4.66602 15.5 9.99902s9.83301 14.666 14.5 27.999l230 568h58l236 -578c2.66699 -6 5.5 -12 8.5 -18s8.16699 -9.33301 15.5 -10v-28h-130v28c6.66699 1.33301 12.334 3.16602 17.001 5.49902
s7 5.83301 7 10.5l-2 10l-80 202h-222l-76 -196l-2 -10c0 -12 8.66699 -19.333 26 -22v-28z" />
    <glyph glyph-name="Agrave" unicode="&#x410;" horiz-adv-x="614" 
d="M206 314h174l-90 222zM130 0l-116.001 0.00292969v28c5.33301 1.33301 10.5 4.66602 15.5 9.99902s9.83301 14.666 14.5 27.999l230 568h58l236 -578c2.66699 -6 5.5 -12 8.5 -18s8.16699 -9.33301 15.5 -10v-28h-130v28c6.66699 1.33301 12.334 3.16602 17.001 5.49902
s7 5.83301 7 10.5l-2 10l-80 202h-222l-76 -196l-2 -10c0 -12 8.66699 -19.333 26 -22v-28z" />
    <glyph glyph-name="Aacute" unicode="&#xc1;" horiz-adv-x="604" 
d="M174 576l-0.000976562 -192.001h170c54 0 105 -15.333 153 -46c58 -37.333 87 -86.666 87 -147.999c0 -71.333 -28.667 -122.333 -86 -153c-46 -24.667 -112 -37 -198 -37h-240v28c21.333 2 32 12.667 32 32v514c0 11.333 -2.16699 19.333 -6.5 24s-12.833 8 -25.5 10v26
h456v-114h-24c-2 20.667 -8.16699 35.167 -18.5 43.5s-26.166 12.5 -47.499 12.5h-252zM321.999 59.999c52.667 0 93.332 7.33301 121.999 22c38.667 20 58 52.667 58 98c0 44 -16.667 79.333 -50 106s-72.666 40 -117.999 40h-160v-266h148z" />
    <glyph glyph-name="Aacute" unicode="&#x411;" horiz-adv-x="604" 
d="M174 576l-0.000976562 -192.001h170c54 0 105 -15.333 153 -46c58 -37.333 87 -86.666 87 -147.999c0 -71.333 -28.667 -122.333 -86 -153c-46 -24.667 -112 -37 -198 -37h-240v28c21.333 2 32 12.667 32 32v514c0 11.333 -2.16699 19.333 -6.5 24s-12.833 8 -25.5 10v26
h456v-114h-24c-2 20.667 -8.16699 35.167 -18.5 43.5s-26.166 12.5 -47.499 12.5h-252zM321.999 59.999c52.667 0 93.332 7.33301 121.999 22c38.667 20 58 52.667 58 98c0 44 -16.667 79.333 -50 106s-72.666 40 -117.999 40h-160v-266h148z" />
    <glyph glyph-name="Acircumflex" unicode="&#xc2;" horiz-adv-x="614" 
d="M300 0l-240 0.000976562v28c21.333 2 32 12.667 32 32v514c0 11.333 -2.16699 19.333 -6.5 24s-12.833 8 -25.5 10v26h270c54 0 100.667 -11.667 140 -35c48 -28.667 72 -67.667 72 -117c0 -28 -8.66699 -52.833 -26 -74.5s-41.333 -38.834 -72 -51.501
c36 -9.33301 66 -24.333 90 -45c37.333 -32 56 -73.667 56 -125c0 -64.667 -29.333 -113 -88 -145c-50.667 -27.333 -118 -41 -202 -41zM334 326.001h-160v-266h148c50.667 0 91.334 9 122.001 27c38.667 22.667 58 57.667 58 105c0 43.333 -16.333 76.5 -49 99.5
s-72.334 34.5 -119.001 34.5zM344 384.001c29.333 0 55.333 8.33203 78 24.999c25.333 18.667 38 42.334 38 71.001c0 32 -10.833 56 -32.5 72s-50.167 24 -85.5 24h-168v-192h170z" />
    <glyph glyph-name="Acircumflex" unicode="&#x412;" horiz-adv-x="614" 
d="M300 0l-240 0.000976562v28c21.333 2 32 12.667 32 32v514c0 11.333 -2.16699 19.333 -6.5 24s-12.833 8 -25.5 10v26h270c54 0 100.667 -11.667 140 -35c48 -28.667 72 -67.667 72 -117c0 -28 -8.66699 -52.833 -26 -74.5s-41.333 -38.834 -72 -51.501
c36 -9.33301 66 -24.333 90 -45c37.333 -32 56 -73.667 56 -125c0 -64.667 -29.333 -113 -88 -145c-50.667 -27.333 -118 -41 -202 -41zM334 326.001h-160v-266h148c50.667 0 91.334 9 122.001 27c38.667 22.667 58 57.667 58 105c0 43.333 -16.333 76.5 -49 99.5
s-72.334 34.5 -119.001 34.5zM344 384.001c29.333 0 55.333 8.33203 78 24.999c25.333 18.667 38 42.334 38 71.001c0 32 -10.833 56 -32.5 72s-50.167 24 -85.5 24h-168v-192h170z" />
    <glyph glyph-name="Atilde" unicode="&#xc3;" 
d="M0 0h66.001v28c12.667 2 21.167 5.16699 25.5 9.5s6.5 13.166 6.5 26.499v508c0 12.667 -2.16699 21.334 -6.5 26.001s-12.833 8 -25.5 10v26h428v-114h-26c0 20.667 -5.33301 35.167 -16 43.5s-27.334 12.5 -50.001 12.5h-222v-512c0 -12 2.33301 -20.5 7 -25.5
s13 -8.5 25 -10.5v-28h-212z" />
    <glyph glyph-name="Atilde" unicode="&#x413;" 
d="M0 0h66.001v28c12.667 2 21.167 5.16699 25.5 9.5s6.5 13.166 6.5 26.499v508c0 12.667 -2.16699 21.334 -6.5 26.001s-12.833 8 -25.5 10v26h428v-114h-26c0 20.667 -5.33301 35.167 -16 43.5s-27.334 12.5 -50.001 12.5h-222v-512c0 -12 2.33301 -20.5 7 -25.5
s13 -8.5 25 -10.5v-28h-212z" />
    <glyph glyph-name="Adieresis" unicode="&#xc4;" horiz-adv-x="662" 
d="M548 0h-448c-19.333 -0 -34 -3.66699 -44 -11s-16 -20.333 -18 -39h-24v112h46l232 572h58l236 -572h50v-112h-24c-2 18.667 -8.33301 31.667 -19 39s-25.667 11 -45 11zM498 62l-188 474l-182 -474h370z" />
    <glyph glyph-name="Adieresis" unicode="&#x414;" horiz-adv-x="662" 
d="M548 0h-448c-19.333 -0 -34 -3.66699 -44 -11s-16 -20.333 -18 -39h-24v112h46l232 572h58l236 -572h50v-112h-24c-2 18.667 -8.33301 31.667 -19 39s-25.667 11 -45 11zM498 62l-188 474l-182 -474h370z" />
    <glyph glyph-name="Aring" unicode="&#xc5;" horiz-adv-x="574" 
d="M0 0l58 0.000976562v28c12.667 2 21.5 5.5 26.5 10.5s7.5 13.5 7.5 25.5v508c0 11.333 -2.66699 19.666 -8 24.999s-14 9 -26 11v26h470v-106h-24c-2 20 -8.66699 33 -20 39s-27.333 9 -48 9h-262v-188h226c13.333 0 23.833 2.33301 31.5 7s12.5 13 14.5 25h24v-122h-24
c-2 12.667 -6.66699 21.167 -14 25.5s-18 6.5 -32 6.5h-226v-268h288c21.333 0 37.333 4.16699 48 12.5s16 22.833 16 43.5h26v-118h-552z" />
    <glyph glyph-name="Aring" unicode="&#x415;" horiz-adv-x="574" 
d="M0 0l58 0.000976562v28c12.667 2 21.5 5.5 26.5 10.5s7.5 13.5 7.5 25.5v508c0 11.333 -2.66699 19.666 -8 24.999s-14 9 -26 11v26h470v-106h-24c-2 20 -8.66699 33 -20 39s-27.333 9 -48 9h-262v-188h226c13.333 0 23.833 2.33301 31.5 7s12.5 13 14.5 25h24v-122h-24
c-2 12.667 -6.66699 21.167 -14 25.5s-18 6.5 -32 6.5h-226v-268h288c21.333 0 37.333 4.16699 48 12.5s16 22.833 16 43.5h26v-118h-552z" />
    <glyph glyph-name="AE" unicode="&#xc6;" horiz-adv-x="950" 
d="M610 384l-90.002 -76v-244c0 -22 10.667 -34 32 -36v-28h-146v28c21.333 2 32 12.667 32 32v248l-90 76l-186 -330l-6 -12c0 -4.66699 2.66699 -8.16699 8 -10.5s12 -3.5 20 -3.5v-28h-152v28c8.66699 2 16 5.33301 22 10s12 11.334 18 20.001l214 380l-174 152
c-6.66699 6 -14.167 10.167 -22.5 12.5s-18.166 4.16602 -29.499 5.49902v26h176v-26c-5.33301 0 -11.666 -1.16699 -18.999 -3.5s-11 -5.16602 -11 -8.49902c0.666992 -1.33301 1.33398 -2.83301 2.00098 -4.5s2 -3.5 4 -5.5l226 -200v188c0 11.333 -2.33301 19.333 -7 24
s-13 8 -25 10v26h146v-26c-11.333 -2 -19.5 -5.5 -24.5 -10.5s-7.5 -13.5 -7.5 -25.5v-186l226 200c2 2 3.33301 3.83301 4 5.5s1.33398 3.16699 2.00098 4.5c0 3.33301 -3.33301 6.16602 -10 8.49902s-13.334 3.5 -20.001 3.5v26h176v-26
c-7.33301 -0.666992 -15.333 -1.66699 -24 -3s-17.334 -6.33301 -26.001 -15l-176 -152l216 -380c4.66699 -8 9.83398 -14.5 15.501 -19.5s13.167 -8.5 22.5 -10.5v-28h-152v28c6.66699 0 12.667 1.16699 18 3.5s8 5.83301 8 10.5
c-0.666992 6.66699 -1.33398 10.667 -2.00098 12z" />
    <glyph glyph-name="AE" unicode="&#x416;" horiz-adv-x="950" 
d="M610 384l-90.002 -76v-244c0 -22 10.667 -34 32 -36v-28h-146v28c21.333 2 32 12.667 32 32v248l-90 76l-186 -330l-6 -12c0 -4.66699 2.66699 -8.16699 8 -10.5s12 -3.5 20 -3.5v-28h-152v28c8.66699 2 16 5.33301 22 10s12 11.334 18 20.001l214 380l-174 152
c-6.66699 6 -14.167 10.167 -22.5 12.5s-18.166 4.16602 -29.499 5.49902v26h176v-26c-5.33301 0 -11.666 -1.16699 -18.999 -3.5s-11 -5.16602 -11 -8.49902c0.666992 -1.33301 1.33398 -2.83301 2.00098 -4.5s2 -3.5 4 -5.5l226 -200v188c0 11.333 -2.33301 19.333 -7 24
s-13 8 -25 10v26h146v-26c-11.333 -2 -19.5 -5.5 -24.5 -10.5s-7.5 -13.5 -7.5 -25.5v-186l226 200c2 2 3.33301 3.83301 4 5.5s1.33398 3.16699 2.00098 4.5c0 3.33301 -3.33301 6.16602 -10 8.49902s-13.334 3.5 -20.001 3.5v26h176v-26
c-7.33301 -0.666992 -15.333 -1.66699 -24 -3s-17.334 -6.33301 -26.001 -15l-176 -152l216 -380c4.66699 -8 9.83398 -14.5 15.501 -19.5s13.167 -8.5 22.5 -10.5v-28h-152v28c6.66699 0 12.667 1.16699 18 3.5s8 5.83301 8 10.5
c-0.666992 6.66699 -1.33398 10.667 -2.00098 12z" />
    <glyph glyph-name="Ccedilla" unicode="&#xc7;" horiz-adv-x="574" 
d="M252 -12l-52.001 0.000976562c-40 0 -80 2 -120 6v116h26c4 -26.667 17.667 -44.334 41 -53.001c16 -6 46.333 -9 91 -9c68 0 123.667 14.333 167 43c46 30.667 69 71 69 121c0 36 -14.167 64.667 -42.5 86s-62.166 32 -101.499 32h-58v58h44c36 0 64.667 10.667 86 32
s32 47.333 32 78c0 35.333 -14.333 61 -43 77c-22.667 12.667 -52.334 19 -89.001 19c-35.333 0 -69.833 -7.66699 -103.5 -23s-50.5 -33.666 -50.5 -54.999c0 -4 2.66699 -11.333 8 -22l-20 -20l-82 80c26.667 23.333 55.667 42.333 87 57c50.667 23.333 105 35 163 35
c60 0 109.667 -13.5 149 -40.5s59 -58.833 59 -95.5c0 -30 -6.66699 -56.667 -20 -80c-15.333 -26.667 -38.666 -46.667 -69.999 -60c30.667 -8.66699 57.667 -24.334 81 -47.001c32.667 -32 49 -71 49 -117c0 -63.333 -30 -116 -90 -158c-57.333 -40 -127.333 -60 -210 -60
z" />
    <glyph glyph-name="Ccedilla" unicode="&#x417;" horiz-adv-x="574" 
d="M252 -12l-52.001 0.000976562c-40 0 -80 2 -120 6v116h26c4 -26.667 17.667 -44.334 41 -53.001c16 -6 46.333 -9 91 -9c68 0 123.667 14.333 167 43c46 30.667 69 71 69 121c0 36 -14.167 64.667 -42.5 86s-62.166 32 -101.499 32h-58v58h44c36 0 64.667 10.667 86 32
s32 47.333 32 78c0 35.333 -14.333 61 -43 77c-22.667 12.667 -52.334 19 -89.001 19c-35.333 0 -69.833 -7.66699 -103.5 -23s-50.5 -33.666 -50.5 -54.999c0 -4 2.66699 -11.333 8 -22l-20 -20l-82 80c26.667 23.333 55.667 42.333 87 57c50.667 23.333 105 35 163 35
c60 0 109.667 -13.5 149 -40.5s59 -58.833 59 -95.5c0 -30 -6.66699 -56.667 -20 -80c-15.333 -26.667 -38.666 -46.667 -69.999 -60c30.667 -8.66699 57.667 -24.334 81 -47.001c32.667 -32 49 -71 49 -117c0 -63.333 -30 -116 -90 -158c-57.333 -40 -127.333 -60 -210 -60
z" />
    <glyph glyph-name="Egrave" unicode="&#xc8;" horiz-adv-x="662" 
d="M174 64c0 -11.333 2.33301 -19.668 7 -25.001s13 -9 25 -11v-28h-146v28c12.667 2 21.167 5.5 25.5 10.5s6.5 13.5 6.5 25.5v508c0 11.333 -2.33301 19.666 -7 24.999s-13 9 -25 11v26h146v-26c-12.667 -2 -21.167 -5.5 -25.5 -10.5s-6.5 -13.5 -6.5 -25.5v-350l352 304
v46c0 12 -2.5 20.5 -7.5 25.5s-13.833 8.5 -26.5 10.5v26h148v-26c-14 -2 -23.167 -5.16699 -27.5 -9.5s-6.5 -13.166 -6.5 -26.499v-508c0 -11.333 2.66699 -19.666 8 -24.999s14 -9 26 -11v-28h-148v28c12.667 2 21.5 5.5 26.5 10.5s7.5 13.5 7.5 25.5v376l-352 -302v-74z
" />
    <glyph glyph-name="Egrave" unicode="&#x418;" horiz-adv-x="662" 
d="M174 64c0 -11.333 2.33301 -19.668 7 -25.001s13 -9 25 -11v-28h-146v28c12.667 2 21.167 5.5 25.5 10.5s6.5 13.5 6.5 25.5v508c0 11.333 -2.33301 19.666 -7 24.999s-13 9 -25 11v26h146v-26c-12.667 -2 -21.167 -5.5 -25.5 -10.5s-6.5 -13.5 -6.5 -25.5v-350l352 304
v46c0 12 -2.5 20.5 -7.5 25.5s-13.833 8.5 -26.5 10.5v26h148v-26c-14 -2 -23.167 -5.16699 -27.5 -9.5s-6.5 -13.166 -6.5 -26.499v-508c0 -11.333 2.66699 -19.666 8 -24.999s14 -9 26 -11v-28h-148v28c12.667 2 21.5 5.5 26.5 10.5s7.5 13.5 7.5 25.5v376l-352 -302v-74z
" />
    <glyph glyph-name="Eacute" unicode="&#xc9;" horiz-adv-x="662" 
d="M248 656l34.002 75.9971l24 -4c0 -12 4.66699 -22.333 14 -31s20.666 -13 33.999 -13c2.66699 0 6.16699 0.833008 10.5 2.5s7.5 2.83398 9.5 3.50098c13.333 5.33301 24.166 12.5 32.499 21.5s15.5 20.5 21.5 34.5l38 -16
c-3.33301 -11.333 -9.33301 -23.666 -18 -36.999s-18 -23.666 -28 -30.999c-26.667 -20 -56.667 -30 -90 -30c-26.667 0 -54 8 -82 24zM174.002 63.9971c0 -11.333 2.33301 -19.668 7 -25.001s13 -9 25 -11v-28h-146v28c12.667 2 21.167 5.5 25.5 10.5s6.5 13.5 6.5 25.5
v508c0 11.333 -2.33301 19.666 -7 24.999s-13 9 -25 11v26h146v-26c-12.667 -2 -21.167 -5.5 -25.5 -10.5s-6.5 -13.5 -6.5 -25.5v-350l352 304v46c0 12 -2.5 20.5 -7.5 25.5s-13.833 8.5 -26.5 10.5v26h148v-26c-14 -2 -23.167 -5.16699 -27.5 -9.5
s-6.5 -13.166 -6.5 -26.499v-508c0 -11.333 2.66699 -19.666 8 -24.999s14 -9 26 -11v-28h-148v28c12.667 2 21.5 5.5 26.5 10.5s7.5 13.5 7.5 25.5v376l-352 -302v-74z" />
    <glyph glyph-name="Eacute" unicode="&#x419;" horiz-adv-x="662" 
d="M248 656l34.002 75.9971l24 -4c0 -12 4.66699 -22.333 14 -31s20.666 -13 33.999 -13c2.66699 0 6.16699 0.833008 10.5 2.5s7.5 2.83398 9.5 3.50098c13.333 5.33301 24.166 12.5 32.499 21.5s15.5 20.5 21.5 34.5l38 -16
c-3.33301 -11.333 -9.33301 -23.666 -18 -36.999s-18 -23.666 -28 -30.999c-26.667 -20 -56.667 -30 -90 -30c-26.667 0 -54 8 -82 24zM174.002 63.9971c0 -11.333 2.33301 -19.668 7 -25.001s13 -9 25 -11v-28h-146v28c12.667 2 21.167 5.5 25.5 10.5s6.5 13.5 6.5 25.5
v508c0 11.333 -2.33301 19.666 -7 24.999s-13 9 -25 11v26h146v-26c-12.667 -2 -21.167 -5.5 -25.5 -10.5s-6.5 -13.5 -6.5 -25.5v-350l352 304v46c0 12 -2.5 20.5 -7.5 25.5s-13.833 8.5 -26.5 10.5v26h148v-26c-14 -2 -23.167 -5.16699 -27.5 -9.5
s-6.5 -13.166 -6.5 -26.499v-508c0 -11.333 2.66699 -19.666 8 -24.999s14 -9 26 -11v-28h-148v28c12.667 2 21.5 5.5 26.5 10.5s7.5 13.5 7.5 25.5v376l-352 -302v-74z" />
    <glyph glyph-name="Ecircumflex" unicode="&#xca;" horiz-adv-x="634" 
d="M0 0l60 0.00195312v28c12.667 2 21.167 5.16699 25.5 9.5s6.5 13.166 6.5 26.499v508c0 12 -2.33301 20.5 -7 25.5s-13 8.5 -25 10.5v26h146v-26c-12.667 -2 -21.167 -5.5 -25.5 -10.5s-6.5 -13.5 -6.5 -25.5v-208l256 222c2 2 3.33301 3.83301 4 5.5
s1.33398 3.16699 2.00098 4.5c0 3.33301 -3.33301 6.16602 -10 8.49902s-13.334 3.5 -20.001 3.5v26h176v-26c-7.33301 -0.666992 -15.333 -1.66699 -24 -3s-17.334 -6.33301 -26.001 -15l-176 -152l216 -380c4.66699 -8 9.83398 -14.5 15.501 -19.5s13.167 -8.5 22.5 -10.5
v-28h-152v28c6 0 10.333 0.333008 13 1c10 2.66699 15 7 15 13l-4 12l-188 330l-120 -104v-216c0 -22 10.667 -34 32 -36v-28h-206z" />
    <glyph glyph-name="Ecircumflex" unicode="&#x41a;" horiz-adv-x="634" 
d="M0 0l60 0.00195312v28c12.667 2 21.167 5.16699 25.5 9.5s6.5 13.166 6.5 26.499v508c0 12 -2.33301 20.5 -7 25.5s-13 8.5 -25 10.5v26h146v-26c-12.667 -2 -21.167 -5.5 -25.5 -10.5s-6.5 -13.5 -6.5 -25.5v-208l256 222c2 2 3.33301 3.83301 4 5.5
s1.33398 3.16699 2.00098 4.5c0 3.33301 -3.33301 6.16602 -10 8.49902s-13.334 3.5 -20.001 3.5v26h176v-26c-7.33301 -0.666992 -15.333 -1.66699 -24 -3s-17.334 -6.33301 -26.001 -15l-176 -152l216 -380c4.66699 -8 9.83398 -14.5 15.501 -19.5s13.167 -8.5 22.5 -10.5
v-28h-152v28c6 0 10.333 0.333008 13 1c10 2.66699 15 7 15 13l-4 12l-188 330l-120 -104v-216c0 -22 10.667 -34 32 -36v-28h-206z" />
    <glyph glyph-name="Edieresis" unicode="&#xcb;" horiz-adv-x="614" 
d="M106 60l-2.00098 -9.99707c0 -12 8.66699 -19.333 26 -22v-28h-116v28c5.33301 1.33301 10.5 4.66602 15.5 9.99902s9.83301 14.666 14.5 27.999l230 568h58l236 -578c2.66699 -6 5.5 -12 8.5 -18s8.16699 -9.33301 15.5 -10v-28h-130v28
c6.66699 1.33301 12.334 3.16602 17.001 5.49902s7 5.83301 7 10.5l-2 10l-194 482z" />
    <glyph glyph-name="Edieresis" unicode="&#x41b;" horiz-adv-x="614" 
d="M106 60l-2.00098 -9.99707c0 -12 8.66699 -19.333 26 -22v-28h-116v28c5.33301 1.33301 10.5 4.66602 15.5 9.99902s9.83301 14.666 14.5 27.999l230 568h58l236 -578c2.66699 -6 5.5 -12 8.5 -18s8.16699 -9.33301 15.5 -10v-28h-130v28
c6.66699 1.33301 12.334 3.16602 17.001 5.49902s7 5.83301 7 10.5l-2 10l-194 482z" />
    <glyph glyph-name="Igrave" unicode="&#xcc;" horiz-adv-x="742" 
d="M136 0h-120v28c11.333 2.66699 19 6.5 23 11.5s6.33301 11.167 7 18.5l94 520v6c0 14 -7.33301 22 -22 24v26h106l146 -360l138 360h110v-26c-16 -2 -24 -10.667 -24 -26l2 -14l88 -510c2 -10 5 -17 9 -21s11 -7 21 -9v-28h-136v28c17.333 2 26 9.33301 26 22v8l-80 462
l-142 -372h-40l-148 368l-84 -458v-8c0 -14.667 8.66699 -22 26 -22v-28z" />
    <glyph glyph-name="Igrave" unicode="&#x41c;" horiz-adv-x="742" 
d="M136 0h-120v28c11.333 2.66699 19 6.5 23 11.5s6.33301 11.167 7 18.5l94 520v6c0 14 -7.33301 22 -22 24v26h106l146 -360l138 360h110v-26c-16 -2 -24 -10.667 -24 -26l2 -14l88 -510c2 -10 5 -17 9 -21s11 -7 21 -9v-28h-136v28c17.333 2 26 9.33301 26 22v8l-80 462
l-142 -372h-40l-148 368l-84 -458v-8c0 -14.667 8.66699 -22 26 -22v-28z" />
    <glyph glyph-name="Iacute" unicode="&#xcd;" horiz-adv-x="662" 
d="M174 64c0 -11.333 2.33301 -19.668 7 -25.001s13 -9 25 -11v-28h-146v28c12.667 2 21.167 5.5 25.5 10.5s6.5 13.5 6.5 25.5v508c0 11.333 -2.33301 19.666 -7 24.999s-13 9 -25 11v26h146v-26c-12.667 -2 -21.167 -5.5 -25.5 -10.5s-6.5 -13.5 -6.5 -25.5v-186h352v186
c0 12 -2.5 20.5 -7.5 25.5s-13.833 8.5 -26.5 10.5v26h148v-26c-14 -2 -23.167 -5.16699 -27.5 -9.5s-6.5 -13.166 -6.5 -26.499v-508c0 -11.333 2.66699 -19.666 8 -24.999s14 -9 26 -11v-28h-148v28c12.667 2 21.5 5.5 26.5 10.5s7.5 13.5 7.5 25.5v264h-352v-264z" />
    <glyph glyph-name="Iacute" unicode="&#x41d;" horiz-adv-x="662" 
d="M174 64c0 -11.333 2.33301 -19.668 7 -25.001s13 -9 25 -11v-28h-146v28c12.667 2 21.167 5.5 25.5 10.5s6.5 13.5 6.5 25.5v508c0 11.333 -2.33301 19.666 -7 24.999s-13 9 -25 11v26h146v-26c-12.667 -2 -21.167 -5.5 -25.5 -10.5s-6.5 -13.5 -6.5 -25.5v-186h352v186
c0 12 -2.5 20.5 -7.5 25.5s-13.833 8.5 -26.5 10.5v26h148v-26c-14 -2 -23.167 -5.16699 -27.5 -9.5s-6.5 -13.166 -6.5 -26.499v-508c0 -11.333 2.66699 -19.666 8 -24.999s14 -9 26 -11v-28h-148v28c12.667 2 21.5 5.5 26.5 10.5s7.5 13.5 7.5 25.5v264h-352v-264z" />
    <glyph glyph-name="Icircumflex" unicode="&#xce;" horiz-adv-x="722" 
d="M52 316c0 104 33.333 186.667 100 248c60.667 56 134.667 84 222 84s161 -27.667 221 -83c67.333 -62 101 -145 101 -249c0 -97.333 -29.5 -177 -88.5 -239s-136.833 -93 -233.5 -93c-95.333 0 -172.833 31.167 -232.5 93.5s-89.5 141.833 -89.5 238.5zM370 588
c-70.667 0 -126.999 -26.334 -168.999 -79.001c-39.333 -49.333 -59 -113.666 -59 -192.999c0 -78 18.667 -141.333 56 -190c42 -54.667 100.667 -82 176 -82c74.667 0 133 27 175 81c38 49.333 57 113 57 191c0 70 -17 129.667 -51 179c-42.667 62 -104.334 93 -185.001 93
z" />
    <glyph glyph-name="Icircumflex" unicode="&#x41e;" horiz-adv-x="722" 
d="M52 316c0 104 33.333 186.667 100 248c60.667 56 134.667 84 222 84s161 -27.667 221 -83c67.333 -62 101 -145 101 -249c0 -97.333 -29.5 -177 -88.5 -239s-136.833 -93 -233.5 -93c-95.333 0 -172.833 31.167 -232.5 93.5s-89.5 141.833 -89.5 238.5zM370 588
c-70.667 0 -126.999 -26.334 -168.999 -79.001c-39.333 -49.333 -59 -113.666 -59 -192.999c0 -78 18.667 -141.333 56 -190c42 -54.667 100.667 -82 176 -82c74.667 0 133 27 175 81c38 49.333 57 113 57 191c0 70 -17 129.667 -51 179c-42.667 62 -104.334 93 -185.001 93
z" />
    <glyph glyph-name="Idieresis" unicode="&#xcf;" horiz-adv-x="662" 
d="M174 64c0 -11.333 2.33301 -19.668 7 -25.001s13 -9 25 -11v-28h-146v28c12.667 2 21.167 5.5 25.5 10.5s6.5 13.5 6.5 25.5v508c0 11.333 -2.33301 19.666 -7 24.999s-13 9 -25 11v26h580v-26c-14 -2 -23.167 -5.16699 -27.5 -9.5s-6.5 -13.166 -6.5 -26.499v-508
c0 -11.333 2.66699 -19.666 8 -24.999s14 -9 26 -11v-28h-148v28c12.667 2 21.5 5.5 26.5 10.5s7.5 13.5 7.5 25.5v512h-352v-512z" />
    <glyph glyph-name="Idieresis" unicode="&#x41f;" horiz-adv-x="662" 
d="M174 64c0 -11.333 2.33301 -19.668 7 -25.001s13 -9 25 -11v-28h-146v28c12.667 2 21.167 5.5 25.5 10.5s6.5 13.5 6.5 25.5v508c0 11.333 -2.33301 19.666 -7 24.999s-13 9 -25 11v26h580v-26c-14 -2 -23.167 -5.16699 -27.5 -9.5s-6.5 -13.166 -6.5 -26.499v-508
c0 -11.333 2.66699 -19.666 8 -24.999s14 -9 26 -11v-28h-148v28c12.667 2 21.5 5.5 26.5 10.5s7.5 13.5 7.5 25.5v512h-352v-512z" />
    <glyph glyph-name="Eth" unicode="&#xd0;" horiz-adv-x="534" 
d="M174 260c66.667 26 106.002 42.002 118.002 48.002c46 22 81.333 46 106 72c20 22 30 49.333 30 82c0 12 -0.5 20.833 -1.5 26.5s-3.16699 11.5 -6.5 17.5c-6.66699 19.333 -18.334 34.666 -35.001 45.999s-36.334 18.666 -59.001 21.999c-10 0 -25.333 0.666992 -46 2
s-36 2 -46 2h-60v-318zM206.002 0.00195312h-146v28c12.667 2 21.167 5.5 25.5 10.5s6.5 13.5 6.5 25.5v508c0 11.333 -2.33301 19.666 -7 24.999s-13 9 -25 11v26h232c32.667 0 58.167 -1.5 76.5 -4.5s34.833 -7.5 49.5 -13.5c55.333 -24.667 87.333 -66.667 96 -126v-24
c0 -69.333 -41.333 -129 -124 -179c-34 -20.667 -106 -51.667 -216 -93v-130c0 -11.333 2.33301 -19.666 7 -24.999s13 -9 25 -11v-28z" />
    <glyph glyph-name="Eth" unicode="&#x420;" horiz-adv-x="534" 
d="M174 260c66.667 26 106.002 42.002 118.002 48.002c46 22 81.333 46 106 72c20 22 30 49.333 30 82c0 12 -0.5 20.833 -1.5 26.5s-3.16699 11.5 -6.5 17.5c-6.66699 19.333 -18.334 34.666 -35.001 45.999s-36.334 18.666 -59.001 21.999c-10 0 -25.333 0.666992 -46 2
s-36 2 -46 2h-60v-318zM206.002 0.00195312h-146v28c12.667 2 21.167 5.5 25.5 10.5s6.5 13.5 6.5 25.5v508c0 11.333 -2.33301 19.666 -7 24.999s-13 9 -25 11v26h232c32.667 0 58.167 -1.5 76.5 -4.5s34.833 -7.5 49.5 -13.5c55.333 -24.667 87.333 -66.667 96 -126v-24
c0 -69.333 -41.333 -129 -124 -179c-34 -20.667 -106 -51.667 -216 -93v-130c0 -11.333 2.33301 -19.666 7 -24.999s13 -9 25 -11v-28z" />
    <glyph glyph-name="Ntilde" unicode="&#xd1;" horiz-adv-x="634" 
d="M576 -6c-14.667 -1.33301 -35.834 -3.00098 -63.501 -5.00098s-49.167 -3 -64.5 -3c-29.333 0 -55.833 1.83301 -79.5 5.5s-47.167 10.5 -70.5 20.5c-71.333 26.667 -129.333 70.334 -174 131.001c-46.667 63.333 -70 132.333 -70 207c0 69.333 21 130.333 63 183
s97 87 165 103c12.667 2.66699 28.167 5 46.5 7s34.833 3 49.5 3c22.667 0 43.167 -1.5 61.5 -4.5s37.833 -8.16699 58.5 -15.5c36.667 -16 73.334 -40 110.001 -72l-82 -80l-20 20c1.33301 2.66699 3 6.66699 5 12s3 9.33301 3 12c0 18.667 -14 35 -42 49
s-60.667 21 -98 21c-60.667 0 -112.334 -17.333 -155.001 -52c-51.333 -42 -77 -102 -77 -180c0 -92.667 36 -169.667 108 -231c62 -52.667 128 -79 198 -79c28 0 51.333 5.5 70 16.5s29.334 26.833 32.001 47.5h26v-116z" />
    <glyph glyph-name="Ntilde" unicode="&#x421;" horiz-adv-x="634" 
d="M576 -6c-14.667 -1.33301 -35.834 -3.00098 -63.501 -5.00098s-49.167 -3 -64.5 -3c-29.333 0 -55.833 1.83301 -79.5 5.5s-47.167 10.5 -70.5 20.5c-71.333 26.667 -129.333 70.334 -174 131.001c-46.667 63.333 -70 132.333 -70 207c0 69.333 21 130.333 63 183
s97 87 165 103c12.667 2.66699 28.167 5 46.5 7s34.833 3 49.5 3c22.667 0 43.167 -1.5 61.5 -4.5s37.833 -8.16699 58.5 -15.5c36.667 -16 73.334 -40 110.001 -72l-82 -80l-20 20c1.33301 2.66699 3 6.66699 5 12s3 9.33301 3 12c0 18.667 -14 35 -42 49
s-60.667 21 -98 21c-60.667 0 -112.334 -17.333 -155.001 -52c-51.333 -42 -77 -102 -77 -180c0 -92.667 36 -169.667 108 -231c62 -52.667 128 -79 198 -79c28 0 51.333 5.5 70 16.5s29.334 26.833 32.001 47.5h26v-116z" />
    <glyph glyph-name="Ograve" unicode="&#xd2;" horiz-adv-x="584" 
d="M216 0l-0.00195312 27.998c14.667 0 24.334 2.33301 29.001 7s7 14.334 7 29.001v512h-138c-19.333 0 -34.166 -3.33301 -44.499 -10s-15.5 -19.334 -15.5 -38.001h-26v106h534v-106h-26c-2 18.667 -7.66699 31.334 -17 38.001s-23.666 10 -42.999 10h-140v-512
c0 -13.333 2.66699 -22.666 8 -27.999s14.666 -8 27.999 -8v-28h-156z" />
    <glyph glyph-name="Ograve" unicode="&#x422;" horiz-adv-x="584" 
d="M216 0l-0.00195312 27.998c14.667 0 24.334 2.33301 29.001 7s7 14.334 7 29.001v512h-138c-19.333 0 -34.166 -3.33301 -44.499 -10s-15.5 -19.334 -15.5 -38.001h-26v106h534v-106h-26c-2 18.667 -7.66699 31.334 -17 38.001s-23.666 10 -42.999 10h-140v-512
c0 -13.333 2.66699 -22.666 8 -27.999s14.666 -8 27.999 -8v-28h-156z" />
    <glyph glyph-name="Oacute" unicode="&#xd3;" horiz-adv-x="614" 
d="M204 70c11.333 0 20.1689 3.00098 26.502 9.00098s15.5 19.667 27.5 41l18 38l-200 420c-4.66699 10 -14.334 18 -29.001 24c-8 3.33301 -15.667 5.33301 -23 6v26h172v-26c-6.66699 -0.666992 -13.334 -2.16699 -20.001 -4.5s-10 -7.5 -10 -15.5l2 -10l148 -332l142 316
l2 8c0 8.66699 -5.5 17.167 -16.5 25.5s-20.833 12.5 -29.5 12.5v26h174v-26c-14.667 -2.66699 -27.5 -6.5 -38.5 -11.5s-18.833 -12.5 -23.5 -22.5l-218 -480c-15.333 -32 -29.333 -55 -42 -69c-17.333 -19.333 -36.666 -29 -57.999 -29
c-11.333 0 -23.666 1.66699 -36.999 5s-24.333 7.66602 -33 12.999l-6 68l22 10c7.33301 -7.33301 14.666 -12.833 21.999 -16.5s16.666 -5.5 27.999 -5.5z" />
    <glyph glyph-name="Oacute" unicode="&#x423;" horiz-adv-x="614" 
d="M204 70c11.333 0 20.1689 3.00098 26.502 9.00098s15.5 19.667 27.5 41l18 38l-200 420c-4.66699 10 -14.334 18 -29.001 24c-8 3.33301 -15.667 5.33301 -23 6v26h172v-26c-6.66699 -0.666992 -13.334 -2.16699 -20.001 -4.5s-10 -7.5 -10 -15.5l2 -10l148 -332l142 316
l2 8c0 8.66699 -5.5 17.167 -16.5 25.5s-20.833 12.5 -29.5 12.5v26h174v-26c-14.667 -2.66699 -27.5 -6.5 -38.5 -11.5s-18.833 -12.5 -23.5 -22.5l-218 -480c-15.333 -32 -29.333 -55 -42 -69c-17.333 -19.333 -36.666 -29 -57.999 -29
c-11.333 0 -23.666 1.66699 -36.999 5s-24.333 7.66602 -33 12.999l-6 68l22 10c7.33301 -7.33301 14.666 -12.833 21.999 -16.5s16.666 -5.5 27.999 -5.5z" />
    <glyph glyph-name="Ocircumflex" unicode="&#xd4;" horiz-adv-x="712" 
d="M442 0h-146v28c22.667 4 34 18 34 42c-86 0 -156.333 31 -211 93c-47.333 54 -71 114.333 -71 181c0 64.667 19 115 57 151c47.333 44.667 122.333 67 225 67c0 26.667 -11.333 42 -34 46v26h146v-26c-22.667 -4 -34 -19.333 -34 -46c102 0 176.667 -22.333 224 -67
c38.667 -36.667 58 -87 58 -151c0 -66 -23.667 -126 -71 -180c-54.667 -62.667 -125 -94 -211 -94c0 -24 11.333 -38 34 -42v-28zM618 342c0 58 -20 99.667 -60 125c-34.667 22 -84 33 -148 33v-368c50 0 95.667 17.667 137 53c47.333 40.667 71 93 71 157zM120 342
c0 -64 23.667 -116.333 71 -157c41.333 -35.333 87 -53 137 -53v368c-64.667 0 -113.667 -10.667 -147 -32c-40.667 -26 -61 -68 -61 -126z" />
    <glyph glyph-name="Ocircumflex" unicode="&#x424;" horiz-adv-x="712" 
d="M442 0h-146v28c22.667 4 34 18 34 42c-86 0 -156.333 31 -211 93c-47.333 54 -71 114.333 -71 181c0 64.667 19 115 57 151c47.333 44.667 122.333 67 225 67c0 26.667 -11.333 42 -34 46v26h146v-26c-22.667 -4 -34 -19.333 -34 -46c102 0 176.667 -22.333 224 -67
c38.667 -36.667 58 -87 58 -151c0 -66 -23.667 -126 -71 -180c-54.667 -62.667 -125 -94 -211 -94c0 -24 11.333 -38 34 -42v-28zM618 342c0 58 -20 99.667 -60 125c-34.667 22 -84 33 -148 33v-368c50 0 95.667 17.667 137 53c47.333 40.667 71 93 71 157zM120 342
c0 -64 23.667 -116.333 71 -157c41.333 -35.333 87 -53 137 -53v368c-64.667 0 -113.667 -10.667 -147 -32c-40.667 -26 -61 -68 -61 -126z" />
    <glyph glyph-name="Otilde" unicode="&#xd5;" horiz-adv-x="614" 
d="M172 0l-156.001 -0.00390625v28c10.667 0.666992 20.667 4.33398 30 11.001s17.333 15 24 25l188 272l-172 248c-4.66699 8.66699 -10 14.5 -16 17.5s-14.667 5.16699 -26 6.5v26h174v-26c-8.66699 -1.33301 -16.167 -3.66602 -22.5 -6.99902s-9.5 -7.66602 -9.5 -12.999
l6 -12l122 -178l122 176l4 14c0 13.333 -9.33301 20 -28 20v26h150v-26c-20 -3.33301 -36.667 -14.666 -50 -33.999l-160 -230l192 -280c9.33301 -11.333 14.333 -17.666 15 -18.999c10.667 -11.333 22.334 -17 35.001 -17v-28h-174v28c8.66699 2 15 3.66699 19 5
c8.66699 3.33301 13 7.66602 13 12.999c0 4 -1.33301 7.33301 -4 10l-154 224l-146 -218c-4 -6 -6 -11.333 -6 -16c0 -12 10 -18 30 -18v-28z" />
    <glyph glyph-name="Otilde" unicode="&#x425;" horiz-adv-x="614" 
d="M172 0l-156.001 -0.00390625v28c10.667 0.666992 20.667 4.33398 30 11.001s17.333 15 24 25l188 272l-172 248c-4.66699 8.66699 -10 14.5 -16 17.5s-14.667 5.16699 -26 6.5v26h174v-26c-8.66699 -1.33301 -16.167 -3.66602 -22.5 -6.99902s-9.5 -7.66602 -9.5 -12.999
l6 -12l122 -178l122 176l4 14c0 13.333 -9.33301 20 -28 20v26h150v-26c-20 -3.33301 -36.667 -14.666 -50 -33.999l-160 -230l192 -280c9.33301 -11.333 14.333 -17.666 15 -18.999c10.667 -11.333 22.334 -17 35.001 -17v-28h-174v28c8.66699 2 15 3.66699 19 5
c8.66699 3.33301 13 7.66602 13 12.999c0 4 -1.33301 7.33301 -4 10l-154 224l-146 -218c-4 -6 -6 -11.333 -6 -16c0 -12 10 -18 30 -18v-28z" />
    <glyph glyph-name="Odieresis" unicode="&#xd6;" horiz-adv-x="702" 
d="M592 0h-532v28c12.667 2 21.167 5.5 25.5 10.5s6.5 13.5 6.5 25.5v508c0 11.333 -2.33301 19.666 -7 24.999s-13 9 -25 11v26h146v-26c-12.667 -2 -21.167 -5.5 -25.5 -10.5s-6.5 -13.5 -6.5 -25.5v-510h352v510c0 12 -2.5 20.5 -7.5 25.5s-13.833 8.5 -26.5 10.5v26h148
v-26c-14 -2 -23.167 -5.16699 -27.5 -9.5s-6.5 -13.166 -6.5 -26.499v-510h74v-112h-26c0 18.667 -5.33301 31.667 -16 39s-26 11 -46 11z" />
    <glyph glyph-name="Odieresis" unicode="&#x426;" horiz-adv-x="702" 
d="M592 0h-532v28c12.667 2 21.167 5.5 25.5 10.5s6.5 13.5 6.5 25.5v508c0 11.333 -2.33301 19.666 -7 24.999s-13 9 -25 11v26h146v-26c-12.667 -2 -21.167 -5.5 -25.5 -10.5s-6.5 -13.5 -6.5 -25.5v-510h352v510c0 12 -2.5 20.5 -7.5 25.5s-13.833 8.5 -26.5 10.5v26h148
v-26c-14 -2 -23.167 -5.16699 -27.5 -9.5s-6.5 -13.166 -6.5 -26.499v-510h74v-112h-26c0 18.667 -5.33301 31.667 -16 39s-26 11 -46 11z" />
    <glyph glyph-name="multiply" unicode="&#xd7;" horiz-adv-x="634" 
d="M494 386l0.000976562 185.998c0 12.667 -2.16699 21.334 -6.5 26.001s-12.833 8 -25.5 10v26h146v-26c-12.667 -2 -21.167 -5.16699 -25.5 -9.5s-6.5 -13.166 -6.5 -26.499v-508c0 -11.333 2.33301 -19.666 7 -24.999s13 -9 25 -11v-28h-146v28
c12.667 2 21.167 5.5 25.5 10.5s6.5 13.5 6.5 25.5v264c-44 -28 -76 -46.333 -96 -55c-35.333 -15.333 -72.666 -23 -111.999 -23c-50.667 0 -92.334 9.66699 -125.001 29c-46 27.333 -69 70.333 -69 129v164c0 11.333 -2.33301 19.666 -7 24.999s-13 9 -25 11v26h146v-26
c-12.667 -2 -21.167 -5.5 -25.5 -10.5s-6.5 -13.5 -6.5 -25.5v-172c0 -28 11.167 -49.667 33.5 -65s50.5 -23 84.5 -23c34.667 0 67.667 6.33301 99 19c19.333 8 53.666 26.333 102.999 55z" />
    <glyph glyph-name="multiply" unicode="&#x427;" horiz-adv-x="634" 
d="M494 386l0.000976562 185.998c0 12.667 -2.16699 21.334 -6.5 26.001s-12.833 8 -25.5 10v26h146v-26c-12.667 -2 -21.167 -5.16699 -25.5 -9.5s-6.5 -13.166 -6.5 -26.499v-508c0 -11.333 2.33301 -19.666 7 -24.999s13 -9 25 -11v-28h-146v28
c12.667 2 21.167 5.5 25.5 10.5s6.5 13.5 6.5 25.5v264c-44 -28 -76 -46.333 -96 -55c-35.333 -15.333 -72.666 -23 -111.999 -23c-50.667 0 -92.334 9.66699 -125.001 29c-46 27.333 -69 70.333 -69 129v164c0 11.333 -2.33301 19.666 -7 24.999s-13 9 -25 11v26h146v-26
c-12.667 -2 -21.167 -5.5 -25.5 -10.5s-6.5 -13.5 -6.5 -25.5v-172c0 -28 11.167 -49.667 33.5 -65s50.5 -23 84.5 -23c34.667 0 67.667 6.33301 99 19c19.333 8 53.666 26.333 102.999 55z" />
    <glyph glyph-name="Oslash" unicode="&#xd8;" horiz-adv-x="822" 
d="M390 62v510.001c0 12 -2.33301 20.5 -7 25.5s-13 8.5 -25 10.5v26h146v-26c-12.667 -2 -21.167 -5.5 -25.5 -10.5s-6.5 -13.5 -6.5 -25.5v-510h216v510c0 11.333 -2.66699 19.666 -8 24.999s-14 9 -26 11v26h148v-26c-12.667 -2 -21.167 -5.5 -25.5 -10.5
s-6.5 -13.5 -6.5 -25.5v-508c0 -11.333 2.33301 -19.666 7 -24.999s13 -9 25 -11v-28h-742v28c12.667 2 21.167 5.5 25.5 10.5s6.5 13.5 6.5 25.5v508c0 11.333 -2.33301 19.666 -7 24.999s-13 9 -25 11v26h146v-26c-12.667 -2 -21.167 -5.5 -25.5 -10.5
s-6.5 -13.5 -6.5 -25.5v-510h216z" />
    <glyph glyph-name="Oslash" unicode="&#x428;" horiz-adv-x="822" 
d="M390 62v510.001c0 12 -2.33301 20.5 -7 25.5s-13 8.5 -25 10.5v26h146v-26c-12.667 -2 -21.167 -5.5 -25.5 -10.5s-6.5 -13.5 -6.5 -25.5v-510h216v510c0 11.333 -2.66699 19.666 -8 24.999s-14 9 -26 11v26h148v-26c-12.667 -2 -21.167 -5.5 -25.5 -10.5
s-6.5 -13.5 -6.5 -25.5v-508c0 -11.333 2.33301 -19.666 7 -24.999s13 -9 25 -11v-28h-742v28c12.667 2 21.167 5.5 25.5 10.5s6.5 13.5 6.5 25.5v508c0 11.333 -2.33301 19.666 -7 24.999s-13 9 -25 11v26h146v-26c-12.667 -2 -21.167 -5.5 -25.5 -10.5
s-6.5 -13.5 -6.5 -25.5v-510h216z" />
    <glyph glyph-name="Ugrave" unicode="&#xd9;" horiz-adv-x="862" 
d="M770 62l72 0.00195312v-112h-24c-2 18.667 -8.33301 31.667 -19 39s-25.667 11 -45 11h-694v28c12.667 2 21.167 5.5 25.5 10.5s6.5 13.5 6.5 25.5v508c0 11.333 -2.33301 19.666 -7 24.999s-13 9 -25 11v26h146v-26c-12.667 -2 -21.167 -5.5 -25.5 -10.5
s-6.5 -13.5 -6.5 -25.5v-510h216v510c0 12 -2.33301 20.5 -7 25.5s-13 8.5 -25 10.5v26h146v-26c-12.667 -2 -21.167 -5.5 -25.5 -10.5s-6.5 -13.5 -6.5 -25.5v-510h216v510c0 11.333 -2.66699 19.666 -8 24.999s-14 9 -26 11v26h148v-26
c-12.667 -2 -21.167 -5.5 -25.5 -10.5s-6.5 -13.5 -6.5 -25.5v-510z" />
    <glyph glyph-name="Ugrave" unicode="&#x429;" horiz-adv-x="862" 
d="M770 62l72 0.00195312v-112h-24c-2 18.667 -8.33301 31.667 -19 39s-25.667 11 -45 11h-694v28c12.667 2 21.167 5.5 25.5 10.5s6.5 13.5 6.5 25.5v508c0 11.333 -2.33301 19.666 -7 24.999s-13 9 -25 11v26h146v-26c-12.667 -2 -21.167 -5.5 -25.5 -10.5
s-6.5 -13.5 -6.5 -25.5v-510h216v510c0 12 -2.33301 20.5 -7 25.5s-13 8.5 -25 10.5v26h146v-26c-12.667 -2 -21.167 -5.5 -25.5 -10.5s-6.5 -13.5 -6.5 -25.5v-510h216v510c0 11.333 -2.66699 19.666 -8 24.999s-14 9 -26 11v26h148v-26
c-12.667 -2 -21.167 -5.5 -25.5 -10.5s-6.5 -13.5 -6.5 -25.5v-510z" />
    <glyph glyph-name="Uacute" unicode="&#xda;" horiz-adv-x="742" 
d="M222 576l-108 0.000976562c-19.333 0 -34.166 -3.33301 -44.499 -10s-15.5 -19.334 -15.5 -38.001h-26v106h308v-26c-12.667 -2 -21.167 -5.5 -25.5 -10.5s-6.5 -13.5 -6.5 -25.5v-188h168c58 0 110.333 -13 157 -39c60.667 -34 91 -81.667 91 -143
c0 -75.333 -35.667 -130.333 -107 -165c-50.667 -24.667 -112.334 -37 -185.001 -37h-238v28c21.333 2 32 12.667 32 32v516zM304 60.001h146c50 0 90.667 9.33301 122 28c38.667 23.333 58 58 58 104c0 43.333 -16.333 76.5 -49 99.5s-71.667 34.5 -117 34.5h-160v-266z
" />
    <glyph glyph-name="Uacute" unicode="&#x42a;" horiz-adv-x="742" 
d="M222 576l-108 0.000976562c-19.333 0 -34.166 -3.33301 -44.499 -10s-15.5 -19.334 -15.5 -38.001h-26v106h308v-26c-12.667 -2 -21.167 -5.5 -25.5 -10.5s-6.5 -13.5 -6.5 -25.5v-188h168c58 0 110.333 -13 157 -39c60.667 -34 91 -81.667 91 -143
c0 -75.333 -35.667 -130.333 -107 -165c-50.667 -24.667 -112.334 -37 -185.001 -37h-238v28c21.333 2 32 12.667 32 32v516zM304 60.001h146c50 0 90.667 9.33301 122 28c38.667 23.333 58 58 58 104c0 43.333 -16.333 76.5 -49 99.5s-71.667 34.5 -117 34.5h-160v-266z
" />
    <glyph glyph-name="Ucircumflex" unicode="&#xdb;" horiz-adv-x="782" 
d="M60 634h146v-26c-12.667 -2 -21.167 -5.5 -25.5 -10.5s-6.5 -13.5 -6.5 -25.5v-188h170c60.667 0 112 -11.667 154 -35c58.667 -32.667 88 -85 88 -157c0 -62.667 -27 -111 -81 -145c-50 -31.333 -118.333 -47 -205 -47h-240v28c21.333 2 32 12.667 32 32v514
c0 11.333 -2.16699 19.333 -6.5 24s-12.833 8 -25.5 10v26zM616 608v25.998h146v-26c-12.667 -2 -21.167 -5.16699 -25.5 -9.5s-6.5 -13.166 -6.5 -26.499v-508c0 -12 2.33301 -20.5 7 -25.5s13 -8.5 25 -10.5v-28h-146v28c12.667 2 21.167 5.5 25.5 10.5s6.5 13.5 6.5 25.5
v508c0 12.667 -2.16699 21.334 -6.5 26.001s-12.833 8 -25.5 10zM174 59.998h148c50.667 0 91.334 9 122.001 27c38.667 22.667 58 57.667 58 105c0 43.333 -16.333 76.5 -49 99.5s-72.334 34.5 -119.001 34.5h-160v-266z" />
    <glyph glyph-name="Ucircumflex" unicode="&#x42b;" horiz-adv-x="782" 
d="M60 634h146v-26c-12.667 -2 -21.167 -5.5 -25.5 -10.5s-6.5 -13.5 -6.5 -25.5v-188h170c60.667 0 112 -11.667 154 -35c58.667 -32.667 88 -85 88 -157c0 -62.667 -27 -111 -81 -145c-50 -31.333 -118.333 -47 -205 -47h-240v28c21.333 2 32 12.667 32 32v514
c0 11.333 -2.16699 19.333 -6.5 24s-12.833 8 -25.5 10v26zM616 608v25.998h146v-26c-12.667 -2 -21.167 -5.16699 -25.5 -9.5s-6.5 -13.166 -6.5 -26.499v-508c0 -12 2.33301 -20.5 7 -25.5s13 -8.5 25 -10.5v-28h-146v28c12.667 2 21.167 5.5 25.5 10.5s6.5 13.5 6.5 25.5
v508c0 12.667 -2.16699 21.334 -6.5 26.001s-12.833 8 -25.5 10zM174 59.998h148c50.667 0 91.334 9 122.001 27c38.667 22.667 58 57.667 58 105c0 43.333 -16.333 76.5 -49 99.5s-72.334 34.5 -119.001 34.5h-160v-266z" />
    <glyph glyph-name="Udieresis" unicode="&#xdc;" horiz-adv-x="614" 
d="M60 634h146v-26c-12.667 -2 -21.167 -5.5 -25.5 -10.5s-6.5 -13.5 -6.5 -25.5v-188h170c60.667 0 112 -11.667 154 -35c58.667 -32.667 88 -85 88 -157c0 -62.667 -27 -111 -81 -145c-50 -31.333 -118.333 -47 -205 -47h-240v28c21.333 2 32 12.667 32 32v514
c0 11.333 -2.16699 19.333 -6.5 24s-12.833 8 -25.5 10v26zM174 60h148c50.667 0 91.334 9 122.001 27c38.667 22.667 58 57.667 58 105c0 43.333 -16.333 76.5 -49 99.5s-72.334 34.5 -119.001 34.5h-160v-266z" />
    <glyph glyph-name="Udieresis" unicode="&#x42c;" horiz-adv-x="614" 
d="M60 634h146v-26c-12.667 -2 -21.167 -5.5 -25.5 -10.5s-6.5 -13.5 -6.5 -25.5v-188h170c60.667 0 112 -11.667 154 -35c58.667 -32.667 88 -85 88 -157c0 -62.667 -27 -111 -81 -145c-50 -31.333 -118.333 -47 -205 -47h-240v28c21.333 2 32 12.667 32 32v514
c0 11.333 -2.16699 19.333 -6.5 24s-12.833 8 -25.5 10v26zM174 60h148c50.667 0 91.334 9 122.001 27c38.667 22.667 58 57.667 58 105c0 43.333 -16.333 76.5 -49 99.5s-72.334 34.5 -119.001 34.5h-160v-266z" />
    <glyph glyph-name="Yacute" unicode="&#xdd;" horiz-adv-x="634" 
d="M366 12c-21.333 -8.66699 -45.6709 -15.166 -73.0039 -19.499s-54.333 -6.5 -81 -6.5c-23.333 0 -46.666 1 -69.999 3s-42 3.66699 -56 5v116h26c2.66699 -20.667 13.334 -36.5 32.001 -47.5s42 -16.5 70 -16.5c68 0 132.667 23.667 194 71c72 56 108 126.333 108 211
h-236v60h236c-6.66699 67.333 -34.334 119 -83.001 155c-41.333 30 -89.666 45 -144.999 45c-38.667 0 -71.667 -6.83301 -99 -20.5s-41 -30.167 -41 -49.5c0 -5.33301 2.66699 -13.333 8 -24l-20 -20l-82 80c34.667 30.667 71.334 54.667 110.001 72
c17.333 6.66699 36.5 11.667 57.5 15s41.833 5 62.5 5c30.667 0 62.667 -3.33301 96 -10c68.667 -16 123.834 -50.167 165.501 -102.5s62.5 -113.5 62.5 -183.5c0 -75.333 -22.5 -143.833 -67.5 -205.5s-103.167 -105.834 -174.5 -132.501z" />
    <glyph glyph-name="Yacute" unicode="&#x42d;" horiz-adv-x="634" 
d="M366 12c-21.333 -8.66699 -45.6709 -15.166 -73.0039 -19.499s-54.333 -6.5 -81 -6.5c-23.333 0 -46.666 1 -69.999 3s-42 3.66699 -56 5v116h26c2.66699 -20.667 13.334 -36.5 32.001 -47.5s42 -16.5 70 -16.5c68 0 132.667 23.667 194 71c72 56 108 126.333 108 211
h-236v60h236c-6.66699 67.333 -34.334 119 -83.001 155c-41.333 30 -89.666 45 -144.999 45c-38.667 0 -71.667 -6.83301 -99 -20.5s-41 -30.167 -41 -49.5c0 -5.33301 2.66699 -13.333 8 -24l-20 -20l-82 80c34.667 30.667 71.334 54.667 110.001 72
c17.333 6.66699 36.5 11.667 57.5 15s41.833 5 62.5 5c30.667 0 62.667 -3.33301 96 -10c68.667 -16 123.834 -50.167 165.501 -102.5s62.5 -113.5 62.5 -183.5c0 -75.333 -22.5 -143.833 -67.5 -205.5s-103.167 -105.834 -174.5 -132.501z" />
    <glyph glyph-name="Thorn" unicode="&#xde;" horiz-adv-x="842" 
d="M524 44c66.667 0 118.666 27 155.999 81c34.667 50 52 113.667 52 191c0 63.333 -13 119.333 -39 168c-30 55.333 -71 88.666 -123 99.999c-9.33301 0.666992 -18 1.5 -26 2.5s-16.667 1.5 -26 1.5c-63.333 0 -113.166 -25.667 -149.499 -77s-54.5 -116.333 -54.5 -195
c0 -77.333 17 -140.666 51 -189.999c38 -54.667 91 -82 159 -82zM173.999 386h63.999c12 82.667 46.667 147.667 104 195c52 43.333 112.667 65 182 65c78.667 0 145.334 -27.333 200.001 -82c61.333 -61.333 92 -144 92 -248c0 -96.667 -26.833 -176.167 -80.5 -238.5
s-124.167 -93.5 -211.5 -93.5s-157.833 31.167 -211.5 93.5s-80.5 141.833 -80.5 238.5v12h-58v-264c0 -11.333 2.33301 -19.666 7 -24.999s13 -9 25 -11v-28h-146v28c12.667 2 21.167 5.5 25.5 10.5s6.5 13.5 6.5 25.5v508c0 11.333 -2.33301 19.666 -7 24.999
s-13 9 -25 11v26h146v-26c-12.667 -2 -21.167 -5.5 -25.5 -10.5s-6.5 -13.5 -6.5 -25.5v-186z" />
    <glyph glyph-name="Thorn" unicode="&#x42e;" horiz-adv-x="842" 
d="M524 44c66.667 0 118.666 27 155.999 81c34.667 50 52 113.667 52 191c0 63.333 -13 119.333 -39 168c-30 55.333 -71 88.666 -123 99.999c-9.33301 0.666992 -18 1.5 -26 2.5s-16.667 1.5 -26 1.5c-63.333 0 -113.166 -25.667 -149.499 -77s-54.5 -116.333 -54.5 -195
c0 -77.333 17 -140.666 51 -189.999c38 -54.667 91 -82 159 -82zM173.999 386h63.999c12 82.667 46.667 147.667 104 195c52 43.333 112.667 65 182 65c78.667 0 145.334 -27.333 200.001 -82c61.333 -61.333 92 -144 92 -248c0 -96.667 -26.833 -176.167 -80.5 -238.5
s-124.167 -93.5 -211.5 -93.5s-157.833 31.167 -211.5 93.5s-80.5 141.833 -80.5 238.5v12h-58v-264c0 -11.333 2.33301 -19.666 7 -24.999s13 -9 25 -11v-28h-146v28c12.667 2 21.167 5.5 25.5 10.5s6.5 13.5 6.5 25.5v508c0 11.333 -2.33301 19.666 -7 24.999
s-13 9 -25 11v26h146v-26c-12.667 -2 -21.167 -5.5 -25.5 -10.5s-6.5 -13.5 -6.5 -25.5v-186z" />
    <glyph glyph-name="germandbls" unicode="&#xdf;" horiz-adv-x="564" 
d="M544 0l-145.998 -0.00195312v28c12.667 2 21.167 5.5 25.5 10.5s6.5 13.5 6.5 25.5v224h-80l-208 -288h-106v28c10 2 18.667 4.83301 26 8.5s14 8.83398 20 15.501l176 240c-58.667 6.66699 -103.334 22.334 -134.001 47.001c-37.333 30 -56 73 -56 129
c0 42 13.333 77.667 40 107c35.333 39.333 88.666 59 159.999 59h276v-26c-11.333 -2 -19.5 -5.5 -24.5 -10.5s-7.5 -13.5 -7.5 -25.5v-508c0 -12 2.33301 -20.5 7 -25.5s13 -8.5 25 -10.5v-28zM318.002 343.998h112.001v232h-134c-42.667 0 -76.334 -8 -101.001 -24
c-30 -19.333 -45 -49.333 -45 -90c0 -36 11 -63.667 33 -83c26.667 -23.333 71.667 -35 135 -35z" />
    <glyph glyph-name="germandbls" unicode="&#x42f;" horiz-adv-x="564" 
d="M544 0l-145.998 -0.00195312v28c12.667 2 21.167 5.5 25.5 10.5s6.5 13.5 6.5 25.5v224h-80l-208 -288h-106v28c10 2 18.667 4.83301 26 8.5s14 8.83398 20 15.501l176 240c-58.667 6.66699 -103.334 22.334 -134.001 47.001c-37.333 30 -56 73 -56 129
c0 42 13.333 77.667 40 107c35.333 39.333 88.666 59 159.999 59h276v-26c-11.333 -2 -19.5 -5.5 -24.5 -10.5s-7.5 -13.5 -7.5 -25.5v-508c0 -12 2.33301 -20.5 7 -25.5s13 -8.5 25 -10.5v-28zM318.002 343.998h112.001v232h-134c-42.667 0 -76.334 -8 -101.001 -24
c-30 -19.333 -45 -49.333 -45 -90c0 -36 11 -63.667 33 -83c26.667 -23.333 71.667 -35 135 -35z" />
    <glyph glyph-name="agrave" unicode="&#xe0;" horiz-adv-x="474" 
d="M342 0l-0.00292969 48c-26 -19.333 -47.667 -32.666 -65 -39.999c-24 -10.667 -49 -16 -75 -16c-42.667 0 -78.334 11 -107.001 33c-31.333 24 -47 57 -47 99c0 20.667 5.16699 41.667 15.5 63s24.5 39 42.5 53c28.667 22 66 38.667 112 50c26 6 67.333 12 124 18
c0 27.333 -10.167 47.166 -30.5 59.499s-45.5 18.5 -75.5 18.5c-27.333 0 -51.666 -5 -72.999 -15s-37.666 -26.333 -48.999 -49h-22v78c48.667 25.333 99.334 38 152.001 38c50.667 0 92.334 -14.5 125.001 -43.5s49 -66.5 49 -112.5v-224c0 -12 2.33301 -20.333 7 -25
s13 -7.66699 25 -9v-24h-108zM341.997 124l-0.00195312 132.001c-40.667 -6 -69.667 -11 -87 -15c-32.667 -8 -59.667 -19 -81 -33c-13.333 -8.66699 -24.333 -20.167 -33 -34.5s-13 -29.5 -13 -45.5c0 -26 11 -45.667 33 -59c16.667 -10 34.334 -15 53.001 -15
c27.333 0 52.333 7 75 21c18.667 11.333 36.334 27.666 53.001 48.999z" />
    <glyph glyph-name="agrave" unicode="&#x430;" horiz-adv-x="474" 
d="M342 0l-0.00292969 48c-26 -19.333 -47.667 -32.666 -65 -39.999c-24 -10.667 -49 -16 -75 -16c-42.667 0 -78.334 11 -107.001 33c-31.333 24 -47 57 -47 99c0 20.667 5.16699 41.667 15.5 63s24.5 39 42.5 53c28.667 22 66 38.667 112 50c26 6 67.333 12 124 18
c0 27.333 -10.167 47.166 -30.5 59.499s-45.5 18.5 -75.5 18.5c-27.333 0 -51.666 -5 -72.999 -15s-37.666 -26.333 -48.999 -49h-22v78c48.667 25.333 99.334 38 152.001 38c50.667 0 92.334 -14.5 125.001 -43.5s49 -66.5 49 -112.5v-224c0 -12 2.33301 -20.333 7 -25
s13 -7.66699 25 -9v-24h-108zM341.997 124l-0.00195312 132.001c-40.667 -6 -69.667 -11 -87 -15c-32.667 -8 -59.667 -19 -81 -33c-13.333 -8.66699 -24.333 -20.167 -33 -34.5s-13 -29.5 -13 -45.5c0 -26 11 -45.667 33 -59c16.667 -10 34.334 -15 53.001 -15
c27.333 0 52.333 7 75 21c18.667 11.333 36.334 27.666 53.001 48.999z" />
    <glyph glyph-name="aacute" unicode="&#xe1;" 
d="M44 208c0 101.333 9.33594 178.333 28.0029 231c21.333 60.667 58.666 103 111.999 127c18.667 8.66699 47.5 13.667 86.5 15s66.167 4 81.5 8s24.666 9 27.999 15h22v-70c-7.33301 -1.33301 -17.833 -3 -31.5 -5s-24.5 -3 -32.5 -3l-44 2
c-17.333 0 -32.5 -0.833008 -45.5 -2.5s-25.833 -4.83398 -38.5 -9.50098c-56 -25.333 -84 -72.666 -84 -141.999c42.667 46.667 90.667 70 144 70c61.333 0 113 -22.667 155 -68s63 -100 63 -164c0 -62 -21.5 -116.5 -64.5 -163.5s-95.5 -70.5 -157.5 -70.5
c-60.667 0 -112.834 23.167 -156.501 69.5s-65.5 99.833 -65.5 160.5zM264.003 392c-45.333 0 -80.667 -18 -106 -54c-22.667 -32.667 -34 -74.667 -34 -126s10 -93 30 -125c24 -38 60 -57 108 -57c48.667 0 86 19 112 57c22.667 32.667 34 74.334 34 125.001
c0 43.333 -12 82.666 -36 117.999c-28 41.333 -64 62 -108 62z" />
    <glyph glyph-name="aacute" unicode="&#x431;" 
d="M44 208c0 101.333 9.33594 178.333 28.0029 231c21.333 60.667 58.666 103 111.999 127c18.667 8.66699 47.5 13.667 86.5 15s66.167 4 81.5 8s24.666 9 27.999 15h22v-70c-7.33301 -1.33301 -17.833 -3 -31.5 -5s-24.5 -3 -32.5 -3l-44 2
c-17.333 0 -32.5 -0.833008 -45.5 -2.5s-25.833 -4.83398 -38.5 -9.50098c-56 -25.333 -84 -72.666 -84 -141.999c42.667 46.667 90.667 70 144 70c61.333 0 113 -22.667 155 -68s63 -100 63 -164c0 -62 -21.5 -116.5 -64.5 -163.5s-95.5 -70.5 -157.5 -70.5
c-60.667 0 -112.834 23.167 -156.501 69.5s-65.5 99.833 -65.5 160.5zM264.003 392c-45.333 0 -80.667 -18 -106 -54c-22.667 -32.667 -34 -74.667 -34 -126s10 -93 30 -125c24 -38 60 -57 108 -57c48.667 0 86 19 112 57c22.667 32.667 34 74.334 34 125.001
c0 43.333 -12 82.666 -36 117.999c-28 41.333 -64 62 -108 62z" />
    <glyph glyph-name="acircumflex" unicode="&#xe2;" horiz-adv-x="516" 
d="M272 426c43.333 0 77.001 -7 101.001 -21c28.667 -16.667 43 -41.667 43 -75c0 -23.333 -6 -41.833 -18 -55.5s-28.667 -24.5 -50 -32.5c30.667 -3.33301 55.667 -13 75 -29c23.333 -19.333 35 -45 35 -77c0 -32.667 -16.833 -63.5 -50.5 -92.5
s-74.167 -43.5 -121.5 -43.5h-232v24c10.667 1.33301 18.667 4.83301 24 10.5s8 16.167 8 31.5v298c0 12.667 -2.33301 22.167 -7 28.5s-14.334 9.5 -29.001 9.5v24h222zM272.001 52c24 0 45.999 6.66602 65.999 19.999c24 16 36 36.667 36 62
c0 22.667 -9.66699 41.334 -29 56.001s-47.666 22 -84.999 22h-98v-160h110zM262 261.999c22 0 39.499 5.16699 52.499 15.5s19.5 24.5 19.5 42.5s-5.16699 31.167 -15.5 39.5s-25.166 12.5 -44.499 12.5h-112v-110h100z" />
    <glyph glyph-name="acircumflex" unicode="&#x432;" horiz-adv-x="516" 
d="M272 426c43.333 0 77.001 -7 101.001 -21c28.667 -16.667 43 -41.667 43 -75c0 -23.333 -6 -41.833 -18 -55.5s-28.667 -24.5 -50 -32.5c30.667 -3.33301 55.667 -13 75 -29c23.333 -19.333 35 -45 35 -77c0 -32.667 -16.833 -63.5 -50.5 -92.5
s-74.167 -43.5 -121.5 -43.5h-232v24c10.667 1.33301 18.667 4.83301 24 10.5s8 16.167 8 31.5v298c0 12.667 -2.33301 22.167 -7 28.5s-14.334 9.5 -29.001 9.5v24h222zM272.001 52c24 0 45.999 6.66602 65.999 19.999c24 16 36 36.667 36 62
c0 22.667 -9.66699 41.334 -29 56.001s-47.666 22 -84.999 22h-98v-160h110zM262 261.999c22 0 39.499 5.16699 52.499 15.5s19.5 24.5 19.5 42.5s-5.16699 31.167 -15.5 39.5s-25.166 12.5 -44.499 12.5h-112v-110h100z" />
    <glyph glyph-name="atilde" unicode="&#xe3;" horiz-adv-x="386" 
d="M86 364c0 14 -2.33203 23.334 -6.99902 28.001s-14.334 8 -29.001 10v24h310v-86h-18c-2 13.333 -7 22.333 -15 27s-21 7 -39 7h-126v-314c0 -12.667 2.16699 -21.334 6.5 -26.001s12.833 -8 25.5 -10v-24h-140v24c11.333 1.33301 19.5 4.5 24.5 9.5s7.5 13.833 7.5 26.5
v304z" />
    <glyph glyph-name="atilde" unicode="&#x433;" horiz-adv-x="386" 
d="M86 364c0 14 -2.33203 23.334 -6.99902 28.001s-14.334 8 -29.001 10v24h310v-86h-18c-2 13.333 -7 22.333 -15 27s-21 7 -39 7h-126v-314c0 -12.667 2.16699 -21.334 6.5 -26.001s12.833 -8 25.5 -10v-24h-140v24c11.333 1.33301 19.5 4.5 24.5 9.5s7.5 13.833 7.5 26.5
v304z" />
    <glyph glyph-name="adieresis" unicode="&#xe4;" horiz-adv-x="494" 
d="M76 54l146 372h58l144 -372h48v-104h-24c-6 33.333 -26.667 50 -62 50h-262c-35.333 -0 -56 -16.667 -62 -50h-24v104h38zM344 54l-102 268l-104 -268h206z" />
    <glyph glyph-name="adieresis" unicode="&#x434;" horiz-adv-x="494" 
d="M76 54l146 372h58l144 -372h48v-104h-24c-6 33.333 -26.667 50 -62 50h-262c-35.333 -0 -56 -16.667 -62 -50h-24v104h38zM344 54l-102 268l-104 -268h206z" />
    <glyph glyph-name="aring" unicode="&#xe5;" horiz-adv-x="464" 
d="M134 270h226.001c0 34.667 -9.33301 62.334 -28 83.001s-45.334 31 -80.001 31c-30.667 0 -58 -11.333 -82 -34s-36 -49.334 -36 -80.001zM422.001 20c-22 -10 -46 -18.168 -72 -24.501s-50.667 -9.5 -74 -9.5c-27.333 0 -56 5.33301 -86 16
c-43.333 16.667 -77.5 45 -102.5 85s-37.5 83.667 -37.5 131c0 18 2 36 6 54c11.333 50.667 34 91 68 121s76 45 126 45c64 0 113.333 -24.667 148 -74c29.333 -41.333 44 -89.333 44 -144h-314c0 -57.333 18.667 -102.666 56 -135.999c31.333 -28 68 -42 110 -42
c24.667 0 47 5.83301 67 17.5s33 27.167 39 46.5h22v-86z" />
    <glyph glyph-name="aring" unicode="&#x435;" horiz-adv-x="464" 
d="M134 270h226.001c0 34.667 -9.33301 62.334 -28 83.001s-45.334 31 -80.001 31c-30.667 0 -58 -11.333 -82 -34s-36 -49.334 -36 -80.001zM422.001 20c-22 -10 -46 -18.168 -72 -24.501s-50.667 -9.5 -74 -9.5c-27.333 0 -56 5.33301 -86 16
c-43.333 16.667 -77.5 45 -102.5 85s-37.5 83.667 -37.5 131c0 18 2 36 6 54c11.333 50.667 34 91 68 121s76 45 126 45c64 0 113.333 -24.667 148 -74c29.333 -41.333 44 -89.333 44 -144h-314c0 -57.333 18.667 -102.666 56 -135.999c31.333 -28 68 -42 110 -42
c24.667 0 47 5.83301 67 17.5s33 27.167 39 46.5h22v-86z" />
    <glyph glyph-name="ae" unicode="&#xe6;" horiz-adv-x="762" 
d="M338 362c0 14.667 -2.16699 24.502 -6.5 29.502s-13.5 8.5 -27.5 10.5v24h140v-24c-12.667 -2 -20.834 -5.16699 -24.501 -9.5s-5.5 -12.5 -5.5 -24.5v-126l164 136c2 1.33301 3.33301 2.66602 4 3.99902l2 4c0 3.33301 -3.5 6.83301 -10.5 10.5s-12.833 5.5 -17.5 5.5
v24h156v-24c-7.33301 0 -14.166 -2 -20.499 -6l-15.5 -10l-140 -108l158 -226c4.66699 -7.33301 10.334 -13.333 17.001 -18s14.334 -8 23.001 -10v-24h-156v24c7.33301 0 14.166 1.33301 20.499 4s9.5 6.66699 9.5 12l-4 8l-122 186l-68 -52v-122
c0 -12.667 2 -21.334 6 -26.001s12 -8 24 -10v-24h-138v24c21.333 0 32 12 32 36v122l-68 52l-122 -186l-4 -8c0 -5.33301 3.5 -9.33301 10.5 -12s13.5 -4 19.5 -4v-24h-156v24c17.333 4 30.666 13.333 39.999 28l158 226l-140 108l-16.5 10.5
c-5.66699 3.66699 -11.5 5.5 -17.5 5.5l-2 24h156v-24c-4.66699 0 -10.5 -1.83301 -17.5 -5.5s-10.5 -7.16699 -10.5 -10.5l6 -8l164 -136v120z" />
    <glyph glyph-name="ae" unicode="&#x436;" horiz-adv-x="762" 
d="M338 362c0 14.667 -2.16699 24.502 -6.5 29.502s-13.5 8.5 -27.5 10.5v24h140v-24c-12.667 -2 -20.834 -5.16699 -24.501 -9.5s-5.5 -12.5 -5.5 -24.5v-126l164 136c2 1.33301 3.33301 2.66602 4 3.99902l2 4c0 3.33301 -3.5 6.83301 -10.5 10.5s-12.833 5.5 -17.5 5.5
v24h156v-24c-7.33301 0 -14.166 -2 -20.499 -6l-15.5 -10l-140 -108l158 -226c4.66699 -7.33301 10.334 -13.333 17.001 -18s14.334 -8 23.001 -10v-24h-156v24c7.33301 0 14.166 1.33301 20.499 4s9.5 6.66699 9.5 12l-4 8l-122 186l-68 -52v-122
c0 -12.667 2 -21.334 6 -26.001s12 -8 24 -10v-24h-138v24c21.333 0 32 12 32 36v122l-68 52l-122 -186l-4 -8c0 -5.33301 3.5 -9.33301 10.5 -12s13.5 -4 19.5 -4v-24h-156v24c17.333 4 30.666 13.333 39.999 28l158 226l-140 108l-16.5 10.5
c-5.66699 3.66699 -11.5 5.5 -17.5 5.5l-2 24h156v-24c-4.66699 0 -10.5 -1.83301 -17.5 -5.5s-10.5 -7.16699 -10.5 -10.5l6 -8l164 -136v120z" />
    <glyph glyph-name="ccedilla" unicode="&#xe7;" horiz-adv-x="426" 
d="M214 438c50 0 90.833 -9.33105 122.5 -27.998s47.5 -44 47.5 -76c0 -20.667 -5.5 -39.334 -16.5 -56.001s-25.5 -29.334 -43.5 -38.001c24.667 -6 44.167 -17.5 58.5 -34.5s21.5 -38.167 21.5 -63.5c0 -43.333 -21.333 -80.666 -64 -111.999
c-40 -29.333 -85.333 -44 -136 -44c-22 0 -44.667 3.16699 -68 9.5s-46 14.5 -68 24.5v86h22c0 -20 10.5 -35.667 31.5 -47s48.5 -17 82.5 -17s63.5 8.66699 88.5 26s37.5 40.666 37.5 69.999c0 26 -9 44.667 -27 56c-12.667 8 -29 12 -49 12h-40v52h30
c15.333 0 30.5 7.16699 45.5 21.5s22.5 30.5 22.5 48.5c0 21.333 -9 37 -27 47s-41 15 -69 15c-31.333 0 -58.166 -5.83301 -80.499 -17.5s-33.5 -27.167 -33.5 -46.5l2 -14l-22 -10l-34 86c45.333 33.333 100.666 50 165.999 50z" />
    <glyph glyph-name="ccedilla" unicode="&#x437;" horiz-adv-x="426" 
d="M214 438c50 0 90.833 -9.33105 122.5 -27.998s47.5 -44 47.5 -76c0 -20.667 -5.5 -39.334 -16.5 -56.001s-25.5 -29.334 -43.5 -38.001c24.667 -6 44.167 -17.5 58.5 -34.5s21.5 -38.167 21.5 -63.5c0 -43.333 -21.333 -80.666 -64 -111.999
c-40 -29.333 -85.333 -44 -136 -44c-22 0 -44.667 3.16699 -68 9.5s-46 14.5 -68 24.5v86h22c0 -20 10.5 -35.667 31.5 -47s48.5 -17 82.5 -17s63.5 8.66699 88.5 26s37.5 40.666 37.5 69.999c0 26 -9 44.667 -27 56c-12.667 8 -29 12 -49 12h-40v52h30
c15.333 0 30.5 7.16699 45.5 21.5s22.5 30.5 22.5 48.5c0 21.333 -9 37 -27 47s-41 15 -69 15c-31.333 0 -58.166 -5.83301 -80.499 -17.5s-33.5 -27.167 -33.5 -46.5l2 -14l-22 -10l-34 86c45.333 33.333 100.666 50 165.999 50z" />
    <glyph glyph-name="egrave" unicode="&#xe8;" 
d="M454 426l0.000976562 -364.002c0 -14 2.5 -23.833 7.5 -29.5s14.5 -8.5 28.5 -8.5v-24h-112v46c-24.667 -18.667 -48.334 -33 -71.001 -43s-47 -15 -73 -15l-42 4c-40 8.66699 -69.333 27.167 -88 55.5s-28 63.166 -28 104.499v214c0 12.667 -2.16699 21.334 -6.5 26.001
s-12.833 8 -25.5 10v24h108v-256c0 -29.333 2.66699 -51.666 8 -66.999c8 -22 23.333 -37.667 46 -47c15.333 -6.66699 30 -10 44 -10c18 0 35.333 3.66699 52 11c22 10 47.333 28.333 76 55v254c0 12.667 -2.16699 21.334 -6.5 26.001s-12.833 8 -25.5 10v24h108z" />
    <glyph glyph-name="egrave" unicode="&#x438;" 
d="M454 426l0.000976562 -364.002c0 -14 2.5 -23.833 7.5 -29.5s14.5 -8.5 28.5 -8.5v-24h-112v46c-24.667 -18.667 -48.334 -33 -71.001 -43s-47 -15 -73 -15l-42 4c-40 8.66699 -69.333 27.167 -88 55.5s-28 63.166 -28 104.499v214c0 12.667 -2.16699 21.334 -6.5 26.001
s-12.833 8 -25.5 10v24h108v-256c0 -29.333 2.66699 -51.666 8 -66.999c8 -22 23.333 -37.667 46 -47c15.333 -6.66699 30 -10 44 -10c18 0 35.333 3.66699 52 11c22 10 47.333 28.333 76 55v254c0 12.667 -2.16699 21.334 -6.5 26.001s-12.833 8 -25.5 10v24h108z" />
    <glyph glyph-name="eacute" unicode="&#xe9;" 
d="M454 426l0.000976562 -364.002c0 -14 2.5 -23.833 7.5 -29.5s14.5 -8.5 28.5 -8.5v-24h-112v46c-24.667 -18.667 -48.334 -33 -71.001 -43s-47 -15 -73 -15l-42 4c-40 8.66699 -69.333 27.167 -88 55.5s-28 63.166 -28 104.499v214c0 12.667 -2.16699 21.334 -6.5 26.001
s-12.833 8 -25.5 10v24h108v-256c0 -29.333 2.66699 -51.666 8 -66.999c8 -22 23.333 -37.667 46 -47c15.333 -6.66699 30 -10 44 -10c18 0 35.333 3.66699 52 11c22 10 47.333 28.333 76 55v254c0 12.667 -2.16699 21.334 -6.5 26.001s-12.833 8 -25.5 10v24h108z
M154.001 527.998l34.002 75.999l24 -4c0 -12 4.66699 -22.333 14 -31s20.666 -13 33.999 -13c15.333 0 30.666 7.33301 45.999 22c12.667 12 22 25.333 28 40l40 -14c-4.66699 -14 -11 -27.167 -19 -39.5s-17 -22.5 -27 -30.5c-14 -9.33301 -28.5 -16.666 -43.5 -21.999
s-31.167 -8 -48.5 -8c-26.667 0 -54 8 -82 24z" />
    <glyph glyph-name="eacute" unicode="&#x439;" 
d="M454 426l0.000976562 -364.002c0 -14 2.5 -23.833 7.5 -29.5s14.5 -8.5 28.5 -8.5v-24h-112v46c-24.667 -18.667 -48.334 -33 -71.001 -43s-47 -15 -73 -15l-42 4c-40 8.66699 -69.333 27.167 -88 55.5s-28 63.166 -28 104.499v214c0 12.667 -2.16699 21.334 -6.5 26.001
s-12.833 8 -25.5 10v24h108v-256c0 -29.333 2.66699 -51.666 8 -66.999c8 -22 23.333 -37.667 46 -47c15.333 -6.66699 30 -10 44 -10c18 0 35.333 3.66699 52 11c22 10 47.333 28.333 76 55v254c0 12.667 -2.16699 21.334 -6.5 26.001s-12.833 8 -25.5 10v24h108z
M154.001 527.998l34.002 75.999l24 -4c0 -12 4.66699 -22.333 14 -31s20.666 -13 33.999 -13c15.333 0 30.666 7.33301 45.999 22c12.667 12 22 25.333 28 40l40 -14c-4.66699 -14 -11 -27.167 -19 -39.5s-17 -22.5 -27 -30.5c-14 -9.33301 -28.5 -16.666 -43.5 -21.999
s-31.167 -8 -48.5 -8c-26.667 0 -54 8 -82 24z" />
    <glyph glyph-name="ecircumflex" unicode="&#xea;" horiz-adv-x="504" 
d="M160 368l-0.000976562 -125.998l164 136c2 1.33301 3.33301 2.66602 4 3.99902l2 4c0 3.33301 -3.5 6.83301 -10.5 10.5s-12.833 5.5 -17.5 5.5v24h156v-24c-7.33301 0 -14.166 -2 -20.499 -6l-15.5 -10l-140 -108l158 -226c4.66699 -7.33301 10.334 -13.333 17.001 -18
s14.334 -8 23.001 -10v-24h-156v24c7.33301 0 14.166 1.33301 20.499 4s9.5 6.66699 9.5 12l-4 8l-122 186l-68 -52v-122c0 -12.667 2 -21.334 6 -26.001s12 -8 24 -10v-24h-138v24c11.333 1.33301 19.5 4.5 24.5 9.5s7.5 13.833 7.5 26.5v302
c0 14.667 -2.16699 24.5 -6.5 29.5s-13.5 8.5 -27.5 10.5v24h140v-24c-12.667 -2 -20.834 -5.16699 -24.501 -9.5s-5.5 -12.5 -5.5 -24.5z" />
    <glyph glyph-name="ecircumflex" unicode="&#x43a;" horiz-adv-x="504" 
d="M160 368l-0.000976562 -125.998l164 136c2 1.33301 3.33301 2.66602 4 3.99902l2 4c0 3.33301 -3.5 6.83301 -10.5 10.5s-12.833 5.5 -17.5 5.5v24h156v-24c-7.33301 0 -14.166 -2 -20.499 -6l-15.5 -10l-140 -108l158 -226c4.66699 -7.33301 10.334 -13.333 17.001 -18
s14.334 -8 23.001 -10v-24h-156v24c7.33301 0 14.166 1.33301 20.499 4s9.5 6.66699 9.5 12l-4 8l-122 186l-68 -52v-122c0 -12.667 2 -21.334 6 -26.001s12 -8 24 -10v-24h-138v24c11.333 1.33301 19.5 4.5 24.5 9.5s7.5 13.833 7.5 26.5v302
c0 14.667 -2.16699 24.5 -6.5 29.5s-13.5 8.5 -27.5 10.5v24h140v-24c-12.667 -2 -20.834 -5.16699 -24.501 -9.5s-5.5 -12.5 -5.5 -24.5z" />
    <glyph glyph-name="edieresis" unicode="&#xeb;" horiz-adv-x="474" 
d="M212 426h58.002l144 -370c3.33301 -10.667 7.33301 -18.334 12 -23.001s12 -7.66699 22 -9v-24h-132v24c14.667 0 22 4.66699 22 14c0 5.33301 -0.666992 9.33301 -2 12l-104 272l-102 -264l-4 -14c0 -5.33301 3.33301 -10 10 -14s14 -6 22 -6v-24h-124v24
c9.33301 0 16.166 2.33301 20.499 7s8.16602 12.334 11.499 23.001z" />
    <glyph glyph-name="edieresis" unicode="&#x43b;" horiz-adv-x="474" 
d="M212 426h58.002l144 -370c3.33301 -10.667 7.33301 -18.334 12 -23.001s12 -7.66699 22 -9v-24h-132v24c14.667 0 22 4.66699 22 14c0 5.33301 -0.666992 9.33301 -2 12l-104 272l-102 -264l-4 -14c0 -5.33301 3.33301 -10 10 -14s14 -6 22 -6v-24h-124v24
c9.33301 0 16.166 2.33301 20.499 7s8.16602 12.334 11.499 23.001z" />
    <glyph glyph-name="igrave" unicode="&#xec;" horiz-adv-x="644" 
d="M114 62l-2 -12.002c0 -15.333 8.66699 -24 26 -26v-24h-122v24c11.333 0 19 2.33301 23 7s7.66699 14.334 11 29.001l78 328c0 12 -6.66699 18 -20 18v18l98 2l118 -244l114 244l100 -2v-18c-14.667 0 -22 -6 -22 -18l2 -8l70 -320
c3.33301 -13.333 5.33301 -20.666 6 -21.999c4.66699 -9.33301 14 -14 28 -14v-24h-130v22c14.667 2 22 7.33301 22 16l-2 16l-58 288l-124 -270h-34l-124 256z" />
    <glyph glyph-name="igrave" unicode="&#x43c;" horiz-adv-x="644" 
d="M114 62l-2 -12.002c0 -15.333 8.66699 -24 26 -26v-24h-122v24c11.333 0 19 2.33301 23 7s7.66699 14.334 11 29.001l78 328c0 12 -6.66699 18 -20 18v18l98 2l118 -244l114 244l100 -2v-18c-14.667 0 -22 -6 -22 -18l2 -8l70 -320
c3.33301 -13.333 5.33301 -20.666 6 -21.999c4.66699 -9.33301 14 -14 28 -14v-24h-130v22c14.667 2 22 7.33301 22 16l-2 16l-58 288l-124 -270h-34l-124 256z" />
    <glyph glyph-name="iacute" unicode="&#xed;" horiz-adv-x="524" 
d="M462 60c0 -14 2.50098 -23.501 7.50098 -28.501s13.833 -7.5 26.5 -7.5v-24h-140v24c11.333 2 19.5 5.5 24.5 10.5s7.5 13.5 7.5 25.5v136h-226v-136c0 -12.667 2.16699 -21.334 6.5 -26.001s12.833 -8 25.5 -10v-24h-140v24c11.333 1.33301 19.5 4.5 24.5 9.5
s7.5 13.833 7.5 26.5v304c0 14 -2.33301 23.333 -7 28s-14.334 8 -29.001 10v24h144v-24c-12.667 -2 -21.167 -5.16699 -25.5 -9.5s-6.5 -13.166 -6.5 -26.499v-118h226v118c0 12 -2.33301 20.5 -7 25.5s-13 8.5 -25 10.5v24h140v-24c-14 -2 -23.167 -5.16699 -27.5 -9.5
s-6.5 -13.166 -6.5 -26.499v-306z" />
    <glyph glyph-name="iacute" unicode="&#x43d;" horiz-adv-x="524" 
d="M462 60c0 -14 2.50098 -23.501 7.50098 -28.501s13.833 -7.5 26.5 -7.5v-24h-140v24c11.333 2 19.5 5.5 24.5 10.5s7.5 13.5 7.5 25.5v136h-226v-136c0 -12.667 2.16699 -21.334 6.5 -26.001s12.833 -8 25.5 -10v-24h-140v24c11.333 1.33301 19.5 4.5 24.5 9.5
s7.5 13.833 7.5 26.5v304c0 14 -2.33301 23.333 -7 28s-14.334 8 -29.001 10v24h144v-24c-12.667 -2 -21.167 -5.16699 -25.5 -9.5s-6.5 -13.166 -6.5 -26.499v-118h226v118c0 12 -2.33301 20.5 -7 25.5s-13 8.5 -25 10.5v24h140v-24c-14 -2 -23.167 -5.16699 -27.5 -9.5
s-6.5 -13.166 -6.5 -26.499v-306z" />
    <glyph glyph-name="icircumflex" unicode="&#xee;" 
d="M494 212c0 -62 -21.666 -116.501 -64.999 -163.501s-96.333 -70.5 -159 -70.5c-60.667 0 -112.834 23.833 -156.501 71.5s-65.5 101.834 -65.5 162.501c0 62 21.167 115.833 63.5 161.5s94.5 68.5 156.5 68.5s115.167 -22.5 159.5 -67.5s66.5 -99.167 66.5 -162.5z
M270.001 391.999c-45.333 0 -80.667 -18 -106 -54c-22.667 -32.667 -34 -74.667 -34 -126s10 -93 30 -125c24 -38 60 -57 108 -57c47.333 0 84.333 19 111 57c23.333 33.333 35 75 35 125c0 44.667 -11.333 84 -34 118c-27.333 41.333 -64 62 -110 62z" />
    <glyph glyph-name="icircumflex" unicode="&#x43e;" 
d="M494 212c0 -62 -21.666 -116.501 -64.999 -163.501s-96.333 -70.5 -159 -70.5c-60.667 0 -112.834 23.833 -156.501 71.5s-65.5 101.834 -65.5 162.501c0 62 21.167 115.833 63.5 161.5s94.5 68.5 156.5 68.5s115.167 -22.5 159.5 -67.5s66.5 -99.167 66.5 -162.5z
M270.001 391.999c-45.333 0 -80.667 -18 -106 -54c-22.667 -32.667 -34 -74.667 -34 -126s10 -93 30 -125c24 -38 60 -57 108 -57c47.333 0 84.333 19 111 57c23.333 33.333 35 75 35 125c0 44.667 -11.333 84 -34 118c-27.333 41.333 -64 62 -110 62z" />
    <glyph glyph-name="idieresis" unicode="&#xef;" horiz-adv-x="524" 
d="M54 0l-0.000976562 24c11.333 1.33301 19.5 4.5 24.5 9.5s7.5 13.833 7.5 26.5v304c0 14 -2.33301 23.333 -7 28s-14.334 8 -29.001 10v24h112v-48c21.333 18 44.833 32.5 70.5 43.5s50.834 16.5 75.501 16.5c28.667 0 55.334 -6.66699 80.001 -20
c27.333 -13.333 47 -33.666 59 -60.999c10 -22.667 15 -51 15 -85v-212c0 -14 2.5 -23.5 7.5 -28.5s13.833 -7.5 26.5 -7.5v-24h-140v24c11.333 2 19.5 5.5 24.5 10.5s7.5 13.5 7.5 25.5v184c0 38.667 -6.33301 69 -19 91c-16.667 28.667 -43 43 -79 43
c-25.333 0 -49 -6.33301 -71 -19c-16 -8.66699 -35 -23.667 -57 -45v-254c0 -12.667 2.16699 -21.334 6.5 -26.001s12.833 -8 25.5 -10v-24h-140z" />
    <glyph glyph-name="idieresis" unicode="&#x43f;" horiz-adv-x="524" 
d="M54 0l-0.000976562 24c11.333 1.33301 19.5 4.5 24.5 9.5s7.5 13.833 7.5 26.5v304c0 14 -2.33301 23.333 -7 28s-14.334 8 -29.001 10v24h112v-48c21.333 18 44.833 32.5 70.5 43.5s50.834 16.5 75.501 16.5c28.667 0 55.334 -6.66699 80.001 -20
c27.333 -13.333 47 -33.666 59 -60.999c10 -22.667 15 -51 15 -85v-212c0 -14 2.5 -23.5 7.5 -28.5s13.833 -7.5 26.5 -7.5v-24h-140v24c11.333 2 19.5 5.5 24.5 10.5s7.5 13.5 7.5 25.5v184c0 38.667 -6.33301 69 -19 91c-16.667 28.667 -43 43 -79 43
c-25.333 0 -49 -6.33301 -71 -19c-16 -8.66699 -35 -23.667 -57 -45v-254c0 -12.667 2.16699 -21.334 6.5 -26.001s12.833 -8 25.5 -10v-24h-140z" />
    <glyph glyph-name="eth" unicode="&#xf0;" horiz-adv-x="504" 
d="M46 -200l-0.00195312 24.002c14 2 23.167 5.16699 27.5 9.5s6.5 13.166 6.5 26.499v502c0 15.333 -2.16699 25.333 -6.5 30s-14.166 8 -29.499 10v22h110v-44c24 18.667 47.167 32.667 69.5 42s46.5 14 72.5 14h26c48.667 -6 87.834 -27.5 117.501 -64.5
s44.5 -80.833 44.5 -131.5c0 -43.333 -10 -83 -30 -119s-48.667 -65 -86 -87c-23.333 -13.333 -49 -22.333 -77 -27s-59.667 -7 -95 -7h-42v-140c0 -12.667 2.33301 -21.334 7 -26.001s13.667 -8 27 -10v-24h-142zM153.998 316.002l0.000976562 -262.001l48 -2
c23.333 0 44.5 2.16699 63.5 6.5s37.167 11.5 54.5 21.5c27.333 16 48.166 37.5 62.499 64.5s21.5 56.833 21.5 89.5c0 30.667 -7.66699 59.334 -23 86.001s-37 44.667 -65 54c-14 4 -26.667 6 -38 6c-20.667 0 -42.667 -6.66699 -66 -20c-16 -9.33301 -35.333 -24 -58 -44z
" />
    <glyph glyph-name="eth" unicode="&#x440;" horiz-adv-x="504" 
d="M46 -200l-0.00195312 24.002c14 2 23.167 5.16699 27.5 9.5s6.5 13.166 6.5 26.499v502c0 15.333 -2.16699 25.333 -6.5 30s-14.166 8 -29.499 10v22h110v-44c24 18.667 47.167 32.667 69.5 42s46.5 14 72.5 14h26c48.667 -6 87.834 -27.5 117.501 -64.5
s44.5 -80.833 44.5 -131.5c0 -43.333 -10 -83 -30 -119s-48.667 -65 -86 -87c-23.333 -13.333 -49 -22.333 -77 -27s-59.667 -7 -95 -7h-42v-140c0 -12.667 2.33301 -21.334 7 -26.001s13.667 -8 27 -10v-24h-142zM153.998 316.002l0.000976562 -262.001l48 -2
c23.333 0 44.5 2.16699 63.5 6.5s37.167 11.5 54.5 21.5c27.333 16 48.166 37.5 62.499 64.5s21.5 56.833 21.5 89.5c0 30.667 -7.66699 59.334 -23 86.001s-37 44.667 -65 54c-14 4 -26.667 6 -38 6c-20.667 0 -42.667 -6.66699 -66 -20c-16 -9.33301 -35.333 -24 -58 -44z
" />
    <glyph glyph-name="ntilde" unicode="&#xf1;" horiz-adv-x="474" 
d="M416 -2c-12 -2.66699 -26.168 -4.99805 -42.501 -6.99805s-30.833 -3 -43.5 -3c-20.667 0 -40.834 1.83301 -60.501 5.5s-38.167 9.16699 -55.5 16.5c-46 17.333 -84.167 46 -114.5 86s-45.5 84 -45.5 132c0 15.333 2 30 6 44c11.333 49.333 36 89 74 119s82 45 132 45
c68.667 0 131.334 -24 188.001 -72l-66 -74l-20 16c6.66699 11.333 10 20.666 10 27.999c0 9.33301 -4 17.166 -12 23.499s-20.667 12.5 -38 18.5c-16 4 -32 6 -48 6c-34 0 -63.833 -9.83301 -89.5 -29.5s-42.5 -47.167 -50.5 -82.5
c-1.33301 -7.33301 -2.66602 -16 -3.99902 -26s-2 -16 -2 -18c0 -54.667 22 -100 66 -136c38.667 -32 80 -48 124 -48c38.667 0 62 14 70 42h22v-86z" />
    <glyph glyph-name="ntilde" unicode="&#x441;" horiz-adv-x="474" 
d="M416 -2c-12 -2.66699 -26.168 -4.99805 -42.501 -6.99805s-30.833 -3 -43.5 -3c-20.667 0 -40.834 1.83301 -60.501 5.5s-38.167 9.16699 -55.5 16.5c-46 17.333 -84.167 46 -114.5 86s-45.5 84 -45.5 132c0 15.333 2 30 6 44c11.333 49.333 36 89 74 119s82 45 132 45
c68.667 0 131.334 -24 188.001 -72l-66 -74l-20 16c6.66699 11.333 10 20.666 10 27.999c0 9.33301 -4 17.166 -12 23.499s-20.667 12.5 -38 18.5c-16 4 -32 6 -48 6c-34 0 -63.833 -9.83301 -89.5 -29.5s-42.5 -47.167 -50.5 -82.5
c-1.33301 -7.33301 -2.66602 -16 -3.99902 -26s-2 -16 -2 -18c0 -54.667 22 -100 66 -136c38.667 -32 80 -48 124 -48c38.667 0 62 14 70 42h22v-86z" />
    <glyph glyph-name="ograve" unicode="&#xf2;" horiz-adv-x="802" 
d="M54 0l0.00292969 24c11.333 1.33301 19.5 4.5 24.5 9.5s7.5 13.833 7.5 26.5v304c0 14 -2.33301 23.333 -7 28s-14.334 8 -29.001 10v24h110l2 -48c22 18.667 44.167 33 66.5 43s46.166 15 71.499 15c60.667 0 106.667 -24.667 138 -74
c23.333 23.333 48.166 41.5 74.499 54.5s53.5 19.5 81.5 19.5c6.66699 0 14.334 -0.166992 23.001 -0.5s19.667 -2.83301 33 -7.5c29.333 -6.66699 53.333 -22.667 72 -48s28 -53.333 28 -84v-236c0 -15.333 3 -25 9 -29s13.667 -6.33301 23 -7v-24h-140v24
c14 2 22.833 5 26.5 9s5.5 13 5.5 27v216c0 21.333 -1.66699 38 -5 50s-12.333 23.333 -27 34c-10.667 6 -20.834 10.5 -30.501 13.5s-20.167 4.5 -31.5 4.5c-12 0 -25.167 -2.66699 -39.5 -8s-26.666 -11.5 -36.999 -18.5s-20.833 -16.667 -31.5 -29s-16 -22.5 -16 -30.5
v-232c0 -22 10 -34 30 -36v-24h-138v24c20 0 30 12 30 36v216c0 30 -8.83301 54.5 -26.5 73.5s-40.834 28.5 -69.501 28.5c-16 0 -33.5 -4.16699 -52.5 -12.5s-41.5 -24.833 -67.5 -49.5v-256c0 -22 10 -34 30 -36v-24h-138z" />
    <glyph glyph-name="ograve" unicode="&#x442;" horiz-adv-x="802" 
d="M54 0l0.00292969 24c11.333 1.33301 19.5 4.5 24.5 9.5s7.5 13.833 7.5 26.5v304c0 14 -2.33301 23.333 -7 28s-14.334 8 -29.001 10v24h110l2 -48c22 18.667 44.167 33 66.5 43s46.166 15 71.499 15c60.667 0 106.667 -24.667 138 -74
c23.333 23.333 48.166 41.5 74.499 54.5s53.5 19.5 81.5 19.5c6.66699 0 14.334 -0.166992 23.001 -0.5s19.667 -2.83301 33 -7.5c29.333 -6.66699 53.333 -22.667 72 -48s28 -53.333 28 -84v-236c0 -15.333 3 -25 9 -29s13.667 -6.33301 23 -7v-24h-140v24
c14 2 22.833 5 26.5 9s5.5 13 5.5 27v216c0 21.333 -1.66699 38 -5 50s-12.333 23.333 -27 34c-10.667 6 -20.834 10.5 -30.501 13.5s-20.167 4.5 -31.5 4.5c-12 0 -25.167 -2.66699 -39.5 -8s-26.666 -11.5 -36.999 -18.5s-20.833 -16.667 -31.5 -29s-16 -22.5 -16 -30.5
v-232c0 -22 10 -34 30 -36v-24h-138v24c20 0 30 12 30 36v216c0 30 -8.83301 54.5 -26.5 73.5s-40.834 28.5 -69.501 28.5c-16 0 -33.5 -4.16699 -52.5 -12.5s-41.5 -24.833 -67.5 -49.5v-256c0 -22 10 -34 30 -36v-24h-138z" />
    <glyph glyph-name="oacute" unicode="&#xf3;" horiz-adv-x="464" 
d="M244 -58c-16.667 -44 -38.668 -78.002 -66.001 -102.002c-30 -26.667 -64.667 -40 -104 -40c-14 0 -30 2 -48 6v86h24c2 -12 6.33301 -20.667 13 -26s15 -8 25 -8c18 0 34 6 48 18c12.667 9.33301 25.834 25.833 39.501 49.5s20.5 43.834 20.5 60.501
c0 4 -1.33301 10 -4 18l-146 366c-4.66699 11.333 -9 19.333 -13 24s-10.333 7.33398 -19 8.00098v24h132v-24c-14.667 -2.66699 -22 -8 -22 -16l4 -10l112 -288l102 280l2 10c0 14 -8 22 -24 24v24h116v-24c-14 -3.33301 -24 -13.333 -30 -30z" />
    <glyph glyph-name="oacute" unicode="&#x443;" horiz-adv-x="464" 
d="M244 -58c-16.667 -44 -38.668 -78.002 -66.001 -102.002c-30 -26.667 -64.667 -40 -104 -40c-14 0 -30 2 -48 6v86h24c2 -12 6.33301 -20.667 13 -26s15 -8 25 -8c18 0 34 6 48 18c12.667 9.33301 25.834 25.833 39.501 49.5s20.5 43.834 20.5 60.501
c0 4 -1.33301 10 -4 18l-146 366c-4.66699 11.333 -9 19.333 -13 24s-10.333 7.33398 -19 8.00098v24h132v-24c-14.667 -2.66699 -22 -8 -22 -16l4 -10l112 -288l102 280l2 10c0 14 -8 22 -24 24v24h116v-24c-14 -3.33301 -24 -13.333 -30 -30z" />
    <glyph glyph-name="ocircumflex" unicode="&#xf4;" horiz-adv-x="712" 
d="M330 0c-98.667 0 -172.331 25.3359 -220.998 76.0029c-39.333 41.333 -59 94.666 -59 159.999c0 59.333 17.333 107.5 52 144.5s77.334 55.5 128.001 55.5c17.333 0 33.166 -2 47.499 -6s31.833 -13.333 52.5 -28v174c0 13.333 -2.33301 22.166 -7 26.499
s-14.334 7.5 -29.001 9.5v22h112v-232c15.333 10.667 30.666 19 45.999 25s33.333 9 54 9c50.667 0 93.334 -18.333 128.001 -55s52 -85 52 -145c0 -65.333 -19.667 -118.666 -59 -159.999c-48.667 -50.667 -122.334 -76 -221.001 -76v-140
c0 -12.667 2.16699 -21.334 6.5 -26.001s12.833 -8 25.5 -10v-24h-140v24c12.667 2 21.167 5.16699 25.5 9.5s6.5 13.166 6.5 26.499v140zM406.003 50.0029c60.667 0 109.167 17.501 145.5 52.501s54.5 80.833 54.5 137.5c0 38 -10.167 70.833 -30.5 98.5
s-45.5 41.5 -75.5 41.5c-21.333 0 -38.833 -2.83301 -52.5 -8.5s-27.5 -14.834 -41.5 -27.501v-294zM330.003 50.0039l0.00195312 294c-12.667 12 -26.334 21 -41.001 27s-32.334 9 -53.001 9c-29.333 0 -54.333 -14 -75 -42s-31 -60.667 -31 -98
c0 -55.333 18.167 -100.833 54.5 -136.5s84.833 -53.5 145.5 -53.5z" />
    <glyph glyph-name="ocircumflex" unicode="&#x444;" horiz-adv-x="712" 
d="M330 0c-98.667 0 -172.331 25.3359 -220.998 76.0029c-39.333 41.333 -59 94.666 -59 159.999c0 59.333 17.333 107.5 52 144.5s77.334 55.5 128.001 55.5c17.333 0 33.166 -2 47.499 -6s31.833 -13.333 52.5 -28v174c0 13.333 -2.33301 22.166 -7 26.499
s-14.334 7.5 -29.001 9.5v22h112v-232c15.333 10.667 30.666 19 45.999 25s33.333 9 54 9c50.667 0 93.334 -18.333 128.001 -55s52 -85 52 -145c0 -65.333 -19.667 -118.666 -59 -159.999c-48.667 -50.667 -122.334 -76 -221.001 -76v-140
c0 -12.667 2.16699 -21.334 6.5 -26.001s12.833 -8 25.5 -10v-24h-140v24c12.667 2 21.167 5.16699 25.5 9.5s6.5 13.166 6.5 26.499v140zM406.003 50.0029c60.667 0 109.167 17.501 145.5 52.501s54.5 80.833 54.5 137.5c0 38 -10.167 70.833 -30.5 98.5
s-45.5 41.5 -75.5 41.5c-21.333 0 -38.833 -2.83301 -52.5 -8.5s-27.5 -14.834 -41.5 -27.501v-294zM330.003 50.0039l0.00195312 294c-12.667 12 -26.334 21 -41.001 27s-32.334 9 -53.001 9c-29.333 0 -54.333 -14 -75 -42s-31 -60.667 -31 -98
c0 -55.333 18.167 -100.833 54.5 -136.5s84.833 -53.5 145.5 -53.5z" />
    <glyph glyph-name="otilde" unicode="&#xf5;" horiz-adv-x="454" 
d="M148 0l-131.999 -0.000976562v24c14.667 2 26.667 8.66699 36 20l128 186l-106 152c-4.66699 6 -10 10.667 -16 14s-13.333 5.33301 -22 6v24h150v-24c-4.66699 0 -9.83398 -1.5 -15.501 -4.5s-8.5 -6.16699 -8.5 -9.5l4 -10l72 -104l66 98l4 12
c0 4.66699 -2.16699 8.5 -6.5 11.5s-10.166 5.16699 -17.499 6.5v24h132v-24c-16.667 0 -30.667 -8 -42 -24l-104 -152l124 -178c10 -14 22.667 -22 38 -24v-24h-152v24c8 0 15 1 21 3s9 5.66699 9 11c-0.666992 4.66699 -1.33398 7.33398 -2.00098 8.00098l-96 136
l-88 -134l-2 -8c0 -4.66699 3 -8.5 9 -11.5s11.667 -4.5 17 -4.5v-24z" />
    <glyph glyph-name="otilde" unicode="&#x445;" horiz-adv-x="454" 
d="M148 0l-131.999 -0.000976562v24c14.667 2 26.667 8.66699 36 20l128 186l-106 152c-4.66699 6 -10 10.667 -16 14s-13.333 5.33301 -22 6v24h150v-24c-4.66699 0 -9.83398 -1.5 -15.501 -4.5s-8.5 -6.16699 -8.5 -9.5l4 -10l72 -104l66 98l4 12
c0 4.66699 -2.16699 8.5 -6.5 11.5s-10.166 5.16699 -17.499 6.5v24h132v-24c-16.667 0 -30.667 -8 -42 -24l-104 -152l124 -178c10 -14 22.667 -22 38 -24v-24h-152v24c8 0 15 1 21 3s9 5.66699 9 11c-0.666992 4.66699 -1.33398 7.33398 -2.00098 8.00098l-96 136
l-88 -134l-2 -8c0 -4.66699 3 -8.5 9 -11.5s11.667 -4.5 17 -4.5v-24z" />
    <glyph glyph-name="odieresis" unicode="&#xf6;" horiz-adv-x="524" 
d="M454 426l0.000976562 -372.002h46v-104h-24c-6 33.333 -26.667 50 -62 50h-36v46c-24.667 -18.667 -48.334 -33 -71.001 -43s-47 -15 -73 -15l-42 4c-40 8.66699 -69.333 27.167 -88 55.5s-28 63.166 -28 104.499v214c0 12.667 -2.16699 21.334 -6.5 26.001
s-12.833 8 -25.5 10v24h108v-256c0 -29.333 2.66699 -51.666 8 -66.999c8 -22 23.333 -37.667 46 -47c15.333 -6.66699 30 -10 44 -10c18 0 35.333 3.66699 52 11c22 10 47.333 28.333 76 55v254c0 12.667 -2.16699 21.334 -6.5 26.001s-12.833 8 -25.5 10v24h108z" />
    <glyph glyph-name="odieresis" unicode="&#x446;" horiz-adv-x="524" 
d="M454 426l0.000976562 -372.002h46v-104h-24c-6 33.333 -26.667 50 -62 50h-36v46c-24.667 -18.667 -48.334 -33 -71.001 -43s-47 -15 -73 -15l-42 4c-40 8.66699 -69.333 27.167 -88 55.5s-28 63.166 -28 104.499v214c0 12.667 -2.16699 21.334 -6.5 26.001
s-12.833 8 -25.5 10v24h108v-256c0 -29.333 2.66699 -51.666 8 -66.999c8 -22 23.333 -37.667 46 -47c15.333 -6.66699 30 -10 44 -10c18 0 35.333 3.66699 52 11c22 10 47.333 28.333 76 55v254c0 12.667 -2.16699 21.334 -6.5 26.001s-12.833 8 -25.5 10v24h108z" />
    <glyph glyph-name="divide" unicode="&#xf7;" horiz-adv-x="494" 
d="M364 268l0.00292969 97.999c0 11.333 -2.33301 19.666 -7 24.999s-13 9 -25 11v24h142v-24c-14 -2 -23.167 -5.16699 -27.5 -9.5s-6.5 -13.166 -6.5 -26.499v-306c0 -14 2.5 -23.5 7.5 -28.5s13.833 -7.5 26.5 -7.5v-24h-142v24c12.667 2 21.167 5.5 25.5 10.5
s6.5 13.5 6.5 25.5v154c-50 -30.667 -96 -46 -138 -46c-37.333 0 -70 11.667 -98 35s-42 52.333 -42 87v74c0 14 -2.33301 23.333 -7 28s-14.334 8 -29.001 10v24h144v-24c-12.667 -2 -21.167 -5.16699 -25.5 -9.5s-6.5 -13.166 -6.5 -26.499v-70
c0 -20.667 8.16699 -38.167 24.5 -52.5s36.166 -21.5 59.499 -21.5c20.667 0 41.167 3.83301 61.5 11.5s39.166 19.167 56.499 34.5z" />
    <glyph glyph-name="divide" unicode="&#x447;" horiz-adv-x="494" 
d="M364 268l0.00292969 97.999c0 11.333 -2.33301 19.666 -7 24.999s-13 9 -25 11v24h142v-24c-14 -2 -23.167 -5.16699 -27.5 -9.5s-6.5 -13.166 -6.5 -26.499v-306c0 -14 2.5 -23.5 7.5 -28.5s13.833 -7.5 26.5 -7.5v-24h-142v24c12.667 2 21.167 5.5 25.5 10.5
s6.5 13.5 6.5 25.5v154c-50 -30.667 -96 -46 -138 -46c-37.333 0 -70 11.667 -98 35s-42 52.333 -42 87v74c0 14 -2.33301 23.333 -7 28s-14.334 8 -29.001 10v24h144v-24c-12.667 -2 -21.167 -5.16699 -25.5 -9.5s-6.5 -13.166 -6.5 -26.499v-70
c0 -20.667 8.16699 -38.167 24.5 -52.5s36.166 -21.5 59.499 -21.5c20.667 0 41.167 3.83301 61.5 11.5s39.166 19.167 56.499 34.5z" />
    <glyph glyph-name="oslash" unicode="&#xf8;" horiz-adv-x="812" 
d="M782 426v-23.998c-11.333 -2 -19.5 -5.5 -24.5 -10.5s-7.5 -13.5 -7.5 -25.5v-304c0 -14 2.33301 -23.333 7 -28s14.334 -8 29.001 -10v-24h-110l-2 48c-22 -18.667 -44.833 -33.334 -68.5 -44.001s-48.167 -16 -73.5 -16c-30 0 -55.667 6.16699 -77 18.5
s-40.333 31.5 -57 57.5c-24 -24 -49 -42.667 -75 -56s-53.667 -20 -83 -20c-10 0 -20 1 -30 3s-18 3.66699 -24 5c-29.333 8 -53.333 24.5 -72 49.5s-28 53.167 -28 84.5v236c0 12 -2.33301 20.5 -7 25.5s-13 8.5 -25 10.5v24h138v-24
c-12.667 -2 -20.834 -5.16699 -24.501 -9.5s-5.5 -13.166 -5.5 -26.499v-216c0 -21.333 1.83301 -38.333 5.5 -51s12.5 -23.667 26.5 -33c18 -12 38 -18 60 -18c27.333 0 54 9.33301 80 28c10 6.66699 19.333 15 28 25c12 13.333 18 23.666 18 30.999v234
c0 20.667 -10 32.667 -30 36v24h136v-24c-20 -3.33301 -30 -15.333 -30 -36v-216c0 -31.333 7.66699 -56.166 23 -74.499s38.333 -27.5 69 -27.5c22.667 0 45.667 6.33301 69 19c17.333 9.33301 36.333 23.666 57 42.999v256c0 11.333 -2.33301 19.666 -7 24.999
s-13 9 -25 11v24h140z" />
    <glyph glyph-name="oslash" unicode="&#x448;" horiz-adv-x="812" 
d="M782 426v-23.998c-11.333 -2 -19.5 -5.5 -24.5 -10.5s-7.5 -13.5 -7.5 -25.5v-304c0 -14 2.33301 -23.333 7 -28s14.334 -8 29.001 -10v-24h-110l-2 48c-22 -18.667 -44.833 -33.334 -68.5 -44.001s-48.167 -16 -73.5 -16c-30 0 -55.667 6.16699 -77 18.5
s-40.333 31.5 -57 57.5c-24 -24 -49 -42.667 -75 -56s-53.667 -20 -83 -20c-10 0 -20 1 -30 3s-18 3.66699 -24 5c-29.333 8 -53.333 24.5 -72 49.5s-28 53.167 -28 84.5v236c0 12 -2.33301 20.5 -7 25.5s-13 8.5 -25 10.5v24h138v-24
c-12.667 -2 -20.834 -5.16699 -24.501 -9.5s-5.5 -13.166 -5.5 -26.499v-216c0 -21.333 1.83301 -38.333 5.5 -51s12.5 -23.667 26.5 -33c18 -12 38 -18 60 -18c27.333 0 54 9.33301 80 28c10 6.66699 19.333 15 28 25c12 13.333 18 23.666 18 30.999v234
c0 20.667 -10 32.667 -30 36v24h136v-24c-20 -3.33301 -30 -15.333 -30 -36v-216c0 -31.333 7.66699 -56.166 23 -74.499s38.333 -27.5 69 -27.5c22.667 0 45.667 6.33301 69 19c17.333 9.33301 36.333 23.666 57 42.999v256c0 11.333 -2.33301 19.666 -7 24.999
s-13 9 -25 11v24h140z" />
    <glyph glyph-name="ugrave" unicode="&#xf9;" horiz-adv-x="822" 
d="M782 426l0.00292969 -24c-11.333 -2 -19.5 -5.5 -24.5 -10.5s-7.5 -13.5 -7.5 -25.5v-312h48v-104h-24c-6 33.333 -26.667 50 -62 50h-36l-2 48c-22.667 -19.333 -45.334 -34.166 -68.001 -44.499s-47.334 -15.5 -74.001 -15.5c-30 0 -55.667 6.16699 -77 18.5
s-40.333 31.5 -57 57.5c-24 -24 -49 -42.667 -75 -56s-53.667 -20 -83 -20c-10 0 -20 1 -30 3s-18 3.66699 -24 5c-29.333 8 -53.333 24.5 -72 49.5s-28 53.167 -28 84.5v236c0 12 -2.33301 20.5 -7 25.5s-13 8.5 -25 10.5v24h138v-24
c-12.667 -2 -20.834 -5.16699 -24.501 -9.5s-5.5 -13.166 -5.5 -26.499v-216c0 -21.333 1.83301 -38.333 5.5 -51s12.5 -23.667 26.5 -33c18 -12 38 -18 60 -18c27.333 0 54 9.33301 80 28c10 6.66699 19.333 15 28 25c12 13.333 18 23.666 18 30.999v234
c0 20.667 -10 32.667 -30 36v24h136v-24c-20 -3.33301 -30 -15.333 -30 -36v-216c0 -31.333 7.66699 -56.166 23 -74.499s38.333 -27.5 69 -27.5c22.667 0 45.667 6.33301 69 19c17.333 9.33301 36.333 23.666 57 42.999v256c0 11.333 -2.33301 19.666 -7 24.999
s-13 9 -25 11v24h140z" />
    <glyph glyph-name="ugrave" unicode="&#x449;" horiz-adv-x="822" 
d="M782 426l0.00292969 -24c-11.333 -2 -19.5 -5.5 -24.5 -10.5s-7.5 -13.5 -7.5 -25.5v-312h48v-104h-24c-6 33.333 -26.667 50 -62 50h-36l-2 48c-22.667 -19.333 -45.334 -34.166 -68.001 -44.499s-47.334 -15.5 -74.001 -15.5c-30 0 -55.667 6.16699 -77 18.5
s-40.333 31.5 -57 57.5c-24 -24 -49 -42.667 -75 -56s-53.667 -20 -83 -20c-10 0 -20 1 -30 3s-18 3.66699 -24 5c-29.333 8 -53.333 24.5 -72 49.5s-28 53.167 -28 84.5v236c0 12 -2.33301 20.5 -7 25.5s-13 8.5 -25 10.5v24h138v-24
c-12.667 -2 -20.834 -5.16699 -24.501 -9.5s-5.5 -13.166 -5.5 -26.499v-216c0 -21.333 1.83301 -38.333 5.5 -51s12.5 -23.667 26.5 -33c18 -12 38 -18 60 -18c27.333 0 54 9.33301 80 28c10 6.66699 19.333 15 28 25c12 13.333 18 23.666 18 30.999v234
c0 20.667 -10 32.667 -30 36v24h136v-24c-20 -3.33301 -30 -15.333 -30 -36v-216c0 -31.333 7.66699 -56.166 23 -74.499s38.333 -27.5 69 -27.5c22.667 0 45.667 6.33301 69 19c17.333 9.33301 36.333 23.666 57 42.999v256c0 11.333 -2.33301 19.666 -7 24.999
s-13 9 -25 11v24h140z" />
    <glyph glyph-name="uacute" unicode="&#xfa;" horiz-adv-x="614" 
d="M322 426v-23.998c-11.333 -2 -19.5 -5.5 -24.5 -10.5s-7.5 -13.5 -7.5 -25.5v-106h114c54.667 0 98.667 -10.833 132 -32.5s50 -53.5 50 -95.5c0 -42.667 -18 -76 -54 -100c-32 -21.333 -73.333 -32 -124 -32h-226v24c12 1.33301 20.333 4.66602 25 9.99902s7 16 7 32
v310h-100c-11.333 0 -19.833 -3.83301 -25.5 -11.5s-10.5 -17.834 -14.5 -30.501h-22v92h270zM408 52.002c70.667 0 106 26.666 106 79.999c0 26.667 -9.83301 46.334 -29.5 59.001s-47.167 19 -82.5 19h-112v-158h118z" />
    <glyph glyph-name="uacute" unicode="&#x44a;" horiz-adv-x="614" 
d="M322 426v-23.998c-11.333 -2 -19.5 -5.5 -24.5 -10.5s-7.5 -13.5 -7.5 -25.5v-106h114c54.667 0 98.667 -10.833 132 -32.5s50 -53.5 50 -95.5c0 -42.667 -18 -76 -54 -100c-32 -21.333 -73.333 -32 -124 -32h-226v24c12 1.33301 20.333 4.66602 25 9.99902s7 16 7 32
v310h-100c-11.333 0 -19.833 -3.83301 -25.5 -11.5s-10.5 -17.834 -14.5 -30.501h-22v92h270zM408 52.002c70.667 0 106 26.666 106 79.999c0 26.667 -9.83301 46.334 -29.5 59.001s-47.167 19 -82.5 19h-112v-158h118z" />
    <glyph glyph-name="ucircumflex" unicode="&#xfb;" horiz-adv-x="662" 
d="M50 426l141.999 -0.000976562v-24c-20 -3.33301 -30 -15.333 -30 -36v-106h112c56 0 100.667 -10.667 134 -32s50 -53.333 50 -96s-18 -76 -54 -100c-32 -21.333 -73.333 -32 -124 -32h-226v24c10.667 1.33301 18.667 4.83301 24 10.5s8 16.167 8 31.5v298
c-1.33301 12.667 -3.66602 21.334 -6.99902 26.001c-6 8 -15.667 12 -29 12v24zM161.999 209.999v-158.001h118c69.333 0 104 26.667 104 80c0 26.667 -9.83301 46.334 -29.5 59.001s-46.5 19 -80.5 19h-112zM533.999 59.998v305.999c0 11.333 -2.33301 19.666 -7 24.999
s-13 9 -25 11v24h140v-24c-12.667 -2 -21.167 -5.16699 -25.5 -9.5s-6.5 -13.166 -6.5 -26.499v-306c0 -13.333 2.33301 -22.666 7 -27.999s13 -8 25 -8v-24h-140v24c12.667 2 21.167 5.5 25.5 10.5s6.5 13.5 6.5 25.5z" />
    <glyph glyph-name="ucircumflex" unicode="&#x44b;" horiz-adv-x="662" 
d="M50 426l141.999 -0.000976562v-24c-20 -3.33301 -30 -15.333 -30 -36v-106h112c56 0 100.667 -10.667 134 -32s50 -53.333 50 -96s-18 -76 -54 -100c-32 -21.333 -73.333 -32 -124 -32h-226v24c10.667 1.33301 18.667 4.83301 24 10.5s8 16.167 8 31.5v298
c-1.33301 12.667 -3.66602 21.334 -6.99902 26.001c-6 8 -15.667 12 -29 12v24zM161.999 209.999v-158.001h118c69.333 0 104 26.667 104 80c0 26.667 -9.83301 46.334 -29.5 59.001s-46.5 19 -80.5 19h-112zM533.999 59.998v305.999c0 11.333 -2.33301 19.666 -7 24.999
s-13 9 -25 11v24h140v-24c-12.667 -2 -21.167 -5.16699 -25.5 -9.5s-6.5 -13.166 -6.5 -26.499v-306c0 -13.333 2.33301 -22.666 7 -27.999s13 -8 25 -8v-24h-140v24c12.667 2 21.167 5.5 25.5 10.5s6.5 13.5 6.5 25.5z" />
    <glyph glyph-name="udieresis" unicode="&#xfc;" horiz-adv-x="484" 
d="M50 426l141.999 -0.000976562v-24c-20 -3.33301 -30 -15.333 -30 -36v-106h112c56 0 100.667 -10.667 134 -32s50 -53.333 50 -96s-18 -76 -54 -100c-32 -21.333 -73.333 -32 -124 -32h-226v24c10.667 1.33301 18.667 4.83301 24 10.5s8 16.167 8 31.5v298
c-1.33301 12.667 -3.66602 21.334 -6.99902 26.001c-6 8 -15.667 12 -29 12v24zM161.999 209.999v-158.001h118c69.333 0 104 26.667 104 80c0 26.667 -9.83301 46.334 -29.5 59.001s-46.5 19 -80.5 19h-112z" />
    <glyph glyph-name="udieresis" unicode="&#x44c;" horiz-adv-x="484" 
d="M50 426l141.999 -0.000976562v-24c-20 -3.33301 -30 -15.333 -30 -36v-106h112c56 0 100.667 -10.667 134 -32s50 -53.333 50 -96s-18 -76 -54 -100c-32 -21.333 -73.333 -32 -124 -32h-226v24c10.667 1.33301 18.667 4.83301 24 10.5s8 16.167 8 31.5v298
c-1.33301 12.667 -3.66602 21.334 -6.99902 26.001c-6 8 -15.667 12 -29 12v24zM161.999 209.999v-158.001h118c69.333 0 104 26.667 104 80c0 26.667 -9.83301 46.334 -29.5 59.001s-46.5 19 -80.5 19h-112z" />
    <glyph glyph-name="yacute" unicode="&#xfd;" horiz-adv-x="464" 
d="M362 248c-4.66699 36 -21.501 67.332 -50.501 93.999s-60.167 40 -93.5 40c-16 0 -32 -2 -48 -6c-15.333 -5.33301 -27.5 -11.333 -36.5 -18s-13.5 -14.667 -13.5 -24c0 -7.33301 3.33301 -16.666 10 -27.999l-20 -16l-66 74c27.333 23.333 56.666 41.166 87.999 53.499
s64.666 18.5 99.999 18.5c49.333 0 93.333 -15.167 132 -45.5s63.334 -69.833 74.001 -118.5c4 -14 6 -28.667 6 -44c0 -48 -15 -92 -45 -132s-68.333 -68.667 -115 -86c-17.333 -8 -35.666 -13.667 -54.999 -17s-39.666 -5 -60.999 -5c-26 0 -54.667 3.33301 -86 10v86h22
c4 -13.333 12.333 -23.666 25 -30.999s27.667 -11 45 -11c37.333 0 74.333 13.333 111 40c41.333 30.667 66.333 68.667 75 114h-168v52h170z" />
    <glyph glyph-name="yacute" unicode="&#x44d;" horiz-adv-x="464" 
d="M362 248c-4.66699 36 -21.501 67.332 -50.501 93.999s-60.167 40 -93.5 40c-16 0 -32 -2 -48 -6c-15.333 -5.33301 -27.5 -11.333 -36.5 -18s-13.5 -14.667 -13.5 -24c0 -7.33301 3.33301 -16.666 10 -27.999l-20 -16l-66 74c27.333 23.333 56.666 41.166 87.999 53.499
s64.666 18.5 99.999 18.5c49.333 0 93.333 -15.167 132 -45.5s63.334 -69.833 74.001 -118.5c4 -14 6 -28.667 6 -44c0 -48 -15 -92 -45 -132s-68.333 -68.667 -115 -86c-17.333 -8 -35.666 -13.667 -54.999 -17s-39.666 -5 -60.999 -5c-26 0 -54.667 3.33301 -86 10v86h22
c4 -13.333 12.333 -23.666 25 -30.999s27.667 -11 45 -11c37.333 0 74.333 13.333 111 40c41.333 30.667 66.333 68.667 75 114h-168v52h170z" />
    <glyph glyph-name="thorn" unicode="&#xfe;" horiz-adv-x="692" 
d="M222 196h-59.9971v-136c0 -12.667 2.16699 -21.334 6.5 -26.001s12.833 -8 25.5 -10v-24h-140v24c11.333 1.33301 19.5 4.5 24.5 9.5s7.5 13.833 7.5 26.5v304c0 14 -2.33301 23.333 -7 28s-14.334 8 -29.001 10v24h144v-24c-12.667 -2 -21.167 -5.16699 -25.5 -9.5
s-6.5 -13.166 -6.5 -26.499v-118h60c9.33301 54.667 34.166 100.667 74.499 138s88.166 56 143.499 56c62 0 114.833 -22.5 158.5 -67.5s65.5 -99.167 65.5 -162.5c0 -62 -21.5 -116.5 -64.5 -163.5s-95.5 -70.5 -157.5 -70.5c-59.333 0 -110.833 21.833 -154.5 65.5
s-65.5 94.5 -65.5 152.5zM474.003 390c-4.66699 0.666992 -10.668 1.16797 -18.001 1.50098s-12.666 0.5 -15.999 0.5c-44.667 0 -79.167 -17.333 -103.5 -52s-36.5 -77.334 -36.5 -128.001c0 -51.333 10 -93 30 -125c24 -38 60 -57 108 -57c48.667 0 86 19 112 57
c22.667 32.667 34 74.334 34 125.001c0 43.333 -8 80.333 -24 111c-19.333 37.333 -48 59.666 -86 66.999z" />
    <glyph glyph-name="thorn" unicode="&#x44e;" horiz-adv-x="692" 
d="M222 196h-59.9971v-136c0 -12.667 2.16699 -21.334 6.5 -26.001s12.833 -8 25.5 -10v-24h-140v24c11.333 1.33301 19.5 4.5 24.5 9.5s7.5 13.833 7.5 26.5v304c0 14 -2.33301 23.333 -7 28s-14.334 8 -29.001 10v24h144v-24c-12.667 -2 -21.167 -5.16699 -25.5 -9.5
s-6.5 -13.166 -6.5 -26.499v-118h60c9.33301 54.667 34.166 100.667 74.499 138s88.166 56 143.499 56c62 0 114.833 -22.5 158.5 -67.5s65.5 -99.167 65.5 -162.5c0 -62 -21.5 -116.5 -64.5 -163.5s-95.5 -70.5 -157.5 -70.5c-59.333 0 -110.833 21.833 -154.5 65.5
s-65.5 94.5 -65.5 152.5zM474.003 390c-4.66699 0.666992 -10.668 1.16797 -18.001 1.50098s-12.666 0.5 -15.999 0.5c-44.667 0 -79.167 -17.333 -103.5 -52s-36.5 -77.334 -36.5 -128.001c0 -51.333 10 -93 30 -125c24 -38 60 -57 108 -57c48.667 0 86 19 112 57
c22.667 32.667 34 74.334 34 125.001c0 43.333 -8 80.333 -24 111c-19.333 37.333 -48 59.666 -86 66.999z" />
    <glyph glyph-name="ydieresis" unicode="&#xff;" horiz-adv-x="474" 
d="M346 242l0.000976562 131.999h-126c-19.333 0 -36 -4.33301 -50 -13c-18.667 -11.333 -28 -27.666 -28 -48.999c0 -23.333 7.66699 -40.833 23 -52.5s35.666 -17.5 60.999 -17.5h120zM454.001 425.999l-0.000976562 -24.001c-14 -2 -23.167 -5.16699 -27.5 -9.5
s-6.5 -13.166 -6.5 -26.499v-310c0 -13.333 2.33301 -22 7 -26s13.667 -6 27 -6v-24h-140v24c11.333 2 19.5 5.5 24.5 10.5s7.5 13.5 7.5 25.5v132h-38l-170 -192h-102v24c8 2 14 3.66699 18 5c12.667 4 21.334 8.33301 26.001 13l140 152c-50 4 -87.667 15 -113 33
c-28.667 20 -43 49 -43 87c0 34.667 12.333 62 37 82s59.667 30 105 30h248z" />
    <glyph glyph-name="ydieresis" unicode="&#x44f;" horiz-adv-x="474" 
d="M346 242l0.000976562 131.999h-126c-19.333 0 -36 -4.33301 -50 -13c-18.667 -11.333 -28 -27.666 -28 -48.999c0 -23.333 7.66699 -40.833 23 -52.5s35.666 -17.5 60.999 -17.5h120zM454.001 425.999l-0.000976562 -24.001c-14 -2 -23.167 -5.16699 -27.5 -9.5
s-6.5 -13.166 -6.5 -26.499v-310c0 -13.333 2.33301 -22 7 -26s13.667 -6 27 -6v-24h-140v24c11.333 2 19.5 5.5 24.5 10.5s7.5 13.5 7.5 25.5v132h-38l-170 -192h-102v24c8 2 14 3.66699 18 5c12.667 4 21.334 8.33301 26.001 13l140 152c-50 4 -87.667 15 -113 33
c-28.667 20 -43 49 -43 87c0 34.667 12.333 62 37 82s59.667 30 105 30h248z" />
    <glyph glyph-name="OE" unicode="&#x152;" horiz-adv-x="328" 
 />
    <glyph glyph-name="oe" unicode="&#x153;" horiz-adv-x="328" 
 />
    <glyph glyph-name="Scaron" unicode="&#x160;" horiz-adv-x="328" 
 />
    <glyph glyph-name="scaron" unicode="&#x161;" horiz-adv-x="328" 
 />
    <glyph glyph-name="Ydieresis" unicode="&#x178;" horiz-adv-x="474" 
d="M346 242l0.000976562 131.999h-126c-19.333 0 -36 -4.33301 -50 -13c-18.667 -11.333 -28 -27.666 -28 -48.999c0 -23.333 7.66699 -40.833 23 -52.5s35.666 -17.5 60.999 -17.5h120zM454.001 425.999l-0.000976562 -24.001c-14 -2 -23.167 -5.16699 -27.5 -9.5
s-6.5 -13.166 -6.5 -26.499v-310c0 -13.333 2.33301 -22 7 -26s13.667 -6 27 -6v-24h-140v24c11.333 2 19.5 5.5 24.5 10.5s7.5 13.5 7.5 25.5v132h-38l-170 -192h-102v24c8 2 14 3.66699 18 5c12.667 4 21.334 8.33301 26.001 13l140 152c-50 4 -87.667 15 -113 33
c-28.667 20 -43 49 -43 87c0 34.667 12.333 62 37 82s59.667 30 105 30h248z" />
    <glyph glyph-name="florin" unicode="&#x192;" horiz-adv-x="328" 
 />
    <glyph glyph-name="endash" unicode="&#x2013;" horiz-adv-x="346" 
d="M58 250h260v-56h-260v56z" />
    <glyph glyph-name="emdash" unicode="&#x2014;" horiz-adv-x="802" 
d="M80 250h694v-56h-694v56z" />
    <glyph glyph-name="quoteleft" unicode="&#x2018;" horiz-adv-x="208" 
d="M84 532l66 104h32l-46 -98h34v-88h-86v82z" />
    <glyph glyph-name="quoteright" unicode="&#x2019;" horiz-adv-x="208" 
d="M122 452h-34l46 98h-32v86h84v-72z" />
    <glyph glyph-name="quotesinglbase" unicode="&#x201a;" horiz-adv-x="328" 
 />
    <glyph glyph-name="quotedblleft" unicode="&#x201c;" horiz-adv-x="336" 
d="M84 532l66 104h32l-46 -98h34v-88h-86v82zM276 636h32l-46 -98h34v-88h-86v74z" />
    <glyph glyph-name="quotedblright" unicode="&#x201d;" horiz-adv-x="336" 
d="M312 556l-66 -104h-32l46 98h-34v86h86v-80zM122 452h-34l46 98h-32v86h84v-72z" />
    <glyph glyph-name="quotedblbase" unicode="&#x201e;" horiz-adv-x="328" 
 />
    <glyph glyph-name="dagger" unicode="&#x2020;" horiz-adv-x="328" 
 />
    <glyph glyph-name="daggerdbl" unicode="&#x2021;" horiz-adv-x="328" 
 />
    <glyph glyph-name="ellipsis" unicode="&#x2026;" horiz-adv-x="328" 
 />
    <glyph glyph-name="perthousand" unicode="&#x2030;" horiz-adv-x="328" 
 />
    <glyph glyph-name="guilsinglleft" unicode="&#x2039;" horiz-adv-x="682" 
d="M660 508v-56l-444 -182l444 -178v-58l-522 214v46z" />
    <glyph glyph-name="guilsinglright" unicode="&#x203a;" horiz-adv-x="682" 
d="M138 508l522 -214v-46l-522 -214v58l442 178l-442 182v56z" />
    <glyph glyph-name="trademark" unicode="&#x2122;" horiz-adv-x="328" 
 />
    <glyph glyph-name=".null" horiz-adv-x="0" 
 />
    <glyph glyph-name="nonmarkingreturn" horiz-adv-x="418" 
 />
  </font>
</defs>
</svg>
